<svg height="512" viewBox="0 0 512 512" width="512" xmlns="http://www.w3.org/2000/svg"><g id="User_Profile" data-name="User Profile"><g id="Filled"><rect fill="#ff9e80" height="336" rx="60" width="496" x="8" y="88"/><path d="m477.883 98.486c-38.983 163.739-186.21 285.514-361.883 285.514a371.963 371.963 0 0 1 -107.844-15.888 59.991 59.991 0 0 0 59.844 55.888h376a60 60 0 0 0 60-60v-216a59.931 59.931 0 0 0 -26.117-49.514z" fill="#ff8b6c"/><path d="m222.276 298.855-38.276-7.655v4.8a40 40 0 0 1 -80 0v-4.8l-38.276 7.655a32 32 0 0 0 -25.724 31.379v53.766h208v-53.766a32 32 0 0 0 -25.724-31.379z" fill="#0277bd"/><path d="m115.72 324.28a39.994 39.994 0 0 0 68.28-28.28v-4.8l-16-3.2v-32h-48v32l-16 3.2v4.8a39.875 39.875 0 0 0 11.72 28.28z" fill="#ffdecf"/><path d="m222.276 298.855s-6.276 69.145-98.976 85.145h124.7v-53.766a32 32 0 0 0 -25.724-31.379z" fill="#0469bc"/><path d="m176.327 184s-18.181 8-32.323 8-32.323-8-32.323-8-15.363 3.472-22.217 18.285l7.936 36.634c6.165 19.493 24.716 33.081 46.007 33.081 21.292 0 39.843-13.588 46.013-33.081l8.249-38.1c.013-.065.021-.129.034-.194-7.177-13.416-21.376-16.625-21.376-16.625z" fill="#ffdecf"/><path d="m143.407 136c-35.057 0-61.3 31.343-54.261 64.816l.318 1.469c6.854-14.813 22.217-18.285 22.217-18.285s18.182 8 32.323 8 32.323-8 32.323-8 14.2 3.209 21.376 16.622c6.897-33.4-19.303-64.622-54.296-64.622z" fill="#525252"/><path d="m193.109 221.879a96.483 96.483 0 0 1 -86.695 33.231 48.632 48.632 0 0 0 36.993 16.89c21.292 0 39.843-13.588 46.013-33.081z" fill="#ffd3c2"/><circle cx="108" cy="204" fill="#fff5f2" r="12"/><circle cx="128" cy="224" fill="#fff5f2" r="8"/><circle cx="68" cy="316" fill="#4baee0" r="12"/><circle cx="88" cy="336" fill="#4baee0" r="8"/><g fill="#848484"><circle cx="128" cy="152" r="8"/><circle cx="144" cy="168" r="8"/></g></g><g id="Outline"><circle cx="104.43" cy="88" r="8"/><path d="m506.65 121.53a67.96 67.96 0 0 0 -62.65-41.53h-307.57a8 8 0 0 0 0 16h307.57a52 52 0 0 1 52 52v216a52 52 0 0 1 -52 52h-376a52 52 0 0 1 -52-52v-216a52 52 0 0 1 52-52h4.43a8 8 0 0 0 0-16h-4.43a67.931 67.931 0 0 0 -68 68v216a67.963 67.963 0 0 0 68 68h376a67.96 67.96 0 0 0 68-68v-216a67.5 67.5 0 0 0 -5.35-26.47z"/><path d="m81.328 202.509.47 2.174c0 .025.011.049.016.074l7.762 35.854.192.722a54.87 54.87 0 0 0 22.339 29.416 8.059 8.059 0 0 0 -.107 1.251v9.441l-9.587 1.918-.047.009-38.211 7.643a40.106 40.106 0 0 0 -32.155 39.222v45.767a8 8 0 0 0 16 0v-45.767a24.064 24.064 0 0 1 19.293-23.533l28.957-5.791a48 48 0 0 0 95.5 0l28.956 5.791a24.064 24.064 0 0 1 19.294 23.533v45.767a8 8 0 0 0 16 0v-45.767a40.106 40.106 0 0 0 -32.155-39.222l-38.211-7.643-.047-.009-9.587-1.918v-9.441a7.985 7.985 0 0 0 -.251-1.956 54.853 54.853 0 0 0 21.3-28.711l.113-.356 8.338-38.515a60.8 60.8 0 0 0 -12.435-51.007 64.289 64.289 0 0 0 -99.311 0 60.817 60.817 0 0 0 -12.426 51.054zm94.622 95.24a32 32 0 0 1 -63.9 0l15.95-3.19v-16.637a58.065 58.065 0 0 0 32-.347v16.984zm5.734-60.905c-5.309 16.256-20.645 27.156-38.277 27.156s-32.967-10.9-38.276-27.156l-7.088-32.744a26.372 26.372 0 0 1 13.585-11.591c6 2.389 20.23 7.491 32.372 7.491s26.347-5.093 32.357-7.485a26.964 26.964 0 0 1 12.729 10.138zm-75.509-75.305a48.289 48.289 0 0 1 74.465 0 45.3 45.3 0 0 1 9.377 20.1 42.471 42.471 0 0 0 -12.241-5.441l-2.593-.587-2.427 1.076c-.165.074-16.656 7.313-28.756 7.313s-28.591-7.239-28.751-7.311l-2.431-1.08-2.594.59a42.982 42.982 0 0 0 -13.569 6.312 45.222 45.222 0 0 1 9.52-20.972z"/><path d="m72 360v16a8 8 0 0 0 16 0v-16a8 8 0 0 0 -16 0z"/><path d="m200 360v16a8 8 0 0 0 16 0v-16a8 8 0 0 0 -16 0z"/><path d="m448 208a8 8 0 0 0 16 0v-24a8 8 0 0 0 -16 0z"/><path d="m416 208a8 8 0 0 0 16 0v-24a8 8 0 0 0 -16 0z"/><path d="m384 208a8 8 0 0 0 16 0v-24a8 8 0 0 0 -16 0z"/><path d="m352 208a8 8 0 0 0 16 0v-24a8 8 0 0 0 -16 0z"/><path d="m320 208a8 8 0 0 0 16 0v-24a8 8 0 0 0 -16 0z"/><path d="m288 208a8 8 0 0 0 16 0v-24a8 8 0 0 0 -16 0z"/><circle cx="424" cy="152" r="8"/><circle cx="296" cy="152" r="8"/><circle cx="392" cy="152" r="8"/><circle cx="328" cy="152" r="8"/><circle cx="456" cy="152" r="8"/><circle cx="360" cy="152" r="8"/><path d="m360 272h96a8 8 0 0 0 0-16h-96a8 8 0 0 0 0 16z"/><circle cx="328" cy="264" r="8"/><circle cx="296" cy="264" r="8"/><path d="m296 304h160a8 8 0 0 0 0-16h-160a8 8 0 0 0 0 16z"/><path d="m296 336h160a8 8 0 0 0 0-16h-160a8 8 0 0 0 0 16z"/><circle cx="456" cy="360" r="8"/><circle cx="424" cy="360" r="8"/><path d="m296 368h96a8 8 0 0 0 0-16h-96a8 8 0 0 0 0 16z"/></g></g></svg>