<svg id="Layer_1_1_" enable-background="new 0 0 64 64" height="512" viewBox="0 0 64 64" width="512" xmlns="http://www.w3.org/2000/svg"><path d="m3 14h48v38h-48z" fill="#90622a"/><g fill="#7a5324"><path d="m59 6-8 8v38l8-9z"/><path d="m32 6h-21l-8 8h21z"/><path d="m51 14 8-8h-21l-8 8z"/></g><path d="m24 22h6v-8l8-8h-6l-8 8z" fill="#fca947"/><path d="m51 52h-48l7.228-1.297c19.46-3.493 35.259-17.715 40.772-36.703z" fill="#7a5324"/><path d="m44.5 26h-2.5v-6l-14 10 14 10v-6h.5c3.287 0 6.269 1.279 8.5 3.353 2.455 2.282 4 5.53 4 9.147 0 6.904-5.596 12.5-12.5 12.5h2c9.113 0 16.5-7.387 16.5-16.5 0-9.113-7.387-16.5-16.5-16.5z" fill="#5070a1"/><path d="m51 37.353c2.109 1.961 3.539 4.636 3.902 7.643.059-.491.098-.989.098-1.496 0-3.617-1.545-6.864-4-9.147-2.231-2.074-5.213-3.353-8.5-3.353h-.5v3h.5c3.287 0 6.269 1.279 8.5 3.353z" fill="#47648f"/><path d="m28 30 14 10v-3l-11.9-8.5z" fill="#47648f"/><path d="m52.57 53.884c-2.276 3.097-5.932 5.116-10.07 5.116h2c9.113 0 16.5-7.387 16.5-16.5 0-.506-.031-1.005-.076-1.5-.5 5.543-3.738 10.289-8.354 12.884z" fill="#47648f"/><path d="m52 26.713v-12.299l6-6v20.586h2v-23h-.009c0-.129-.016-.259-.067-.383-.154-.374-.52-.617-.924-.617h-48c-.266 0-.52.105-.707.293l-7.999 7.999c-.181.181-.294.431-.294.708v38c0 .553.447 1 1 1h48c.553 0 1-.447 1-1v-11.96c1.258 1.843 2 4.065 2 6.46 0 6.341-5.159 11.5-11.5 11.5-.553 0-1 .447-1 1s.447 1 1 1h2c9.649 0 17.5-7.851 17.5-17.5 0-6.963-4.098-12.972-10-15.787zm-1.414-13.713h-18.172l6-6h18.172zm-21.293.293c-.188.187-.293.441-.293.707v7h-4v-6.586l7.414-7.414h3.172zm-17.879-6.293h18.172l-6 6h-18.172zm-7.414 44v-36h19v7c0 .553.447 1 1 1h6c.553 0 1-.447 1-1v-7h19v10.899c-1.732-.576-3.577-.899-5.5-.899h-1.5v-5c0-.375-.209-.718-.542-.89-.335-.172-.735-.143-1.039.076l-14 10c-.263.188-.419.491-.419.814s.156.626.419.813l14 10c.304.218.704.245 1.039.076.333-.171.542-.514.542-.889v-4.989c2.668.115 5.103 1.143 7 2.779v13.21zm48.048 5.035c2.441-2.444 3.952-5.816 3.952-9.535 0-7.444-6.056-13.5-13.5-13.5h-.5c-.553 0-1 .447-1 1v4.057l-11.279-8.057 11.279-8.057v4.057c0 .553.447 1 1 1h2.5c8.547 0 15.5 6.953 15.5 15.5 0 5.809-3.211 10.881-7.952 13.535z"/><path d="m6 47h12v2h-12z"/><path d="m6 43h12v2h-12z"/></svg>