<svg id="Layer_1_1_" enable-background="new 0 0 64 64" height="512" viewBox="0 0 64 64" width="512" xmlns="http://www.w3.org/2000/svg"><path d="m45 9h-5v3h-32v-3h-5v52h42zm-31 15 5-5h7 7v11l-5 5h-14zm-3 19h26v10h-26zm30 14h-34v-42 42h34v-42z" fill="#6e6e6e"/><path d="m7 12h34v45h-34z" fill="#e1e7ed"/><path d="m21 24h-7v11h14v-11z" fill="#90622a"/><path d="m28 35 5-5v-11l-5 5z" fill="#7a5324"/><path d="m40 12v-3-1c0-.552-.448-1-1-1h-11c0-2.209-1.791-4-4-4s-4 1.791-4 4h-11c-.552 0-1 .448-1 1v1 3z" fill="#e3e3e3"/><path d="m11 43h26v10h-26z" fill="#71caf0"/><path d="m51 16h6v39h-6z" fill="#47648f"/><path d="m51 58 3 3 3-3v-3h-6z" fill="#e3e3e3"/><path d="m51 12h6v4h-6z" fill="#e3e3e3"/><path d="m54 3c-1.657 0-3 1.343-3 3v6h6v-6c0-1.657-1.343-3-3-3z" fill="#47648f"/><path d="m26 19h-7l-5 5h7z" fill="#7a5324"/><path d="m28 24 5-5h-7l-5 5z" fill="#7a5324"/><path d="m3 62h42c.552 0 1-.448 1-1v-52c0-.552-.448-1-1-1h-4c0-1.103-.897-2-2-2h-10.101c-.464-2.279-2.484-4-4.899-4s-4.435 1.721-4.899 4h-10.101c-1.103 0-2 .897-2 2h-4c-.552 0-1 .448-1 1v52c0 .552.448 1 1 1zm6-54h11c.552 0 1-.448 1-1 0-1.654 1.346-3 3-3s3 1.346 3 3c0 .552.448 1 1 1h11v3h-30zm-5 2h3v2c0 .552.448 1 1 1h32c.552 0 1-.448 1-1v-2h3v50h-40z"/><path d="m40 56h-32v-41h-2v42c0 .552.448 1 1 1h34c.552 0 1-.448 1-1v-42h-2z"/><path d="m11 54h26c.552 0 1-.448 1-1v-10c0-.552-.448-1-1-1h-26c-.552 0-1 .448-1 1v10c0 .552.448 1 1 1zm1-10h24v8h-24z"/><path d="m62 25v-13c0-.552-.448-1-1-1h-3v-5c0-2.206-1.794-4-4-4s-4 1.794-4 4v52c0 .265.105.52.293.707l3 3c.195.195.451.293.707.293s.512-.098.707-.293l3-3c.188-.187.293-.442.293-.707v-45h2v12zm-8-21c1.103 0 2 .897 2 2v5h-4v-5c0-1.103.897-2 2-2zm-2 13h4v37h-4zm2 42.586-2-2v-1.586h4v1.586zm2-44.586h-4v-2h4z"/><path d="m14 36h14c.276 0 .526-.112.707-.293l5-5c.188-.187.293-.442.293-.707v-11h-.009c0-.129-.015-.259-.067-.383-.155-.373-.52-.617-.924-.617h-14c-.265 0-.52.105-.707.293l-5 5c-.191.191-.283.447-.284.707h-.009v11c0 .552.448 1 1 1zm1-2v-9h5v4h2v-4h5v9zm14-1.414v-8.172l3-3v8.172zm-1.414-9.586h-4.172l3-3h4.172zm-8.172-3h4.172l-3 3h-4.172z"/><path d="m25.252 47.837-1.072-1.072c-.587-.588-1.481-.732-2.225-.361l-1.958.979c-.037-.626-.371-1.189-.91-1.523-.572-.353-1.273-.384-1.875-.084l-2.658 1.329.895 1.789 2.556-1.278c.037.626.371 1.189.91 1.523.572.354 1.273.385 1.875.084l1.977-1.044 1.527 1.527c.19.192.446.294.706.294.118 0 .237-.021.351-.063l5-1.875-.702-1.873z"/></svg>