<svg enable-background="new 0 0 36 36" height="512" viewBox="0 0 36 36" width="512" xmlns="http://www.w3.org/2000/svg"><path d="m34.928 20.591c-3.693-5.848-3.199-11.778-4.979-14.596s-7.138-7.714-20.103.473-9.84 17.35-7.882 20.45c9.166 14.515 39.504 4.031 32.964-6.327z" fill="#efefef"/><circle cx="21" cy="18" fill="#2fdf84" r="5.25"/><path d="m18 18c0-2.512 1.767-4.607 4.125-5.122-.363-.08-.738-.128-1.125-.128-2.899 0-5.25 2.351-5.25 5.25 0 2.9 2.351 5.25 5.25 5.25.387 0 .762-.048 1.125-.127-2.358-.516-4.125-2.611-4.125-5.123z" fill="#00b871"/><g fill="#a4afc1"><path d="m26.805 3.967h1v2h-1z" transform="matrix(.707 -.707 .707 .707 4.485 20.763)"/><path d="m30.871 8.033h1v2h-1z" transform="matrix(.707 -.707 .707 .707 2.801 24.829)"/><path d="m26.128 8.533h2v1h-2z" transform="matrix(.707 -.707 .707 .707 1.559 21.829)"/><path d="m30.194 4.467h2v1h-2z" transform="matrix(.707 -.707 .707 .707 5.625 23.513)"/></g><path d="m21 24c-3.309 0-6-2.691-6-6s2.691-6 6-6 6 2.691 6 6-2.691 6-6 6zm0-10.5c-2.481 0-4.5 2.019-4.5 4.5s2.019 4.5 4.5 4.5 4.5-2.019 4.5-4.5-2.019-4.5-4.5-4.5z"/><path d="m26.23 20.77h1.5v6.421h-1.5z" transform="matrix(.707 -.707 .707 .707 -9.054 26.101)"/><path d="m6.75 7h16.5v1.5h-16.5z"/><path d="m6.75 27.5h16.5v1.5h-16.5z"/><path d="m6.75 12h7.5v1.5h-7.5z"/><path d="m6.75 22.5h7.5v1.5h-7.5z"/><path d="m6.75 17.25h5.5v1.5h-5.5z"/></svg>