<svg height="511pt" viewBox="-65 1 511 511.999" width="511pt" xmlns="http://www.w3.org/2000/svg"><path d="m312.339844 10h-219.617188c-19.476562 0-35.261718 15.785156-35.261718 35.261719v48.996093l25.734374-28.949218s.003907-.003906.007813-.007813c.378906-.425781.765625-.839843 1.164063-1.242187.152343-.15625.308593-.300782.464843-.453125.25-.242188.5-.488281.757813-.722657.199218-.183593.40625-.363281.609375-.539062.214843-.191406.429687-.378906.652343-.5625.234376-.195312.472657-.386719.714844-.574219.191406-.152343.386719-.304687.582032-.449219.265624-.203124.539062-.398437.8125-.59375.167968-.121093.339843-.238281.511718-.355468.300782-.203125.605469-.40625.910156-.601563.144532-.089843.289063-.175781.433594-.265625.335938-.207031.675782-.410156 1.019532-.605468.101562-.058594.207031-.113282.308593-.167969.386719-.214844.777344-.425781 1.171875-.625 4.679688-2.351563 9.886719-3.621094 15.238282-3.621094h179.515624c21.074219 0 38.160157 17.085937 38.160157 38.160156v363.480469h9.082031c19.472656 0 35.257812-15.789062 35.257812-35.261719v-352.066406c.003907-32.164063-26.070312-58.234375-58.230468-58.234375zm0 0" fill="#00b7ec"/><g fill="#d6effb"><path d="m13.058594 147.085938c.355468-.863282.746094-1.714844 1.167968-2.546876-.421874.835938-.8125 1.683594-1.167968 2.546876zm0 0"/><path d="m17.335938 139.574219c.546874-.726563 1.121093-1.441407 1.734374-2.128907-.613281.6875-1.1875 1.402344-1.734374 2.128907zm0 0"/><path d="m14.265625 144.472656c.417969-.8125.867187-1.609375 1.351563-2.386718-.484376.777343-.933594 1.574218-1.351563 2.386718zm0 0"/><path d="m15.703125 141.949219c.476563-.761719.984375-1.507813 1.519531-2.230469-.539062.722656-1.042968 1.46875-1.519531 2.230469zm0 0"/><path d="m90.816406 58.941406c.335938-.207031.675782-.410156 1.019532-.605468-.34375.195312-.683594.398437-1.019532.605468zm0 0"/><path d="m92.148438 58.164062c.386718-.210937.773437-.421874 1.167968-.621093-.394531.199219-.78125.410156-1.167968.621093zm0 0"/><path d="m83.195312 65.308594.007813-.007813-.007813.011719-25.734374 28.945312-33.492188 37.679688zm0 0"/><path d="m89.472656 59.808594c.300782-.207032.605469-.40625.910156-.601563-.304687.195313-.609374.394531-.910156.601563zm0 0"/><path d="m288.070312 53.921875h-179.515624c-5.351563 0-10.558594 1.269531-15.238282 3.621094v74.378906c0 8.375-6.789062 15.167969-15.164062 15.167969h-65.09375c-1.671875 4.058594-2.558594 8.4375-2.558594 12.898437v303.855469c0 21.074219 17.085938 38.15625 38.160156 38.15625h239.414063c21.074219 0 38.15625-17.082031 38.15625-38.15625v-371.761719c0-21.074219-17.082031-38.160156-38.160157-38.160156zm-182.136718 255.140625h26.34375c1.894531 0 3.429687-1.535156 3.429687-3.429688v-113.179687c0-7.390625 5.992188-13.378906 13.378907-13.378906h38.554687c7.390625 0 13.378906 5.988281 13.378906 13.378906v113.179687c0 1.894532 1.535157 3.429688 3.433594 3.429688h26.339844c7.386719 0 11.253906 8.773438 6.273437 14.222656l-57.164062 62.582032c-6.199219 6.785156-16.878906 6.785156-23.074219 0l-57.164063-62.582032c-4.980468-5.449218-1.113281-14.222656 6.269532-14.222656zm0 0"/><path d="m86.851562 61.78125c.234376-.195312.476563-.386719.714844-.574219-.238281.1875-.480468.378907-.714844.574219zm0 0"/><path d="m85.589844 62.882812c.199218-.183593.40625-.363281.609375-.539062-.203125.175781-.410157.355469-.609375.539062zm0 0"/><path d="m84.367188 64.058594c.152343-.15625.308593-.300782.464843-.453125-.15625.152343-.3125.296875-.464843.453125zm0 0"/><path d="m88.148438 60.753906c.269531-.199218.539062-.398437.8125-.589844-.273438.191407-.542969.390626-.8125.589844zm0 0"/></g><path d="m78.152344 147.085938c8.375 0 15.164062-6.789063 15.164062-15.164063v-74.378906c-.394531.199219-.785156.410156-1.171875.621093-.101562.058594-.207031.113282-.308593.171876-.34375.195312-.683594.398437-1.019532.605468-.144531.085938-.289062.175782-.433594.265625-.304687.195313-.609374.394531-.910156.601563-.171875.117187-.34375.234375-.511718.355468-.273438.191407-.542969.390626-.8125.589844-.195313.148438-.390626.300782-.582032.449219-.238281.191406-.480468.382813-.714844.574219-.21875.183594-.4375.375-.652343.5625-.203125.179687-.410157.355468-.609375.542968-.257813.234376-.507813.476563-.757813.722657-.152343.152343-.3125.296875-.464843.453125-.394532.402344-.785157.816406-1.164063 1.242187-.003906 0-.003906.003907-.007813.007813l-59.226562 66.625-4.898438 5.511718c-.613281.6875-1.1875 1.398438-1.734374 2.128907-.039063.046875-.074219.09375-.113282.140625-.539062.726562-1.042968 1.46875-1.519531 2.230468-.03125.046876-.058594.09375-.085937.140626-.484376.777343-.933594 1.570312-1.351563 2.382812-.011719.023438-.023437.046875-.035156.070312-.425781.832032-.816407 1.683594-1.171875 2.546876zm0 0" fill="#86a4b3"/><path d="m156.828125 385.867188c6.195313 6.785156 16.878906 6.785156 23.074219 0l57.164062-62.582032c4.980469-5.449218 1.113282-14.222656-6.273437-14.222656h-26.339844c-1.894531 0-3.429687-1.535156-3.429687-3.429688v-113.179687c0-7.390625-5.992188-13.378906-13.378907-13.378906h-38.558593c-7.386719 0-13.375 5.988281-13.375 13.378906v113.179687c0 1.894532-1.539063 3.429688-3.433594 3.429688h-26.339844c-7.386719 0-11.253906 8.773438-6.273438 14.222656zm0 0" fill="#ee4e71"/><path d="m230.792969 299.0625h-19.769531v-106.609375c0-12.890625-10.488282-23.378906-23.378907-23.378906h-38.558593c-12.890626 0-23.375 10.488281-23.375 23.378906v106.609375h-19.773438c-7.4375 0-13.921875 4.226562-16.925781 11.03125-3 6.808594-1.746094 14.445312 3.269531 19.9375l57.164062 62.582031c4.84375 5.300781 11.738282 8.34375 18.921876 8.34375 7.179687 0 14.074218-3.042969 18.917968-8.34375l57.164063-62.582031c5.015625-5.492188 6.269531-13.128906 3.269531-19.933594-3.003906-6.808594-9.484375-11.035156-16.925781-11.035156zm-58.273438 80.058594c-1.457031 1.597656-3.230469 1.832031-4.15625 1.832031s-2.695312-.234375-4.152343-1.828125l-54.863282-60.0625h22.929688c7.40625 0 13.433594-6.027344 13.433594-13.433594v-113.175781c0-1.863281 1.515624-3.378906 3.375-3.378906h38.558593c1.863281 0 3.378907 1.515625 3.378907 3.378906v113.179687c0 7.402344 6.023437 13.429688 13.429687 13.429688h22.925781zm0 0"/><path d="m234.078125 415.597656h-131.421875c-5.523438 0-10 4.480469-10 10 0 5.523438 4.476562 10 10 10h131.421875c5.519531 0 10-4.476562 10-10 0-5.519531-4.480469-10-10-10zm0 0"/><path d="m335.464844 214.171875c-.25-.601563-.558594-1.183594-.917969-1.722656-.359375-.550781-.78125-1.058594-1.242187-1.519531-.457032-.460938-.976563-.878907-1.519532-1.25-.546875-.359376-1.128906-.660157-1.730468-.910157-.597657-.25-1.226563-.449219-1.867188-.582031-1.289062-.257812-2.621094-.25-3.910156 0-.640625.132812-1.269532.332031-1.871094.582031s-1.191406.550781-1.730469.910157c-.539062.371093-1.058593.789062-1.519531 1.25-.460938.460937-.878906.96875-1.238281 1.519531-.363281.539062-.671875 1.121093-.921875 1.722656-.25.609375-.441406 1.238281-.570313 1.878906-.128906.640625-.1875 1.300781-.1875 1.949219s.058594 1.308594.1875 1.949219c.128907.640625.320313 1.269531.570313 1.871093.25.609376.558594 1.1875.921875 1.730469.359375.546875.777343 1.058594 1.238281 1.519531 1.859375 1.859376 4.441406 2.929688 7.070312 2.929688.660157 0 1.308594-.0625 1.960938-.191406.640625-.128906 1.269531-.328125 1.867188-.578125.601562-.25 1.183593-.558594 1.730468-.921875.542969-.359375 1.0625-.777344 1.519532-1.238282 1.863281-1.859374 2.921874-4.4375 2.921874-7.070312 0-.648438-.058593-1.308594-.191406-1.949219-.128906-.640625-.320312-1.269531-.570312-1.878906zm0 0"/><path d="m312.339844 0h-219.617188c-24.957031 0-45.261718 20.304688-45.261718 45.261719v45.195312l-35.863282 40.34375c-.429687.480469-.84375.972657-1.25 1.472657-.15625.191406-.304687.386718-.457031.582031-.238281.304687-.480469.609375-.710937.921875-.199219.265625-.386719.539062-.582032.8125-.167968.238281-.339844.476562-.503906.71875-.222656.328125-.4375.664062-.652344.996094-.117187.183593-.238281.367187-.351562.554687-.242188.386719-.476563.785156-.707032 1.179687-.074218.128907-.148437.257813-.21875.386719-.253906.449219-.5.90625-.738281 1.363281-.035156.074219-.074219.144532-.109375.21875-.261718.507813-.511718 1.019532-.75 1.539063-.011718.019531-.019531.042969-.03125.066406-2.632812 5.714844-4.035156 11.972657-4.035156 18.375v303.851563c0 26.554687 21.601562 48.160156 48.160156 48.160156h239.410156c25.988282 0 47.21875-20.691406 48.117188-46.464844 24.554688-.46875 44.386719-20.574218 44.386719-45.234375v-352.066406c0-37.625-30.609375-68.234375-68.234375-68.234375zm-229.023438 80.222656v51.699219c0 2.847656-2.316406 5.164063-5.164062 5.164063h-45.382813l32.164063-36.179688c0-.003906 0-.003906.003906-.003906l16.910156-19.023438zm277.257813 340.078125c0 13.621094-10.835938 24.757813-24.34375 25.242188v-187.542969c0-5.523438-4.476563-10-10-10-5.523438 0-10 4.476562-10 10v205.839844c0 15.527344-12.632813 28.160156-28.15625 28.160156h-239.414063c-15.527344 0-28.160156-12.632812-28.160156-28.160156v-303.851563c0-.976562.082031-1.941406.199219-2.902343h57.453125c13.875 0 25.164062-11.289063 25.164062-25.164063v-67.414063c1.707032-.382812 3.460938-.585937 5.238282-.585937h179.515624c15.527344 0 28.160157 12.632813 28.160157 28.160156v85.917969c0 5.523438 4.476562 10 10 10 5.523437 0 10-4.476562 10-10v-85.917969c0-26.554687-21.605469-48.160156-48.160157-48.160156h-179.515624c-1.566407 0-3.125.085937-4.667969.25-5.238281.558594-10.300781 2.066406-14.960938 4.394531-.03125.015625-.066406.023438-.097656.039063-.039063.019531-.074219.042969-.109375.058593-.351562.179688-.695312.367188-1.042969.554688-.304687.167969-.609375.328125-.910156.5-.308594.175781-.613281.359375-.917969.546875-.339844.203125-.675781.40625-1.007812.621094-.265625.167969-.53125.34375-.792969.523437-.363281.242188-.722656.492188-1.078125.746094-.234375.164062-.464844.335938-.695312.507812-.375.28125-.746094.566407-1.113282.859376-.207031.167968-.417968.332031-.621094.503906-.378906.3125-.746093.632812-1.113281.957031-.191406.167969-.382812.332031-.570312.503906-.382813.351563-.757813.714844-1.128907 1.082031-.160156.15625-.324218.308594-.480468.46875-.519532.527344-1.023438 1.0625-1.515625 1.617188-.003907.003906-.007813.007812-.011719.011719l-8.257812 9.289062v-22.695312c0-13.929688 11.332031-25.261719 25.261718-25.261719h219.617188c26.597656 0 48.234375 21.636719 48.234375 48.234375zm0 0"/></svg>