<svg height="512pt" viewBox="-66 0 512 512.001" width="512pt" xmlns="http://www.w3.org/2000/svg"><path d="m311.84375 10h-219.621094c-19.472656 0-35.257812 15.785156-35.257812 35.261719v48.996093l25.730468-28.949218c.003907 0 .007813-.003906.007813-.007813.378906-.425781.769531-.839843 1.167969-1.242187.152344-.15625.308594-.300782.460937-.453125.25-.242188.5-.488281.757813-.722657.199218-.183593.40625-.363281.609375-.539062.21875-.191406.433593-.378906.652343-.5625.234376-.195312.476563-.386719.714844-.574219.195313-.152343.386719-.304687.582032-.449219.269531-.203124.539062-.398437.8125-.59375.171874-.121093.34375-.238281.511718-.355468.304688-.203125.605469-.40625.914063-.601563.140625-.089843.285156-.175781.429687-.265625.339844-.207031.675782-.410156 1.019532-.605468.105468-.058594.207031-.113282.3125-.167969.386718-.214844.773437-.425781 1.167968-.625h.003906c4.675782-2.351563 9.882813-3.621094 15.234376-3.621094h179.519531c21.074219 0 38.15625 17.085937 38.15625 38.160156v363.480469h9.082031c19.476562 0 35.261719-15.789062 35.261719-35.261719v-352.066406c0-32.164063-26.070313-58.234375-58.230469-58.234375zm0 0" fill="#00b7ec"/><g fill="#d6effb"><path d="m15.203125 141.949219c.476563-.761719.984375-1.507813 1.523437-2.230469-.539062.722656-1.042968 1.46875-1.523437 2.230469zm0 0"/><path d="m12.558594 147.085938c.355468-.863282.746094-1.714844 1.171875-2.546876-.425781.835938-.816407 1.683594-1.171875 2.546876zm0 0"/><path d="m16.835938 139.574219c.550781-.726563 1.125-1.441407 1.734374-2.128907-.609374.6875-1.183593 1.402344-1.734374 2.128907zm0 0"/><path d="m13.765625 144.472656c.417969-.8125.867187-1.609375 1.351563-2.386718-.484376.777343-.933594 1.574218-1.351563 2.386718zm0 0"/><path d="m83.871094 64.058594c.152344-.15625.308594-.300782.464844-.453125-.15625.152343-.3125.296875-.464844.453125zm0 0"/><path d="m85.089844 62.882812c.199218-.183593.40625-.363281.609375-.539062-.203125.175781-.410157.355469-.609375.539062zm0 0"/><path d="m86.351562 61.78125c.238282-.195312.476563-.386719.71875-.574219-.242187.1875-.480468.378907-.71875.574219zm0 0"/><path d="m87.652344 60.753906c.265625-.199218.539062-.398437.8125-.589844-.273438.191407-.546875.390626-.8125.589844zm0 0"/><path d="m91.648438 58.164062c.386718-.210937.777343-.421874 1.171874-.621093-.398437.199219-.785156.410156-1.171874.621093zm0 0"/><path d="m88.976562 59.808594c.300782-.207032.601563-.40625.910157-.601563-.308594.195313-.609375.394531-.910157.601563zm0 0"/><path d="m287.574219 53.921875h-179.515625c-5.351563 0-10.5625 1.269531-15.238282 3.621094v74.378906c0 8.375-6.789062 15.167969-15.167968 15.167969h-65.09375c-1.667969 4.058594-2.554688 8.4375-2.554688 12.898437v303.855469c0 21.074219 17.082032 38.15625 38.15625 38.15625h239.414063c21.074219 0 38.160156-17.082031 38.160156-38.15625v-371.761719c0-21.074219-17.085937-38.160156-38.160156-38.160156zm-188.410157 232.464844 57.167969-62.582031c6.195313-6.785157 16.875-6.785157 23.070313 0l57.167968 62.582031c4.976563 5.453125 1.109376 14.222656-6.273437 14.222656h-26.34375c-1.894531 0-3.429687 1.535156-3.429687 3.429687v113.179688c0 7.390625-5.988282 13.378906-13.378907 13.378906h-38.554687c-7.390625 0-13.378906-5.988281-13.378906-13.378906v-113.175781c0-1.894531-1.535157-3.433594-3.429688-3.433594h-26.34375c-7.382812 0-11.253906-8.769531-6.273438-14.222656zm0 0"/><path d="m90.316406 58.941406c.339844-.207031.679688-.410156 1.023438-.605468-.34375.195312-.683594.398437-1.023438.605468zm0 0"/><path d="m82.695312 65.308594.011719-.007813-.011719.011719-25.730468 28.945312-33.496094 37.679688zm0 0"/></g><path d="m77.652344 147.085938c8.378906 0 15.167968-6.789063 15.167968-15.164063v-74.378906c-.394531.199219-.785156.410156-1.171874.621093-.101563.058594-.207032.113282-.308594.171876-.34375.195312-.683594.398437-1.019532.605468-.144531.085938-.289062.175782-.433593.265625-.304688.195313-.609375.394531-.910157.601563-.171874.117187-.34375.234375-.511718.355468-.273438.191407-.542969.390626-.8125.589844-.195313.148438-.390625.300782-.582032.449219-.242187.191406-.480468.382813-.714843.574219-.222657.183594-.4375.375-.652344.5625-.203125.179687-.410156.355468-.609375.542968-.257812.234376-.507812.476563-.757812.722657-.15625.152343-.3125.296875-.464844.453125-.398438.402344-.785156.816406-1.164063 1.242187-.003906 0-.007812.003907-.007812.007813l-59.230469 66.625-4.894531 5.511718c-.613281.6875-1.1875 1.398438-1.738281 2.128907-.035157.046875-.074219.09375-.109376.140625-.539062.726562-1.042968 1.46875-1.519531 2.230468-.03125.046876-.058593.09375-.089843.140626-.480469.777343-.933594 1.570312-1.347657 2.382812-.011719.023438-.023437.046875-.035156.070312-.425781.832032-.816406 1.683594-1.171875 2.546876zm0 0" fill="#86a4b3"/><path d="m105.4375 300.609375h26.34375c1.894531 0 3.429688 1.539063 3.429688 3.433594v113.179687c0 7.386719 5.988281 13.375 13.378906 13.375h38.554687c7.390625 0 13.378907-5.988281 13.378907-13.375v-113.179687c0-1.894531 1.535156-3.433594 3.429687-3.433594h26.34375c7.382813 0 11.25-8.769531 6.269531-14.222656l-57.164062-62.582031c-6.195313-6.78125-16.878906-6.78125-23.074219 0l-57.164063 62.582031c-4.980468 5.453125-1.109374 14.222656 6.273438 14.222656zm0 0" fill="#ffd866"/><path d="m186.785156 217.0625c-4.839844-5.304688-11.738281-8.34375-18.917968-8.34375-7.183594 0-14.078126 3.039062-18.921876 8.34375l-57.164062 62.582031c-5.015625 5.488281-6.269531 13.128907-3.265625 19.933594 3 6.804687 9.484375 11.03125 16.921875 11.03125h19.773438v106.613281c0 12.890625 10.488281 23.375 23.378906 23.375h38.554687c12.890625 0 23.378907-10.484375 23.378907-23.375v-106.613281h19.773437c7.4375 0 13.921875-4.226563 16.921875-11.03125s1.75-14.445313-3.265625-19.9375zm17.167969 73.546875c-7.40625 0-13.429687 6.027344-13.429687 13.433594v113.179687c0 1.859375-1.515626 3.375-3.378907 3.375h-38.554687c-1.863282 0-3.378906-1.515625-3.378906-3.375v-113.179687c0-7.40625-6.027344-13.433594-13.433594-13.433594h-22.929688l54.863282-60.0625c1.457031-1.59375 3.230468-1.828125 4.15625-1.828125.925781 0 2.695312.234375 4.148437 1.828125l54.863281 60.0625zm0 0"/><path d="m102.15625 194.074219h131.421875c5.523437 0 10-4.476563 10-10 0-5.523438-4.476563-10-10-10h-131.421875c-5.523438 0-10 4.476562-10 10 0 5.523437 4.476562 10 10 10zm0 0"/><path d="m334.96875 192.179688c-.25-.609376-.558594-1.1875-.921875-1.730469-.367187-.550781-.777344-1.058594-1.238281-1.519531-.46875-.460938-.980469-.878907-1.527344-1.238282-.542969-.359375-1.121094-.671875-1.722656-.921875-.601563-.25-1.230469-.449219-1.871094-.570312-1.289062-.257813-2.617188-.257813-3.90625 0-.644531.121093-1.273438.320312-1.871094.570312-.601562.25-1.183594.5625-1.730468.921875-.539063.359375-1.058594.777344-1.519532 1.238282-.460937.460937-.878906.96875-1.242187 1.519531-.359375.542969-.667969 1.121093-.917969 1.730469-.25.601562-.441406 1.230468-.570312 1.871093-.128907.640625-.199219 1.300781-.199219 1.949219 0 2.628906 1.070312 5.210938 2.929687 7.070312.460938.460938.980469.878907 1.519532 1.238282.550781.359375 1.128906.671875 1.730468.921875.601563.25 1.230469.449219 1.871094.578125.648438.128906 1.300781.191406 1.949219.191406.660156 0 1.308593-.0625 1.960937-.191406.640625-.128906 1.269532-.328125 1.867188-.578125.601562-.25 1.183594-.5625 1.722656-.921875.550781-.359375 1.058594-.777344 1.527344-1.238282 1.859375-1.859374 2.921875-4.441406 2.921875-7.070312 0-.648438-.0625-1.3125-.191407-1.949219-.128906-.640625-.320312-1.269531-.570312-1.871093zm0 0"/><path d="m311.84375 0h-219.621094c-24.957031 0-45.257812 20.304688-45.257812 45.261719v45.195312l-35.863282 40.34375c-.066406.074219-.128906.148438-.191406.226563-.359375.40625-.710937.816406-1.050781 1.234375-.179687.222656-.351563.449219-.527344.675781-.214843.273438-.433593.546875-.644531.828125-.210938.285156-.414062.578125-.617188.867187-.15625.21875-.316406.441407-.46875.664063-.234374.34375-.457031.691406-.679687 1.039063-.109375.171874-.21875.339843-.324219.511718-.25.402344-.492187.808594-.726562 1.21875-.066406.117188-.132813.230469-.199219.34375-.261719.464844-.511719.933594-.757813 1.40625-.027343.058594-.058593.113282-.085937.171875-.269531.523438-.523437 1.050781-.769531 1.582031-.003906.003907-.007813.011719-.011719.019532-2.640625 5.722656-4.046875 11.984375-4.046875 18.398437v303.855469c0 26.554688 21.605469 48.15625 48.160156 48.15625h239.414063c25.984375 0 47.214843-20.691406 48.113281-46.460938 24.554688-.46875 44.386719-20.574218 44.386719-45.238281v-352.066406c0-37.625-30.609375-68.234375-68.230469-68.234375zm-229.023438 80.222656v51.699219c0 2.847656-2.316406 5.164063-5.167968 5.164063h-45.382813zm277.253907 340.078125c0 13.621094-10.835938 24.757813-24.339844 25.242188v-209.542969c0-5.523438-4.480469-10-10-10-5.523437 0-10 4.476562-10 10v227.839844c0 15.527344-12.632813 28.160156-28.160156 28.160156h-239.414063c-15.527344 0-28.160156-12.632812-28.160156-28.160156v-303.851563c0-.976562.082031-1.941406.199219-2.902343h57.453125c13.878906 0 25.167968-11.289063 25.167968-25.164063v-67.414063c1.707032-.382812 3.460938-.585937 5.238282-.585937h179.515625c15.527343 0 28.160156 12.632813 28.160156 28.160156v63.917969c0 5.523438 4.476563 10 10 10 5.519531 0 10-4.476562 10-10v-63.917969c0-26.554687-21.605469-48.160156-48.160156-48.160156h-179.515625c-6.886719 0-13.597656 1.632813-19.632813 4.644531-.03125.015625-.0625.027344-.09375.042969-.035156.015625-.070312.035156-.105469.054687-.355468.179688-.707031.371094-1.058593.5625-.300781.164063-.601563.324219-.902344.492188-.304687.175781-.605469.359375-.910156.542969-.34375.203125-.683594.414062-1.015625.625-.261719.167969-.519532.34375-.78125.515625-.371094.25-.734375.5-1.097656.761718-.226563.160157-.453126.324219-.675782.492188-.382812.285156-.761718.582031-1.140625.878906-.199219.160156-.398437.320313-.597656.484375-.386719.320313-.765625.648438-1.144531.984375-.179688.160156-.363282.316406-.539063.480469-.394531.359375-.777343.734375-1.160156 1.109375-.148437.148438-.304687.292969-.453125.441406-.519531.527344-1.027344 1.066406-1.519531 1.621094-.003907.003906-.007813.007812-.007813.011719l-8.261718 9.289062v-22.695312c0-13.929688 11.332031-25.261719 25.261718-25.261719h219.617188c26.597656 0 48.234375 21.636719 48.234375 48.234375zm0 0"/></svg>