<?xml version="1.0" encoding="iso-8859-1"?>
<!-- Generator: Adobe Illustrator 19.0.0, SVG Export Plug-In . SVG Version: 6.00 Build 0)  -->
<svg xmlns="http://www.w3.org/2000/svg" xmlns:xlink="http://www.w3.org/1999/xlink" version="1.1" id="Capa_1" x="0px" y="0px" viewBox="0 0 511 511" style="enable-background:new 0 0 511 511;" xml:space="preserve" width="512" height="512">
<g>
	<g>
		<g>
			<polygon style="fill:#F5F4F7;" points="383.5,423.5 47.5,423.5 47.5,71.499 111.5,7.5 383.5,7.5    "/>
			<polygon style="fill:#EBE8EF;" points="111.5,7.5 47.5,71.499 47.5,423.5 79.5,423.5 79.5,71.499    "/>
			<polygon style="fill:#EBE8EF;" points="111.5,7.5 111.5,71.5 47.5,71.499    "/>
			<rect x="87.5" y="95.5" style="fill:#D8D2DE;" width="160" height="120"/>
		</g>
		<g>
			<circle style="fill:#7ED9DE;" cx="383.5" cy="423.5" r="80"/>
			<path style="fill:#5ECFD6;" d="M407.5,487.5c-44.183,0-80-35.817-80-80c0-22.586,9.374-42.97,24.426-57.517     C323.447,362.231,303.5,390.532,303.5,423.5c0,44.183,35.817,80,80,80c21.597,0,41.181-8.573,55.574-22.483     C429.386,485.183,418.715,487.5,407.5,487.5z"/>
			<polygon style="fill:#F5F4F7;" points="431.5,407.5 399.5,407.5 399.5,375.5 367.5,375.5 367.5,407.5 335.5,407.5 335.5,439.5      367.5,439.5 367.5,471.5 399.5,471.5 399.5,439.5 431.5,439.5    "/>
		</g>
	</g>
	<g>
		<path d="M87.5,223h160c4.142,0,7.5-3.357,7.5-7.5v-120c0-4.143-3.358-7.5-7.5-7.5h-160c-4.142,0-7.5,3.357-7.5,7.5v120    C80,219.643,83.358,223,87.5,223z M95,103h145v105H95V103z"/>
		<path d="M151.5,56c-4.142,0-7.5,3.357-7.5,7.5s3.358,7.5,7.5,7.5h128c4.142,0,7.5-3.357,7.5-7.5s-3.358-7.5-7.5-7.5H151.5z"/>
		<path d="M343.5,88h-64c-4.142,0-7.5,3.357-7.5,7.5s3.358,7.5,7.5,7.5h64c4.142,0,7.5-3.357,7.5-7.5S347.642,88,343.5,88z"/>
		<path d="M343.5,120h-64c-4.142,0-7.5,3.357-7.5,7.5s3.358,7.5,7.5,7.5h64c4.142,0,7.5-3.357,7.5-7.5S347.642,120,343.5,120z"/>
		<path d="M343.5,152h-64c-4.142,0-7.5,3.357-7.5,7.5s3.358,7.5,7.5,7.5h64c4.142,0,7.5-3.357,7.5-7.5S347.642,152,343.5,152z"/>
		<path d="M343.5,184h-64c-4.142,0-7.5,3.357-7.5,7.5s3.358,7.5,7.5,7.5h64c4.142,0,7.5-3.357,7.5-7.5S347.642,184,343.5,184z"/>
		<path d="M343.5,248h-208c-4.142,0-7.5,3.357-7.5,7.5s3.358,7.5,7.5,7.5h208c4.142,0,7.5-3.357,7.5-7.5S347.642,248,343.5,248z"/>
		<path d="M87.5,295h104c4.142,0,7.5-3.357,7.5-7.5s-3.358-7.5-7.5-7.5h-104c-4.142,0-7.5,3.357-7.5,7.5S83.358,295,87.5,295z"/>
		<path d="M343.5,280h-112c-4.142,0-7.5,3.357-7.5,7.5s3.358,7.5,7.5,7.5h112c4.142,0,7.5-3.357,7.5-7.5S347.642,280,343.5,280z"/>
		<path d="M87.5,327h32c4.142,0,7.5-3.357,7.5-7.5s-3.358-7.5-7.5-7.5h-32c-4.142,0-7.5,3.357-7.5,7.5S83.358,327,87.5,327z"/>
		<path d="M351,319.5c0-4.143-3.358-7.5-7.5-7.5h-192c-4.142,0-7.5,3.357-7.5,7.5s3.358,7.5,7.5,7.5h192    C347.642,327,351,323.643,351,319.5z"/>
		<path d="M87.5,359h88c4.142,0,7.5-3.357,7.5-7.5s-3.358-7.5-7.5-7.5h-88c-4.142,0-7.5,3.357-7.5,7.5S83.358,359,87.5,359z"/>
		<path d="M311,351.5c0-4.143-3.358-7.5-7.5-7.5h-96c-4.142,0-7.5,3.357-7.5,7.5s3.358,7.5,7.5,7.5h96    C307.642,359,311,355.643,311,351.5z"/>
		<path d="M87.5,391h192c4.142,0,7.5-3.357,7.5-7.5s-3.358-7.5-7.5-7.5h-192c-4.142,0-7.5,3.357-7.5,7.5S83.358,391,87.5,391z"/>
		<path d="M391,336.325V7.5c0-4.143-3.358-7.5-7.5-7.5h-72c-4.142,0-7.5,3.357-7.5,7.5s3.358,7.5,7.5,7.5H376v321.325    c-42.276,3.606-76.069,37.398-79.675,79.675H55V78.999L111.5,79c4.084,0,7.5-3.416,7.5-7.5V15h156.167c4.142,0,7.5-3.357,7.5-7.5    s-3.358-7.5-7.5-7.5H111.5c-1.963,0-3.916,0.808-5.303,2.196l-64,63.999C40.807,67.585,40,69.534,40,71.499V423.5    c0,4.143,3.358,7.5,7.5,7.5h248.825c3.817,44.75,41.454,80,87.175,80c48.248,0,87.5-39.252,87.5-87.5    C471,377.779,435.749,340.142,391,336.325z M104,64l-38.393-0.001l19.197-19.196L104,25.606V64z M383.5,496    c-39.977,0-72.5-32.523-72.5-72.5s32.523-72.5,72.5-72.5s72.5,32.523,72.5,72.5S423.477,496,383.5,496z"/>
		<path d="M431.5,400H407v-24.5c0-4.143-3.358-7.5-7.5-7.5h-32c-4.142,0-7.5,3.357-7.5,7.5V400h-24.5c-4.142,0-7.5,3.357-7.5,7.5v32    c0,4.143,3.358,7.5,7.5,7.5H360v24.5c0,4.143,3.358,7.5,7.5,7.5h32c4.142,0,7.5-3.357,7.5-7.5V447h24.5c4.142,0,7.5-3.357,7.5-7.5    v-32C439,403.357,435.642,400,431.5,400z M424,432h-24.5c-4.142,0-7.5,3.357-7.5,7.5V464h-17v-24.5c0-4.143-3.358-7.5-7.5-7.5H343    v-17h24.5c4.142,0,7.5-3.357,7.5-7.5V383h17v24.5c0,4.143,3.358,7.5,7.5,7.5H424V432z"/>
	</g>
</g>















</svg>
