<svg enable-background="new 0 0 24 24" height="512" viewBox="0 0 24 24" width="512" xmlns="http://www.w3.org/2000/svg"><g fill="#ffcc80"><path d="m11.423 11.039c-1.473-7.649-.746-9.818-2.422-9.818-.321 0-.619.142-.829.371-.572.69-.139.689 1.039 9.447z"/><path d="m14.292 11.573c1.739-9.876 1.824-10.364 1.614-10.615-.583-.697-1.758-.428-1.935.502l-1.78 9.469c.48.063 1.465-.249 2.101.644z"/><path d="m19.896 16.297c-.088.154-.5.06-1.064-.176.318-.596.624-1.243.977-1.7.31-.524.133-1.189-.398-1.495-1.126-.625-1.723.67-2.551 2.159-.176-.107-.352-.219-.527-.331.649-1.109 1.562-2.67 1.599-2.734.467-.819-.242-1.833-1.249-1.604-.668.177-.708.617-2.134 3.047-.806-.675-1.291-1.276-1.018-1.549.161-.175.107-.36.075-.436-.163-.495-.805-.091-5.463-.24-1.39 0-1.241 1.763-2.2 4.091-.899 2.717 1.379 4.273 2.619 6.491.616.907.459 1.753.483 1.964h8.318c.019-.142-.138-1.156.623-2.051l.354-.425c.859-1.058 1.653-3.854 1.675-5.206z"/></g><path d="m5.244 14.782c-1.293 3.812 2.811 5.998 2.811 7.617v.851c0 .414.336.75.75.75s.75-.336.75-.75v-.851c0-2.461-3.888-4.19-2.89-7.135l.991-2.923c.116-.341.442-.57.812-.57h4.737c.022 0 .075 0 .08.152-1.644 1.618-3.587 1.225-3.984 1.282-.332 0-.624.218-.719.535-.369 1.237 2.577 1.181 3.99 5.348.133.393.56.604.951.469.393-.133.603-.559.47-.951-.521-1.534-1.431-2.923-2.623-4.026.455-.094.889-.253 1.306-.448-.16.426-.189.887-.069 1.335.154.577.528 1.059 1.052 1.356.35.198.732.293 1.111.293.151 0 .3-.027.447-.057.168.536.522.985 1.018 1.266.351.199.733.293 1.112.293.547 0 1.079-.207 1.494-.572-.485 2.528-2.077 2.519-2.077 4.441v.763c0 .414.336.75.75.75s.75-.336.75-.75v-.763c0-1.266 2.716-2.109 2.103-6.326l-.054-.383.384-.653c.809-1.382-.076-3.15-1.707-3.314.229-1.666-1.444-3.006-3.083-2.335l1.315-6.845c.556-2.884-3.861-3.711-4.405-.819l-.926 4.91-.665-4.357c-.443-2.915-4.83-2.167-4.405.652l1.105 7.325c-1.961.459-1.827 2.525-2.682 4.44zm14.159-.418-1.405 2.392c-.49.838-1.769.109-1.292-.708l1.405-2.392c.493-.837 1.768-.107 1.292.708zm-1.99-2.499-1.99 3.389c-.491.827-1.773.11-1.293-.708l1.99-3.389c.491-.831 1.772-.107 1.293.708zm-3.121-9.777c.182-.962 1.633-.65 1.458.259l-1.585 8.25c-.592-.441-1.142-.296-1.416-.326zm-4.547.502 1.172 7.682h-1.485l-1.128-7.48c-.135-.891 1.296-1.152 1.441-.202z"/></svg>