<svg enable-background="new 0 0 24 24" height="512" viewBox="0 0 24 24" width="512" xmlns="http://www.w3.org/2000/svg"><path d="m17.868 15.114c.123-.213.25-.433.402-.685.697-1.226-1.107-2.456-1.944-.915-.036.087-.077.175-.121.264-.172-.127-.345-.252-.519-.375 3.74-10.238 3.413-9.521 3.413-9.647 0-.436-.287-.839-.712-1.003-.542-.207-1.147.055-1.339.589-2.234 6.2-2.931 8.207-3.184 8.878-.24-.14-.464-.262-.655-.355l1.159-9.597c.032-.316-.074-.632-.297-.872-.212-.229-.521-.349-.839-.327-.51.044-.924.447-.977.97l-1.081 9.201c-.234.007-.508.015-.827.022l-1.288-8.834c-.074-.534-.51-.915-1.031-.915-.308 0-.595.131-.797.371-.191.239-.287.555-.234.86l1.224 8.52c-.341-.006-.699-.013-1.097-.026-1.39 0-1.241 1.763-2.2 4.091-1.157 3.496 3.102 5.388 3.102 8.051v.404h8.318c.019-.142-.138-1.156.623-2.051l.354-.425c.859-1.058 1.653-3.854 1.675-5.206l-.118.196c-.065-.258-.459-.689-1.01-1.184zm-5.247-3.478c.021.012.043.02.063.033-.021-.004-.044-.01-.061-.011 0-.008-.002-.014-.002-.022z" fill="#ffcc80"/><path d="m7.693 24c-.414 0-.75-.336-.75-.75v-.85c0-.251-.074-.492-.215-.696l-1.903-2.771c-.824-1.2-1.045-2.746-.591-4.136l.955-2.921c.312-.953 1.188-1.594 2.18-1.594h4.565c.634 0 1.203.381 1.45.97.25.597.121 1.28-.331 1.741-.798.813-1.79 1.358-2.869 1.592 1.154 1.104 2.034 2.495 2.537 4.032.129.394-.086.817-.48.946-.395.128-.817-.086-.946-.479-.567-1.734-1.7-3.247-3.191-4.26l-.354-.24c-.272-.185-.392-.526-.295-.841s.388-.529.717-.529h.801c1.136 0 2.205-.451 3.009-1.271.012-.013.045-.047.019-.11l-4.632-.05c-.342 0-.645.226-.754.561l-.955 2.92c-.31.948-.16 2.003.402 2.82l1.903 2.771c.313.455.479.99.479 1.546v.85c-.001.413-.337.749-.751.749z"/><path d="m15.98 14.138c-.085 0-.171-.015-.256-.045-.389-.142-.59-.571-.449-.961l3.184-8.777c.029-.08.041-.147.041-.223 0-.286-.188-.551-.468-.658-.345-.13-.736.038-.86.372l-2.971 8.203c-.141.391-.571.59-.96.45-.39-.141-.591-.571-.45-.96l2.973-8.21c.413-1.112 1.666-1.676 2.795-1.26.866.332 1.441 1.16 1.441 2.063 0 .254-.043.496-.133.738l-3.182 8.773c-.111.305-.398.495-.705.495z"/><path d="m15.926 18.625c-.381 0-.758-.102-1.097-.301-1.037-.611-1.395-1.965-.799-3.019l1.354-2.39c.293-.518.769-.887 1.338-1.039.566-.149 1.154-.071 1.659.226 1.038.611 1.396 1.966.799 3.02l-1.353 2.39c-.293.518-.769.887-1.339 1.039-.185.05-.374.074-.562.074zm1.358-5.322c-.058 0-.116.008-.173.022-.179.048-.329.166-.422.331l-1.354 2.389c-.196.346-.082.788.255.986.156.092.337.117.51.07.178-.048.328-.164.421-.329l1.354-2.391c.196-.346.082-.788-.254-.986-.104-.061-.22-.092-.337-.092z"/><path d="m10.712 11.783c-.366 0-.686-.268-.741-.641l-1.256-8.538c-.051-.344-.331-.595-.667-.595-.261 0-.426.146-.5.232-.136.156-.196.365-.166.573l1.176 8.09c.06.41-.225.791-.634.851-.406.053-.79-.224-.85-.634l-1.176-8.09c-.093-.639.094-1.285.515-1.771.413-.478 1.009-.751 1.635-.751 1.085 0 1.99.789 2.151 1.877l1.256 8.538c.06.41-.223.791-.633.852-.036.004-.073.007-.11.007z"/><path d="m13.492 12.547c-.03 0-.061-.002-.091-.006-.411-.05-.704-.423-.654-.834l1.141-9.421c.023-.21-.049-.424-.2-.579-.083-.086-.264-.235-.535-.205-.33.025-.595.292-.632.635l-1.062 8.984c-.048.412-.423.699-.833.657-.412-.049-.706-.422-.657-.833l1.061-8.975c.111-1.053.956-1.882 2.006-1.964.651-.044 1.276.19 1.729.657.461.477.685 1.131.612 1.794l-1.142 9.43c-.046.381-.369.66-.743.66z"/><path d="m16.085 23.999c-.414 0-.75-.336-.75-.75v-.762c0-.631.217-1.244.61-1.726l.321-.387c.906-1.102 1.312-2.561 1.109-4l-.086-.639c-.056-.41.232-.788.643-.844.411-.06.789.232.844.643l.086.635c.26 1.851-.265 3.733-1.439 5.161l-.319.384c-.168.207-.268.49-.268.772v.762c-.001.415-.336.751-.751.751z"/></svg>