<svg enable-background="new 0 0 24 24" height="512" viewBox="0 0 24 24" width="512" xmlns="http://www.w3.org/2000/svg"><g fill="#ffcc80"><path d="m9.328 11.022c-2.162-7.254-1.72-9.477-3.294-9.275-.308.032-.574.196-.754.457-.487.718-.026.83 1.955 8.818z"/><path d="m9.874 11.088c.657.062 1.526-.223 2.125.491-.083-10.124.33-10.057-.33-10.617-.244-.207-.563-.294-.882-.229-1.627.291-.594 2.647-.913 10.355z"/><path d="m19.904 7.651c-.764-.392-1.313-.592-1.71.222-2.714 5.296-2.553 5.213-2.794 5.275-1.074 1.102.065-2.39 1.663-9.55.321-1.316-1.724-1.875-2.061-.545-2.167 8.674-1.711 8.649-2.269 8.935-.012.012-.022.012-.033.012-.102.042-.229.045-.34 0-.079 1.26-2.391 2.51-4.016 2.692.697.601 1.308 1.301 1.828 2.066-.659-.796-1.44-1.226-2.388-1.943-.438-.324-.215-1.003.297-1.003h.882c1.349 0 1.282-.701 2.238-1.671.226-.247.078-.676-.276-.676.101 0-1.482 0-1.583 0h-3.474c-1.378 0-1.233 1.773-2.178 4.087-1.137 3.499 3.071 5.415 3.071 8.044v.404h8.234c.022-.154-.143-1.123.616-2.049 2.957-3.596 1.947-7.242 2.369-8.109.011-.011.011-.011.021-.022l2.391-4.719c.255-.524.043-1.178-.488-1.45z"/></g><path d="m6.729 24c-.414 0-.75-.336-.75-.75v-.85c0-.25-.075-.489-.216-.692l-1.926-2.771c-.837-1.202-1.06-2.75-.6-4.142l.967-2.92c.315-.952 1.197-1.592 2.196-1.592h4.621c.641 0 1.215.384 1.462.978.249.597.115 1.278-.34 1.736-.807.812-1.808 1.357-2.899 1.59 1.166 1.104 2.055 2.493 2.563 4.029.13.393-.083.817-.476.947-.395.132-.818-.083-.948-.477-.574-1.733-1.721-3.246-3.23-4.259l-.358-.24c-.274-.185-.396-.525-.299-.842.096-.315.387-.531.717-.531h.811c1.154 0 2.239-.452 3.055-1.274.014-.015.044-.045.02-.104l-4.699-.053c-.351 0-.661.227-.772.562l-.967 2.92c-.313.946-.161 1.999.406 2.815l1.926 2.771c.317.455.485.991.485 1.549v.85c.001.414-.335.75-.749.75z"/><path d="m15.16 13.603c-.06 0-.121-.007-.182-.022-.402-.101-.646-.508-.546-.909l2.268-9.075c.02-.079.025-.15.018-.226-.03-.281-.249-.522-.543-.6-.37-.089-.752.118-.842.469l-2.114 8.481c-.1.402-.506.649-.909.546-.402-.1-.646-.507-.546-.909l2.116-8.487c.295-1.146 1.489-1.841 2.662-1.554.906.235 1.572.995 1.668 1.895.027.254.009.499-.054.75l-2.267 9.072c-.087.341-.393.569-.729.569z"/><path d="m17.87 14.694c-.116 0-.233-.026-.344-.084-.368-.189-.512-.642-.322-1.01l2.23-4.319c.166-.341.021-.771-.331-.946-.167-.082-.357-.094-.534-.034-.179.062-.324.189-.408.361l-2.334 4.534c-.19.368-.642.513-1.01.323-.368-.189-.513-.642-.324-1.011l2.327-4.52c.253-.519.705-.917 1.264-1.108.557-.189 1.156-.151 1.684.109 1.09.54 1.541 1.869 1.007 2.964l-2.237 4.334c-.134.26-.396.407-.668.407z"/><path d="m6.786 11.783c-.331 0-.633-.22-.724-.555l-2.019-7.488c-.162-.63-.045-1.29.32-1.817.363-.525.932-.864 1.564-.933 1.089-.116 2.079.567 2.355 1.631l2.149 8.223c.105.4-.135.811-.536.915-.405.104-.811-.136-.915-.536l-2.149-8.223c-.088-.338-.4-.545-.742-.519-.202.023-.376.127-.492.295-.119.172-.156.378-.103.581l2.017 7.48c.108.4-.129.812-.529.92-.065.018-.131.026-.196.026z"/><path d="m12.485 12.29c-.001 0-.002 0-.003 0-.414-.002-.749-.339-.747-.754l.043-9.32c0-.214-.093-.416-.257-.553-.094-.08-.292-.204-.574-.15-.333.062-.624.425-.624.775v8.745c0 .414-.336.75-.75.75s-.75-.336-.75-.75v-8.744c-.001-1.068.811-2.057 1.848-2.251.647-.12 1.305.052 1.81.472.509.424.8 1.048.798 1.712l-.043 9.322c-.003.412-.338.746-.751.746z"/><path d="m15.222 23.999c-.414 0-.75-.336-.75-.75v-.786c0-.624.221-1.231.623-1.71 1.166-1.387 1.854-3.151 1.939-4.968l.087-1.876c.02-.413.369-.739.784-.714.414.02.734.37.714.784l-.087 1.876c-.1 2.144-.913 4.226-2.289 5.862-.175.208-.271.473-.271.745v.786c0 .415-.336.751-.75.751z"/></svg>