<svg id="Capa_1" enable-background="new 0 0 512 512" height="512" viewBox="0 0 512 512" width="512" xmlns="http://www.w3.org/2000/svg"><g><path d="m147.21 389.307-48.99 48.99c-5.86 5.86-15.36 5.86-21.21 0-2.93-2.93-4.39-6.76-4.39-10.6s1.46-7.68 4.39-10.61l27.78-27.78z" fill="#7a6d79"/><path d="m407.21 389.307 27.78 27.78c2.93 2.93 4.39 6.77 4.39 10.61s-1.46 7.67-4.39 10.6c-5.85 5.86-15.35 5.86-21.21 0l-48.99-48.99z" fill="#7a6d79"/><path d="m474.5 389.307h-437c-16.569 0-30-13.431-30-30v-260c0-16.569 13.431-30 30-30h437c16.569 0 30 13.431 30 30v260c0 16.569-13.431 30-30 30z" fill="#f5f8f9"/><path d="m107.5 389.31h-70c-16.57 0-30-13.43-30-30v-260c0-16.57 13.43-30 30-30h70c-16.57 0-30 13.43-30 30v260c0 16.57 13.43 30 30 30z" fill="#e8edf2"/><path d="m474.5 389.307h-437c-16.569 0-30-13.431-30-30v-20h497v20c0 16.569-13.431 30-30 30z" fill="#aa9ea9"/><path d="m107.5 389.31h-70c-16.57 0-30-13.43-30-30v-20h70v20c0 16.57 13.43 30 30 30z" fill="#9b8e99"/><path d="m474.5 61.809h-380.08c-4.142 0-7.5 3.357-7.5 7.5s3.358 7.5 7.5 7.5h380.08c12.406 0 22.5 10.094 22.5 22.5v232.5h-41.28c-4.143 0-7.5 3.357-7.5 7.5s3.357 7.5 7.5 7.5h41.28v12.5c0 12.406-10.094 22.5-22.5 22.5h-268.66c-4.142 0-7.5 3.357-7.5 7.5s3.358 7.5 7.5 7.5h155.845l46.792 46.79c4.25 4.251 9.901 6.593 15.912 6.593 6.013 0 11.663-2.343 15.905-6.592 4.247-4.248 6.586-9.896 6.586-15.903 0-6.014-2.339-11.665-6.587-15.914l-14.974-14.974h49.181c20.678 0 37.5-16.822 37.5-37.5v-20-240c0-20.678-16.822-37.5-37.5-37.5zm-44.813 360.58c2.926 3.538 2.924 7.074-.004 10.608-3.533 2.927-7.066 2.926-10.599-.005l-36.186-36.184h21.207z"/><path d="m173.16 381.809h-135.66c-12.407 0-22.5-10.094-22.5-22.5v-12.5h408.04c4.143 0 7.5-3.357 7.5-7.5s-3.357-7.5-7.5-7.5h-408.04v-232.5c0-12.406 10.093-22.5 22.5-22.5h24.24c4.142 0 7.5-3.357 7.5-7.5s-3.358-7.5-7.5-7.5h-24.24c-20.678 0-37.5 16.822-37.5 37.5v240 20c0 20.678 16.822 37.5 37.5 37.5h49.181l-14.975 14.975c-4.247 4.248-6.585 9.899-6.585 15.913 0 6.008 2.339 11.655 6.582 15.898 4.247 4.254 9.896 6.597 15.91 6.597 6.01 0 11.661-2.342 15.912-6.592l46.792-46.791h22.845c4.142 0 7.5-3.357 7.5-7.5s-3.36-7.5-7.502-7.5zm-80.244 51.184c-3.535 2.931-7.07 2.931-10.603-.001-2.924-3.533-2.924-7.067 0-10.603l25.582-25.581h21.207z"/><g><path d="m342.998 236.933h-139.793l-24.835-93.531h183.943c6.824 0 11.795 6.464 10.044 13.059l-19.316 72.747c-1.208 4.554-5.331 7.725-10.043 7.725z" fill="#f07281"/><path d="m372.359 156.459-.67 2.531h-136.678c-10.235 0-17.693 9.697-15.066 19.589l15.495 58.354h-32.232l-24.838-93.531h183.945c6.822-.001 11.795 6.463 10.044 13.057z" fill="#eb5569"/><path d="m360.291 231.133 19.316-72.747c1.437-5.412.303-11.062-3.111-15.5-3.413-4.438-8.583-6.984-14.183-6.984h-178.126l-4.603-17.908c-2.23-8.68-10.047-14.742-19.009-14.742h-21.288c-4.142 0-7.5 3.357-7.5 7.5s3.358 7.5 7.5 7.5h21.288c2.113 0 3.956 1.429 4.481 3.476l6.05 23.542c.002.008.006.015.008.023.003.011.004.023.007.034l24.835 93.531 4.325 16.488c2.252 8.586 9.182 14.962 17.615 16.725-1.07 2.659-1.666 5.558-1.666 8.595 0 12.731 10.357 23.089 23.088 23.089s23.088-10.357 23.088-23.089c0-2.845-.52-5.57-1.466-8.089h29.769c-.945 2.519-1.466 5.244-1.466 8.089 0 12.731 10.357 23.089 23.088 23.089s23.089-10.357 23.089-23.089c0-2.845-.521-5.57-1.466-8.089h7.401c4.143 0 7.5-3.357 7.5-7.5s-3.357-7.5-7.5-7.5h-118.741c-3.674 0-6.892-2.482-7.824-6.036l-1.864-7.108h130.072c8.103 0 15.214-5.469 17.293-13.3zm-112.884 49.533c0 4.46-3.628 8.089-8.088 8.089s-8.088-3.629-8.088-8.089 3.628-8.089 8.088-8.089 8.088 3.629 8.088 8.089zm73.015 0c0 4.46-3.629 8.089-8.089 8.089s-8.088-3.629-8.088-8.089 3.628-8.089 8.088-8.089 8.089 3.629 8.089 8.089zm41.891-129.765c1.239 0 1.969.707 2.293 1.129s.821 1.309.503 2.506l-19.316 72.747c-.336 1.266-1.485 2.149-2.795 2.149h-134.024l-20.852-78.531z"/><path d="m327.417 198.05h-100.637c-4.142 0-7.5 3.357-7.5 7.5s3.358 7.5 7.5 7.5h100.637c4.143 0 7.5-3.357 7.5-7.5s-3.357-7.5-7.5-7.5z"/><path d="m221.193 181.669h111.813c4.143 0 7.5-3.357 7.5-7.5s-3.357-7.5-7.5-7.5h-111.813c-4.142 0-7.5 3.357-7.5 7.5s3.358 7.5 7.5 7.5z"/></g></g></svg>