<svg id="Capa_1" enable-background="new 0 0 512 512" height="512" viewBox="0 0 512 512" width="512" xmlns="http://www.w3.org/2000/svg"><g><g><path d="m464.599 166.69h-40v-28.201c0-11.046 8.954-20 20-20 11.046 0 20 8.954 20 20z" fill="#aa9ea9"/><path d="m464.605 410.381h-40v-1.937-241.511-.243h39.99.01v.243z" fill="#8ac9fe"/><path d="m464.599 410.381-12.499 53.164h-7.501-7.499l-12.501-53.164z" fill="#aa9ea9"/><path d="m303.965 67.937h81.204v436.563h-367.77v-436.563h81.204" fill="#8ac9fe"/><path d="m48.047 98.584h306.475v375.268h-306.475z" fill="#f5f8f9"/><path d="m48.047 98.584h306.475v375.268h-306.475z" fill="#f5f8f9"/><path d="m328.471 98.584h-208.913-45.46-26.05v375.268h71.511v-293.092c0-16.926 13.721-30.647 30.647-30.647h147.619c16.926 0 30.647-13.721 30.647-30.647v-20.882z" fill="#e8edf2"/><path d="m85.611 171.837h55.165v61.344h-55.165z" fill="#ade194"/><path d="m85.611 265.74h55.165v61.344h-55.165z" fill="#ade194"/><path d="m85.611 359.643h55.165v61.344h-55.165z" fill="#f07281"/><g fill="#fee97d"><path d="m98.603 53.471h205.362v45.113h-205.362z"/><path d="m153.862 53.471c0-25.386 20.585-45.971 45.971-45.971s45.971 20.585 45.971 45.971"/></g></g><g><path d="m472.104 159.569v-21.081c0-15.163-12.337-27.5-27.5-27.5s-27.5 12.337-27.5 27.5v28.201c0 .033.004.064.005.097v103.094c0 4.143 3.357 7.5 7.5 7.5s7.5-3.357 7.5-7.5v-95.69h25v228.69h-25v-100.32c0-4.143-3.357-7.5-7.5-7.5s-7.5 3.357-7.5 7.5v107.76c-.007.597.08 1.192.194 1.777l12.501 53.164c.796 3.387 3.817 5.78 7.295 5.783v7.691c0 4.143 3.357 7.5 7.5 7.5s7.5-3.357 7.5-7.5v-7.69h.006c3.48 0 6.504-2.396 7.301-5.783l12.499-53.164c.001-.005.001-.01.003-.015.127-.548.201-1.116.201-1.703v-235.728c8.403 1.062 14.991 6.064 14.991 11.874v98.907c0 4.143 3.357 7.5 7.5 7.5s7.5-3.357 7.5-7.5v-98.907c.001-14.033-13.18-25.605-29.996-26.957zm-40-21.081c0-6.893 5.607-12.5 12.5-12.5s12.5 5.607 12.5 12.5v20.701h-25zm14.06 317.557h-3.117l-8.975-38.164h21.064z"/><path d="m385.17 60.44h-27.351c-4.143 0-7.5 3.357-7.5 7.5s3.357 7.5 7.5 7.5h19.851v421.56h-352.771v-421.56h66.203v15.64h-43.052c-4.143 0-7.5 3.357-7.5 7.5v282.91c0 4.143 3.357 7.5 7.5 7.5s7.5-3.357 7.5-7.5v-275.41h291.47v360.27h-291.47v-52.18c0-4.143-3.357-7.5-7.5-7.5s-7.5 3.357-7.5 7.5v59.68c0 4.143 3.357 7.5 7.5 7.5h306.47c4.143 0 7.5-3.357 7.5-7.5v-375.27c0-4.143-3.357-7.5-7.5-7.5h-43.055v-15.64h13.675c4.143 0 7.5-3.357 7.5-7.5s-3.357-7.5-7.5-7.5h-13.675v-6.969c0-4.143-3.357-7.5-7.5-7.5h-51.197c-3.659-25.944-25.997-45.971-52.935-45.971-26.937 0-49.275 20.027-52.934 45.972h-48.296c-4.143 0-7.5 3.357-7.5 7.5v6.969h-73.704c-4.143 0-7.5 3.357-7.5 7.5v436.559c0 4.143 3.357 7.5 7.5 7.5h367.771c4.143 0 7.5-3.357 7.5-7.5v-436.56c0-4.142-3.357-7.5-7.5-7.5zm-185.337-45.44c18.647 0 34.238 13.337 37.738 30.972h-75.476c3.501-17.635 19.092-30.972 37.738-30.972zm-93.73 45.972h47.76 91.942 50.66v30.112h-190.362z"/><path d="m85.61 240.682h55.165c4.143 0 7.5-3.357 7.5-7.5v-61.345c0-4.143-3.357-7.5-7.5-7.5h-55.165c-4.143 0-7.5 3.357-7.5 7.5v61.345c0 4.142 3.358 7.5 7.5 7.5zm7.5-61.345h40.165v46.345h-40.165z"/><path d="m172.501 210.009h137.604c4.143 0 7.5-3.357 7.5-7.5s-3.357-7.5-7.5-7.5h-137.604c-4.143 0-7.5 3.357-7.5 7.5s3.357 7.5 7.5 7.5z"/><path d="m78.11 327.084c0 4.143 3.357 7.5 7.5 7.5h55.165c4.143 0 7.5-3.357 7.5-7.5v-61.344c0-4.143-3.357-7.5-7.5-7.5h-55.165c-4.143 0-7.5 3.357-7.5 7.5zm15-53.844h40.165v46.344h-40.165z"/><path d="m172.501 303.912h137.604c4.143 0 7.5-3.357 7.5-7.5s-3.357-7.5-7.5-7.5h-137.604c-4.143 0-7.5 3.357-7.5 7.5s3.357 7.5 7.5 7.5z"/><path d="m78.11 420.987c0 4.143 3.357 7.5 7.5 7.5h55.165c4.143 0 7.5-3.357 7.5-7.5v-61.344c0-4.143-3.357-7.5-7.5-7.5h-55.165c-4.143 0-7.5 3.357-7.5 7.5zm15-53.843h40.165v46.344h-40.165z"/><path d="m172.501 397.815h137.604c4.143 0 7.5-3.357 7.5-7.5s-3.357-7.5-7.5-7.5h-137.604c-4.143 0-7.5 3.357-7.5 7.5s3.357 7.5 7.5 7.5z"/><path d="m172.501 240.682h137.604c4.143 0 7.5-3.357 7.5-7.5s-3.357-7.5-7.5-7.5h-137.604c-4.143 0-7.5 3.357-7.5 7.5s3.357 7.5 7.5 7.5z"/><path d="m172.501 334.584h137.604c4.143 0 7.5-3.357 7.5-7.5s-3.357-7.5-7.5-7.5h-137.604c-4.143 0-7.5 3.357-7.5 7.5s3.357 7.5 7.5 7.5z"/><path d="m172.501 428.487h137.604c4.143 0 7.5-3.357 7.5-7.5s-3.357-7.5-7.5-7.5h-137.604c-4.143 0-7.5 3.357-7.5 7.5s3.357 7.5 7.5 7.5z"/></g></g></svg>