<svg id="Capa_1" enable-background="new 0 0 511.199 511.199" height="512" viewBox="0 0 511.199 511.199" width="512" xmlns="http://www.w3.org/2000/svg"><g><g><path d="m68.127 150.691h374.945v209.741h-374.945z" fill="#ade194"/><path d="m68.127 150.687h69.99v209.749h-69.99z" fill="#97da7b"/><path d="m138.117 182.023v147.089h-18.617c-2.28-9.629-9.919-17.187-19.607-19.337v-108.415c9.689-2.15 17.327-9.709 19.607-19.337z" fill="#80d261"/><path d="m391.698 329.111c2.279-9.633 9.923-17.183 19.607-19.338v-108.412c-9.684-2.154-17.328-9.705-19.607-19.338h-272.197c-2.279 9.633-9.923 17.183-19.607 19.338v108.413c9.684 2.154 17.328 9.705 19.607 19.338h272.197z" fill="#97da7b"/><path d="m138.117 182.023v147.089h-18.617c-2.28-9.629-9.919-17.187-19.607-19.337v-108.415c9.689-2.15 17.327-9.709 19.607-19.337z" fill="#80d261"/><g fill="#fee97d"><path d="m283.026 182.018h-54.854c-15.298 15.07-25.521 42.373-25.521 73.549s10.223 58.479 25.521 73.549h54.854c15.298-15.07 25.521-42.373 25.521-73.549s-10.223-58.479-25.521-73.549z"/><circle cx="151.456" cy="255.567" r="16.658"/><circle cx="359.742" cy="255.567" r="16.658"/></g><path d="m428.026 40.044c-.298-8.282-7.258-14.746-15.537-14.443-8.279.302-14.745 7.258-14.443 15.537l.551 15.11-.136.147c-41.343-30.714-92.554-48.891-148.015-48.891-62.914 0-120.367 23.384-164.142 61.935-6.461 5.69-6.694 15.692-.606 21.78 5.622 5.622 14.618 5.838 20.585.583 39.88-35.12 90.547-54.303 144.162-54.303 46.242 0 90.282 14.287 127.108 40.744l-14.492.529c-8.279.302-14.745 7.258-14.443 15.537.031.865.135 1.709.306 2.529 1.463 7.027 7.817 12.185 15.231 11.914l51.299-1.872c8.279-.302 14.745-7.258 14.443-15.537z" fill="#8ac9fe"/><path d="m83.173 471.155c.298 8.282 7.258 14.746 15.537 14.443 8.279-.302 14.745-7.258 14.443-15.537l-.551-15.11.136-.147c41.343 30.714 92.555 48.891 148.015 48.891 62.914 0 120.367-23.384 164.142-61.935 6.461-5.69 6.694-15.692.606-21.78-5.622-5.622-14.618-5.838-20.585-.583-39.88 35.12-90.547 54.303-144.162 54.303-46.242 0-90.281-14.287-127.108-40.744l14.492-.529c8.279-.302 14.745-7.258 14.443-15.537-.031-.865-.135-1.709-.306-2.529-1.463-7.027-7.817-12.185-15.231-11.914l-51.299 1.872c-8.279.302-14.745 7.258-14.443 15.537z" fill="#f07281"/></g><g><path d="m443.1 143.214h-375c-4.142 0-7.5 3.357-7.5 7.5v209.771c0 4.143 3.358 7.5 7.5 7.5h375c4.142 0 7.5-3.357 7.5-7.5v-209.771c0-4.143-3.358-7.5-7.5-7.5zm-7.5 209.771h-360v-194.771h360z"/><path d="m98.245 317.142c6.849 1.52 12.319 6.915 13.937 13.745.801 3.384 3.822 5.772 7.298 5.772h272.24c3.477 0 6.498-2.389 7.298-5.772 1.617-6.83 7.087-12.226 13.937-13.745 3.433-.762 5.875-3.807 5.875-7.322v-108.43c0-3.516-2.442-6.561-5.875-7.322-6.849-1.52-12.319-6.915-13.937-13.745-.801-3.384-3.822-5.772-7.298-5.772 0 0-108.656-.005-108.689-.005l-163.551.005c-3.477 0-6.498 2.389-7.298 5.772-1.617 6.83-7.087 12.226-13.937 13.745-3.433.762-5.875 3.807-5.875 7.322v36.45c0 4.143 3.358 7.5 7.5 7.5s7.5-3.357 7.5-7.5v-31.025c7.757-3.334 14.039-9.544 17.462-17.265h87.75c-11.087 17.255-17.438 40.802-17.438 66.055 0 25.252 6.351 48.8 17.438 66.055h-87.749c-3.424-7.721-9.706-13.931-17.462-17.265v-33.875c0-4.143-3.358-7.5-7.5-7.5s-7.5 3.357-7.5 7.5v39.3c-.001 3.515 2.441 6.56 5.874 7.322zm305.585-110.328v97.58c-7.757 3.334-14.039 9.544-17.462 17.265h-87.75c11.087-17.255 17.438-40.802 17.438-66.055s-6.351-48.8-17.438-66.055h87.75c3.423 7.722 9.705 13.931 17.462 17.265zm-193.686 48.79c0-26.561 8.072-51.504 21.219-66.055h48.473c13.147 14.551 21.219 39.494 21.219 66.055 0 26.56-8.072 51.504-21.219 66.055h-48.475c-13.146-14.551-21.217-39.494-21.217-66.055z"/><path d="m175.602 255.604c0-13.322-10.838-24.16-24.161-24.16s-24.161 10.838-24.161 24.16 10.839 24.161 24.161 24.161 24.161-10.838 24.161-24.161zm-33.322 0c0-5.051 4.11-9.16 9.161-9.16s9.161 4.109 9.161 9.16c0 5.052-4.109 9.161-9.161 9.161s-9.161-4.109-9.161-9.161z"/><path d="m359.758 279.766c13.322 0 24.161-10.839 24.161-24.161s-10.838-24.16-24.161-24.16-24.161 10.838-24.161 24.16 10.839 24.161 24.161 24.161zm0-33.322c5.051 0 9.161 4.109 9.161 9.16 0 5.052-4.109 9.161-9.161 9.161s-9.161-4.109-9.161-9.161c0-5.05 4.11-9.16 9.161-9.16z"/><path d="m280.078 273.981v-6.66c0-7.349-4.696-13.812-11.684-16.08l-21.731-7.06c-.789-.257-1.319-.985-1.319-1.814v-9.536c0-2.208 1.796-4.005 4.004-4.005h11.726c2.208 0 4.004 1.797 4.004 4.005 0 4.143 3.358 7.5 7.5 7.5s7.5-3.357 7.5-7.5c0-9.927-7.653-18.087-17.367-18.922v-8.028c0-4.143-3.358-7.5-7.5-7.5s-7.5 3.357-7.5 7.5v8.028c-9.714.834-17.367 8.995-17.367 18.922v9.536c0 7.347 4.695 13.81 11.684 16.08l21.733 7.061c.788.256 1.317.984 1.317 1.813v6.66c0 3.062-2.491 5.553-5.553 5.553h-8.628c-3.062 0-5.553-2.491-5.553-5.553 0-4.143-3.358-7.5-7.5-7.5s-7.5 3.357-7.5 7.5c0 10.247 7.545 18.741 17.367 20.28v8.218c0 4.143 3.358 7.5 7.5 7.5s7.5-3.357 7.5-7.5v-8.218c9.822-1.538 17.367-10.033 17.367-20.28z"/><path d="m111.238 97.428c25.03-22.051 53.987-37.433 86.067-45.717 4.011-1.035 6.422-5.126 5.387-9.137s-5.125-6.421-9.137-5.387c-34.385 8.88-65.417 25.36-92.237 48.989-2.995 2.642-7.525 2.527-10.314-.261-1.492-1.492-2.277-3.475-2.211-5.582.065-2.053.94-3.924 2.464-5.266 43.99-38.734 100.526-60.067 159.193-60.067 52.156 0 101.79 16.397 143.537 47.419 3.059 2.274 7.336 1.892 9.943-.889l.14-.149c1.369-1.459 2.098-3.404 2.025-5.403l-.55-15.118c-.075-2 .634-3.909 1.997-5.376 1.364-1.468 3.217-2.316 5.22-2.389 4.146-.124 7.624 3.088 7.773 7.219l1.87 51.298c.073 2.004-.639 3.916-2.005 5.386-1.364 1.467-3.215 2.315-5.213 2.388l-51.299 1.87c-3.661.145-6.872-2.364-7.613-5.937-.092-.441-.145-.868-.159-1.28-.15-4.137 3.087-7.624 7.219-7.773l14.49-.53c3.204-.117 5.979-2.259 6.906-5.328.926-3.069-.201-6.388-2.805-8.258-38.386-27.576-83.849-42.15-131.476-42.15-7.663 0-15.427.389-23.079 1.156-4.122.414-7.127 4.09-6.714 8.211s4.079 7.126 8.211 6.715c7.156-.718 14.417-1.082 21.582-1.082 37.294 0 73.159 9.565 104.891 27.831-8.609 3.41-14.57 11.974-14.217 21.738.043 1.246.199 2.521.462 3.796 2.178 10.486 11.358 17.896 22.01 17.895.277 0 .557-.005.837-.015l51.298-1.87c6.003-.218 11.563-2.763 15.656-7.167 4.092-4.403 6.225-10.135 6.007-16.142l-1.87-51.298c-.449-12.395-10.901-22.097-23.307-21.664-6.01.218-11.574 2.764-15.667 7.17-4.092 4.405-6.222 10.139-5.997 16.138l.012.321c-41.646-27.352-89.775-41.733-140.115-41.733-62.319 0-122.375 22.662-169.108 63.812-4.599 4.052-7.348 9.9-7.543 16.049-.196 6.201 2.208 12.274 6.597 16.663 8.376 8.374 21.926 8.772 30.842.904z"/><path d="m399.963 413.771c-11.582 10.199-24.229 19.102-37.623 26.478-1.257.7-2.392 1.311-3.525 1.895-29.891 15.738-63.802 24.057-98.066 24.057-37.294 0-73.159-9.565-104.891-27.831 8.609-3.41 14.57-11.974 14.217-21.738-.043-1.246-.199-2.521-.462-3.796-2.235-10.76-11.832-18.283-22.847-17.88l-51.298 1.87c-6.003.218-11.563 2.763-15.656 7.167-4.092 4.403-6.225 10.135-6.007 16.142l1.87 51.298c.45 12.395 10.902 22.107 23.307 21.664 6.01-.218 11.574-2.764 15.667-7.17 4.092-4.405 6.222-10.139 5.997-16.138l-.012-.321c41.647 27.353 89.776 41.733 140.117 41.733 18.135 0 36.243-1.91 53.811-5.674 4.162-.886 8.386-1.902 12.543-3.02 12.217-3.26 24.322-7.493 35.978-12.583 3.796-1.657 5.529-6.078 3.872-9.874s-6.077-5.529-9.875-3.872c-10.966 4.788-22.353 8.771-33.855 11.84-3.915 1.052-7.88 2.007-11.795 2.839-16.548 3.546-33.599 5.344-50.679 5.344-52.156 0-101.79-16.397-143.537-47.419-3.059-2.273-7.337-1.892-9.943.889l-.14.149c-1.369 1.459-2.098 3.404-2.025 5.403l.55 15.118c.075 2-.634 3.909-1.997 5.376-1.364 1.468-3.217 2.316-5.22 2.389-4.167.109-7.624-3.088-7.773-7.219l-1.87-51.298c-.073-2.004.639-3.916 2.005-5.386 1.364-1.467 3.215-2.315 5.213-2.388l51.299-1.87c3.669-.153 6.872 2.364 7.613 5.937.092.441.145.868.159 1.28.15 4.137-3.087 7.624-7.219 7.773l-14.49.53c-3.204.117-5.979 2.259-6.906 5.328-.926 3.069.201 6.388 2.805 8.258 38.385 27.574 83.849 42.148 131.476 42.148 36.69 0 73.017-8.916 104.998-25.754 1.22-.63 2.493-1.314 3.86-2.076 14.318-7.885 27.867-17.42 40.275-28.347 2.995-2.642 7.525-2.528 10.314.261 1.492 1.492 2.277 3.475 2.211 5.582-.065 2.053-.94 3.924-2.464 5.266-9.771 8.602-20.257 16.433-31.168 23.275-3.509 2.2-4.57 6.829-2.37 10.338s6.829 4.572 10.338 2.369c11.595-7.271 22.735-15.589 33.113-24.726 4.599-4.052 7.348-9.9 7.543-16.049.196-6.201-2.208-12.274-6.597-16.663-8.378-8.375-21.928-8.77-30.841-.904z"/></g></g></svg>