<svg id="Capa_1" enable-background="new 0 0 512 512" height="512" viewBox="0 0 512 512" width="512" xmlns="http://www.w3.org/2000/svg"><g><path d="m393.225 57.015h-273.55c-16.602 0-30.06 13.458-30.06 30.06v146.865c0 16.602 13.458 30.06 30.06 30.06h25.05v35.908l55.205-35.908h119.166l54.589 35.908.348-35.908h19.192c16.602 0 30.06-13.458 30.06-30.06v-146.865c0-16.602-13.458-30.06-30.06-30.06z" fill="#f5f8f9"/><path d="m168.344 94.621h45.792v134.534h-45.792z" fill="#8ac9fe" transform="matrix(-1 0 0 -1 382.481 323.776)"/><circle cx="69.636" cy="374.569" fill="#fff3de" r="41.2"/><path d="m89.673 410.567c-5.932 3.317-12.765 5.2-20.039 5.2-22.754 0-41.201-18.446-41.201-41.2s18.446-41.201 41.201-41.201c7.274 0 14.108 1.884 20.039 5.2-12.625 7.034-21.161 20.52-21.161 36 0 15.481 8.537 28.968 21.161 36.001z" fill="#ffe5c2"/><path d="m131.757 473.831c-17.622 12.25-39.029 19.425-62.121 19.425s-44.5-7.176-62.121-19.425c2.161-32.429 29.138-58.058 62.121-58.058 17.205 0 32.746 6.957 44.024 18.236 10.347 10.327 17.067 24.301 18.097 39.822z" fill="#8ac9fe"/><path d="m104.703 487.498c-11.011 3.737-22.795 5.761-35.068 5.761-23.095 0-44.497-7.174-62.121-19.428 2.164-32.433 29.137-58.053 62.121-58.053 13.015 0 25.069 3.978 35.058 10.811-12.332 8.423-21.474 21.157-25.261 36.039-1.689 6.638 1.336 13.554 7.317 16.891 5.691 3.176 11.698 5.852 17.954 7.979z" fill="#60b7ff"/><circle cx="193.879" cy="374.569" fill="#f1b0a2" r="41.2"/><path d="m213.916 410.567c-5.932 3.317-12.765 5.2-20.039 5.2-22.754 0-41.201-18.446-41.201-41.2s18.446-41.201 41.201-41.201c7.274 0 14.108 1.884 20.039 5.2-12.625 7.034-21.161 20.52-21.161 36 0 15.481 8.536 28.968 21.161 36.001z" fill="#eb9c8d"/><path d="m256 473.831c-17.622 12.25-39.029 19.425-62.121 19.425s-44.5-7.176-62.121-19.425c2.161-32.429 29.138-58.058 62.121-58.058 17.205 0 32.746 6.957 44.024 18.236 10.347 10.327 17.066 24.301 18.097 39.822z" fill="#f07281"/><path d="m228.945 487.498c-11.011 3.737-22.795 5.761-35.068 5.761-23.095 0-44.497-7.174-62.121-19.428 2.164-32.433 29.137-58.053 62.121-58.053 13.015 0 25.069 3.978 35.058 10.811-12.332 8.423-21.474 21.157-25.261 36.039-1.689 6.638 1.336 13.554 7.317 16.891 5.692 3.176 11.698 5.852 17.954 7.979z" fill="#eb5569"/><circle cx="318.121" cy="374.569" fill="#ffeee6" r="41.2"/><path d="m338.159 410.567c-5.932 3.317-12.765 5.2-20.039 5.2-22.754 0-41.201-18.446-41.201-41.2s18.446-41.201 41.201-41.201c7.274 0 14.107 1.884 20.039 5.2-12.625 7.034-21.161 20.52-21.161 36-.001 15.481 8.536 28.968 21.161 36.001z" fill="#ffdfcf"/><path d="m380.243 473.831c-17.622 12.25-39.029 19.425-62.121 19.425s-44.5-7.176-62.121-19.425c2.161-32.429 29.138-58.058 62.121-58.058 17.205 0 32.746 6.957 44.024 18.236 10.346 10.327 17.066 24.301 18.097 39.822z" fill="#fee97d"/><path d="m353.188 487.498c-11.012 3.737-22.795 5.761-35.068 5.761-23.095 0-44.497-7.174-62.121-19.428 2.164-32.433 29.137-58.053 62.121-58.053 13.015 0 25.069 3.978 35.058 10.811-12.332 8.423-21.474 21.157-25.261 36.039-1.689 6.638 1.336 13.554 7.317 16.891 5.692 3.176 11.698 5.852 17.954 7.979z" fill="#fee45a"/><circle cx="442.364" cy="374.569" fill="#f1b0a2" r="41.2"/><path d="m462.401 410.567c-5.932 3.317-12.765 5.2-20.039 5.2-22.754 0-41.201-18.446-41.201-41.2s18.446-41.201 41.201-41.201c7.274 0 14.107 1.884 20.039 5.2-12.625 7.034-21.161 20.52-21.161 36 0 15.481 8.537 28.968 21.161 36.001z" fill="#eb9c8d"/><path d="m504.485 473.831c-17.622 12.25-39.029 19.425-62.121 19.425s-44.5-7.176-62.121-19.425c2.16-32.429 29.138-58.058 62.121-58.058 17.205 0 32.746 6.957 44.024 18.236 10.347 10.327 17.067 24.301 18.097 39.822z" fill="#ade194"/><path d="m477.431 487.498c-11.012 3.737-22.795 5.761-35.069 5.761-23.095 0-44.497-7.174-62.121-19.428 2.164-32.433 29.137-58.053 62.121-58.053 13.015 0 25.069 3.978 35.058 10.811-12.332 8.423-21.474 21.157-25.261 36.039-1.689 6.638 1.336 13.554 7.317 16.891 5.692 3.176 11.699 5.852 17.955 7.979z" fill="#97da7b"/><path d="m331.606 193.691h7.831c8.65 0 15.663 7.012 15.663 15.663 0 8.65-7.012 15.663-15.663 15.663h-84.006c-4.23 0-8.324-1.433-11.682-4.007-8.855-6.789-18.225-8.228-29.613-8.904v-99.598c26.784-30.602 60.725-33.477 58.35-79.207-.411-7.913 5.895-14.557 13.818-14.557 6.061 0 11.45 3.934 13.218 9.731 7.189 23.562 8.986 46.947-.504 71.241h57.278c8.65 0 15.663 7.012 15.663 15.663 0 8.65-7.012 15.663-15.663 15.663h-19.485 14.181c8.65 0 15.663 7.012 15.663 15.663 0 8.65-7.012 15.663-15.663 15.663h-14.181 8.974c8.65 0 15.663 7.012 15.663 15.663 0 8.65-7.012 15.663-15.663 15.663h-14.179z" fill="#fff3de"/><path d="m331.606 193.691h7.831c8.65 0 15.663 7.012 15.663 15.663 0 8.65-7.012 15.663-15.663 15.663h-84.006c-4.23 0-8.324-1.433-11.682-4.007-8.855-6.789-18.225-8.228-29.613-8.904v-99.598c26.784-30.602 60.725-33.477 58.35-79.207-.411-7.913 5.895-14.557 13.818-14.557 6.061 0 11.45 3.934 13.218 9.731 7.189 23.562 8.986 46.947-.504 71.241h57.278c8.65 0 15.663 7.012 15.663 15.663 0 8.65-7.012 15.663-15.663 15.663h-19.485 14.181c8.65 0 15.663 7.012 15.663 15.663 0 8.65-7.012 15.663-15.663 15.663h-14.181 8.974c8.65 0 15.663 7.012 15.663 15.663 0 8.65-7.012 15.663-15.663 15.663h-14.179z" fill="#fff3de"/><path d="m305.301 71.917c-10.425 12.151-26.262 20.102-40.94 34.491-3.676 3.604-5.775 8.519-5.775 13.666v75.158c0 8.852 5.985 16.685 14.595 18.741 7.009 1.674 13.347 4.803 19.554 11.041h-37.305c-4.229 0-8.322-1.432-11.679-4.005-8.855-6.787-18.226-8.227-29.613-8.904v-99.595c26.802-30.624 60.773-33.482 58.341-79.308-.413-7.874 5.937-14.458 13.823-14.458 3.029 0 5.899.984 8.223 2.692s4.115 4.134 4.997 7.035c4.414 14.466 6.795 28.861 5.779 43.446z" fill="#ffe5c2"/><g><path d="m511.983 473.347c-1.119-16.845-8.322-32.697-20.278-44.631-6.187-6.186-13.338-11.048-21.105-14.487 12.382-8.839 20.478-23.313 20.478-39.653 0-26.854-21.848-48.702-48.703-48.702s-48.703 21.848-48.703 48.702c0 16.362 8.118 30.853 20.529 39.689-14.601 6.485-26.627 17.844-33.927 32.056-3.296-6.452-7.604-12.402-12.818-17.606-6.187-6.186-13.338-11.048-21.105-14.487 12.382-8.839 20.478-23.313 20.478-39.653 0-26.854-21.848-48.702-48.703-48.702s-48.703 21.848-48.703 48.702c0 16.362 8.118 30.853 20.529 39.689-14.601 6.485-26.627 17.844-33.927 32.057-3.296-6.451-7.605-12.401-12.82-17.606-6.186-6.186-13.337-11.048-21.103-14.487 12.382-8.839 20.478-23.314 20.478-39.653 0-26.854-21.848-48.702-48.703-48.702s-48.703 21.848-48.703 48.702c0 16.36 8.117 30.851 20.526 39.687-14.6 6.485-26.625 17.844-33.925 32.057-3.296-6.451-7.604-12.4-12.817-17.604-6.187-6.186-13.338-11.048-21.105-14.487 12.382-8.839 20.478-23.313 20.478-39.653 0-26.854-21.848-48.702-48.703-48.702s-48.703 21.848-48.703 48.702c0 16.362 8.118 30.853 20.529 39.689-23.022 10.226-39.671 32.558-41.437 59.082-.175 2.627 1.04 5.153 3.202 6.656 19.545 13.586 42.508 20.768 66.406 20.768 22.179 0 43.548-6.196 62.132-17.946 13.538 8.537 28.87 14.269 44.658 16.643 4.093.614 7.915-2.206 8.532-6.302.615-4.097-2.206-7.916-6.302-8.532-13.774-2.07-27.156-7.071-38.964-14.531 3.864-26.577 26.891-46.821 54.188-46.821 14.627 0 28.381 5.697 38.732 16.048 8.375 8.359 13.777 19.16 15.466 30.773-11.808 7.46-25.189 12.461-38.964 14.531-4.096.616-6.917 4.436-6.302 8.532.56 3.718 3.758 6.386 7.407 6.386.371 0 .747-.027 1.125-.084 15.788-2.374 31.119-8.107 44.657-16.643 18.584 11.75 39.953 17.946 62.133 17.946 22.176 0 43.542-6.194 62.125-17.941 18.582 11.747 39.948 17.941 62.125 17.941 23.897 0 46.86-7.182 66.405-20.768 2.164-1.503 3.38-4.028 3.205-6.655zm-442.358-132.473c18.584 0 33.703 15.119 33.703 33.702 0 18.584-15.119 33.703-33.703 33.703s-33.703-15.119-33.703-33.703c0-18.583 15.119-33.702 33.703-33.702zm0 144.896c-19.353 0-37.995-5.4-54.193-15.661 3.864-26.577 26.894-46.826 54.193-46.826 14.627 0 28.379 5.696 38.729 16.046 8.374 8.358 13.776 19.162 15.466 30.78-16.201 10.259-34.843 15.661-54.195 15.661zm124.25-144.896c18.584 0 33.703 15.119 33.703 33.702 0 18.584-15.119 33.703-33.703 33.703s-33.703-15.119-33.703-33.703c0-18.583 15.119-33.702 33.703-33.702zm248.5 0c18.584 0 33.703 15.119 33.703 33.702 0 18.584-15.119 33.703-33.703 33.703s-33.703-15.119-33.703-33.703c0-18.583 15.119-33.702 33.703-33.702zm-124.25 0c18.584 0 33.703 15.119 33.703 33.702 0 18.584-15.119 33.703-33.703 33.703s-33.703-15.119-33.703-33.703c0-18.583 15.119-33.702 33.703-33.702zm0 144.896c-19.353 0-37.995-5.4-54.193-15.661 3.864-26.577 26.894-46.826 54.193-46.826 14.627 0 28.379 5.696 38.729 16.046 8.374 8.358 13.776 19.162 15.466 30.78-16.201 10.259-34.843 15.661-54.195 15.661zm124.25 0c-19.353 0-37.995-5.4-54.193-15.661 3.864-26.577 26.894-46.826 54.193-46.826 14.627 0 28.379 5.696 38.729 16.046 8.374 8.358 13.776 19.162 15.466 30.78-16.201 10.259-34.843 15.661-54.195 15.661z"/><path d="m119.67 271.5h17.55v28.41c0 2.751 1.506 5.28 3.924 6.593 1.118.606 2.349.907 3.576.907 1.427 0 2.85-.406 4.089-1.213l53.346-34.697h114.699l52.704 34.676c2.293 1.509 5.229 1.644 7.647.354 2.423-1.29 3.946-3.8 3.975-6.544l.285-28.485h11.755c20.711 0 37.561-16.85 37.561-37.56v-3.721c0-4.143-3.357-7.5-7.5-7.5s-7.5 3.357-7.5 7.5v3.721c0 12.439-10.121 22.56-22.561 22.56h-19.18c-4.112 0-7.458 3.313-7.5 7.425l-.222 22.164-43.097-28.354c-1.224-.806-2.657-1.234-4.122-1.234h-119.169c-1.452 0-2.872.421-4.089 1.213l-43.621 28.372v-22.087c0-4.143-3.357-7.5-7.5-7.5h-25.05c-12.439 0-22.56-10.12-22.56-22.56v-146.86c0-12.439 10.12-22.561 22.56-22.561h16.66c4.143 0 7.5-3.357 7.5-7.5s-3.357-7.5-7.5-7.5h-16.66c-20.71 0-37.56 16.85-37.56 37.561v146.86c0 20.71 16.85 37.56 37.56 37.56z"/><path d="m168.339 236.653h45.795c4.143 0 7.5-3.357 7.5-7.5v-8.851c6.998.925 12.39 2.699 17.552 6.656 4.673 3.582 10.442 5.556 16.245 5.556h84.011c12.772 0 23.164-10.392 23.164-23.164 0-4.53-1.308-8.762-3.565-12.336 5.99-4.191 9.915-11.142 9.915-18.991 0-4.771-1.45-9.211-3.934-12.9 5.553-4.235 9.142-10.92 9.142-18.426 0-4.752-1.438-9.173-3.901-12.854 5.589-4.232 9.205-10.938 9.205-18.474 0-12.772-10.392-23.163-23.164-23.163h-46.884c2.49-8.986 3.695-18.151 3.627-27.688h80.173c12.439 0 22.561 10.121 22.561 22.561v110.46c0 4.143 3.357 7.5 7.5 7.5s7.5-3.357 7.5-7.5v-110.459c0-20.711-16.85-37.561-37.561-37.561h-81.296c-1.032-7.46-2.763-15.178-5.224-23.247-2.745-8.997-10.94-15.042-20.393-15.042-5.824 0-11.464 2.423-15.474 6.646-4.011 4.225-6.138 9.983-5.836 15.8.318 6.122-.057 11.311-1.03 15.843h-94.947c-4.143 0-7.5 3.357-7.5 7.5s3.357 7.5 7.5 7.5h88.205c-5.078 6.838-12.339 12.265-21.01 18.735-4.628 3.455-9.585 7.159-14.581 11.428v-.071c0-4.143-3.357-7.5-7.5-7.5h-45.795c-4.143 0-7.5 3.357-7.5 7.5v134.542c0 4.143 3.357 7.5 7.5 7.5zm76.848-141.377c18.827-14.051 36.611-27.322 34.791-62.377-.092-1.754.524-3.421 1.733-4.695 1.209-1.272 2.841-1.974 4.596-1.974 2.766 0 5.251 1.817 6.045 4.419 7.657 25.098 7.557 46.174-.316 66.329-.901 2.308-.604 4.912.793 6.958 1.397 2.047 3.716 3.271 6.193 3.271h57.281c4.502 0 8.164 3.662 8.164 8.163s-3.662 8.163-8.164 8.163h-19.485c-4.143 0-7.5 3.357-7.5 7.5s3.357 7.5 7.5 7.5h14.182c4.502 0 8.164 3.662 8.164 8.164 0 4.501-3.662 8.163-8.164 8.163h-14.182c-4.143 0-7.5 3.357-7.5 7.5s3.357 7.5 7.5 7.5h8.975c4.501 0 8.163 3.662 8.163 8.164 0 4.501-3.662 8.163-8.163 8.163h-14.183c-4.143 0-7.5 3.357-7.5 7.5s3.357 7.5 7.5 7.5h7.831c4.502 0 8.164 3.662 8.164 8.163 0 4.502-3.662 8.164-8.164 8.164h-84.011c-2.521 0-5.05-.874-7.118-2.46-8.684-6.658-17.798-8.9-26.679-9.872v-89.806c7.559-8.163 15.68-14.224 23.554-20.1zm-69.348 6.835h30.795v119.542h-30.795z"/></g></g></svg>