<svg height="512" viewBox="0 0 64 64" width="512" xmlns="http://www.w3.org/2000/svg"><g id="shopping"><path d="m4 22h12v3h-12z" fill="#ee8700"/><path d="m4 25h12v11h-12z" fill="#ff9811"/><path d="m27 30h12v6h-12z" fill="#78b9eb"/><path d="m27 26h12v4h-12z" fill="#009698"/><path d="m39 22h18v14h-18z" fill="#2488ff"/><path d="m37 17h22v5h-22z" fill="#78b9eb"/><path d="m29 36h-17l1-19h15z" fill="#b39a7c"/><path d="m46 14v3h-6v-4z" fill="#ed539d"/><path d="m50 14v3h-4v-3-1h4z" fill="#ffda44"/><path d="m56 13v4h-6v-3z" fill="#ed539d"/><path d="m46 17h4v5h-4z" fill="#ed539d"/><path d="m46 22h4v14h-4z" fill="#ffda44"/><path d="m3 36h58v5h-58z" fill="#57565c"/><path d="m5 41h54v20h-54z" fill="#e0e0e2"/><path d="m34 58h9v-2h-8v-12h-2v13a1 1 0 0 0 1 1z"/><path d="m46 58h9v-2h-8v-4h5v-2h-5v-4h8v-2h-9a1 1 0 0 0 -1 1v12a1 1 0 0 0 1 1z"/><path d="m61 35h-3v-12h1a1 1 0 0 0 1-1v-5a1 1 0 0 0 -1-1h-2v-3a1 1 0 0 0 -1.16-.99l-4.88.82a.978.978 0 0 0 -.96-.83h-4a.978.978 0 0 0 -.96.83l-4.88-.82a1 1 0 0 0 -1.16.99v3h-2a1 1 0 0 0 -1 1v5a1 1 0 0 0 1 1h1v2h-8.58l-.42-8.05a1.007 1.007 0 0 0 -1-.95h-2v-.5a5.5 5.5 0 0 0 -11 0v.5h-2a1.007 1.007 0 0 0 -1 .95l-.21 4.05h-7.79a1 1 0 0 0 -1 1v13a1 1 0 0 0 -1 1v5a1 1 0 0 0 1 1h1v19a1 1 0 0 0 1 1h54a1 1 0 0 0 1-1v-19h1a1 1 0 0 0 1-1v-5a1 1 0 0 0 -1-1zm-10-20.15 4-.67v1.82h-4zm0 3.15h7v3h-7zm0 5h5v12h-5zm-4-9h2v2h-2zm0 4h2v3h-2zm0 5h2v12h-2zm-6-8.82 4 .67v1.15h-4zm-3 3.82h7v3h-7zm7 5v12h-5v-12zm-7 4v2h-8.37l-.1-2zm0 4v4h-8.05l-.21-4zm-21-15.5a3.5 3.5 0 0 1 7 0v.5h-7zm-3.05 2.5h13.1l.9 17h-14.9zm-8.95 5h6.68l-.05 1h-6.63zm0 3h6.53l-.48 9h-6.05zm53 34h-52v-18h52zm2-20h-56v-3h56z"/><path d="m17 48v-2h-6v4h7a1 1 0 0 1 1 1v6a1 1 0 0 1 -1 1h-8a1 1 0 0 1 -1-1v-3h2v2h6v-4h-7a1 1 0 0 1 -1-1v-6a1 1 0 0 1 1-1h8a1 1 0 0 1 1 1v3z"/><path d="m28 44h-4a3.009 3.009 0 0 0 -3 3v11h2v-6h6v6h2v-11a3.009 3.009 0 0 0 -3-3zm1 6h-6v-3a1 1 0 0 1 1-1h4a1 1 0 0 1 1 1z"/></g></svg>