<svg height="512pt" viewBox="0 -69 512 512" width="512pt" xmlns="http://www.w3.org/2000/svg"><path d="m363.960938 204.042969c-2.289063 0-4.152344-1.863281-4.152344-4.15625v-93.714844c0-2.289063 1.863281-4.152344 4.152344-4.152344h114.558593v-47.386719c0-5.667968-4.636719-10.308593-10.304687-10.308593h-424.433594c-5.664062 0-10.300781 4.640625-10.300781 10.308593v102.832032h111.257812c2.289063 0 4.152344 1.863281 4.152344 4.152344v111.546874c0 2.289063-1.863281 4.152344-4.152344 4.152344h-111.257812v56.632813h445.039062v-129.90625zm0 0" fill="#c5ccd3"/><path d="m363.960938 102.019531h88.804687v-26.925781c0-2.75-2.25-5-5-5h-151.683594c18.515625 12.648438 30.75 33.8125 31.101563 57.863281.003906.355469.027344.707031.027344 1.0625 0 39.375-31.882813 71.292969-71.210938 71.292969s-71.210938-31.917969-71.210938-71.292969c0-24.492187 12.339844-46.089843 31.128907-58.925781h-151.683594c-2.75 0-5 2.25-5 5v82.371094h85.503906c2.289063 0 4.152344 1.863281 4.152344 4.152344v111.546874c0 2.289063-1.863281 4.152344-4.152344 4.152344h-85.503906v24.863282c0 2.75 2.25 5 5 5h383.53125c2.75 0 5-2.25 5-5v-98.140626h-88.808594c-2.289062 0-4.148437-1.859374-4.148437-4.152343v-93.714844c0-2.289063 1.863281-4.152344 4.152344-4.152344zm0 0" fill="#e6e9ed"/><path d="m501.699219 332.949219h-491.398438c-5.664062 0-10.300781 4.640625-10.300781 10.308593v19.851563c0 5.667969 4.636719 10.304687 10.300781 10.304687h491.398438c5.664062 0 10.300781-4.636718 10.300781-10.304687v-19.851563c0-5.667968-4.636719-10.308593-10.300781-10.308593zm0 0" fill="#9ea7af"/><path d="m194.132812 332.949219 9.324219 16.164062c1.417969 2.453125 4.894531 4.460938 7.726563 4.460938h89.632812c2.832032 0 6.3125-2.007813 7.726563-4.460938l9.324219-16.164062zm0 0" fill="#75eae7"/><path d="m363.960938 204.042969c-2.289063 0-4.152344-1.863281-4.152344-4.15625v-93.714844c0-2.289063 1.863281-4.152344 4.152344-4.152344h18.109374v-96.867187c0-2.832032-2.316406-5.152344-5.148437-5.152344h-241.84375c-2.832031 0-5.148437 2.320312-5.148437 5.152344v152.3125h14.8125c2.289062 0 4.148437 1.863281 4.148437 4.152344v111.546874c0 2.289063-1.859375 4.152344-4.148437 4.152344h-14.8125v29.863282h252.140624v-103.136719zm0 0" fill="#ffc502"/><path d="m84.988281 360.035156h-58.71875c-4.140625 0-7.5-3.359375-7.5-7.5s3.359375-7.5 7.5-7.5h58.71875c4.144531 0 7.5 3.359375 7.5 7.5s-3.355469 7.5-7.5 7.5zm0 0" fill="#d5e962"/><path d="m432.160156 360.039062c-1.972656 0-3.910156-.800781-5.300781-2.199218-1.398437-1.402344-2.199219-3.332032-2.199219-5.300782 0-1.980468.800782-3.910156 2.199219-5.3125 1.390625-1.386718 3.328125-2.1875 5.300781-2.1875 1.96875 0 3.910156.800782 5.300782 2.1875 1.398437 1.402344 2.199218 3.332032 2.199218 5.3125 0 1.96875-.800781 3.898438-2.199218 5.300782-1.390626 1.398437-3.332032 2.199218-5.300782 2.199218zm0 0" fill="#75eae7"/><path d="m459.128906 360.039062c-1.980468 0-3.910156-.800781-5.308594-2.199218-1.390624-1.390625-2.191406-3.332032-2.191406-5.300782 0-1.980468.800782-3.910156 2.191406-5.3125 1.398438-1.386718 3.328126-2.1875 5.308594-2.1875 1.972656 0 3.902344.800782 5.300782 2.1875 1.390624 1.402344 2.199218 3.332032 2.199218 5.3125 0 1.96875-.808594 3.898438-2.199218 5.300782-1.398438 1.398437-3.328126 2.199218-5.300782 2.199218zm0 0" fill="#75eae7"/><path d="m486.089844 360.039062c-1.980469 0-3.910156-.800781-5.308594-2.199218-1.390625-1.402344-2.191406-3.332032-2.191406-5.300782 0-1.972656.800781-3.910156 2.191406-5.3125 1.398438-1.386718 3.328125-2.1875 5.308594-2.1875 1.96875 0 3.898437.800782 5.300781 2.1875 1.398437 1.402344 2.199219 3.339844 2.199219 5.3125 0 1.96875-.800782 3.898438-2.199219 5.300782-1.402344 1.398437-3.332031 2.199218-5.300781 2.199218zm0 0" fill="#75eae7"/><path d="m260.789062 127.957031c-1.65625 0-3-1.34375-3-3v-67.183593c-.59375-.011719-1.1875-.042969-1.789062-.042969-39.328125 0-71.210938 31.917969-71.210938 71.289062 0 39.375 31.882813 71.292969 71.210938 71.292969s71.210938-31.917969 71.210938-71.292969c0-.355469-.023438-.707031-.027344-1.0625zm0 0" fill="#ef5050"/><path d="m260.789062 127.957031c-1.65625 0-3-1.34375-3-3v-38.011719c-.59375-.027343-1.1875-.046874-1.789062-.046874-23.234375 0-42.074219 18.859374-42.074219 42.121093 0 23.265625 18.839844 42.121094 42.074219 42.121094s42.074219-18.855469 42.074219-42.121094c0-.355469-.019531-.707031-.027344-1.058593h-37.257813zm0 0" fill="#a2f9f9"/><path d="m256 57.730469v68.289062c0 1.65625 1.34375 3 3 3h68.210938c0-39.371093-31.882813-71.289062-71.210938-71.289062zm0 0" fill="#89c947"/><path d="m257.023438 128.261719c.527343.464843 1.214843.757812 1.976562.757812h68.210938c0-15.925781-5.222657-30.632812-14.039063-42.5zm0 0" fill="#368c0e"/><path d="m149.890625 273.164062c0 2.832032-2.316406 5.152344-5.148437 5.152344h-120.089844c-2.832032 0-5.148438-2.320312-5.148438-5.152344v-111.546874c0-2.832032 2.316406-5.152344 5.148438-5.152344h120.085937c2.835938 0 5.152344 2.320312 5.152344 5.152344zm0 0" fill="#fb8276"/><g fill="#c0272d"><path d="m120.996094 197.578125h-48.78125c-4.140625 0-7.5-3.355469-7.5-7.5 0-4.140625 3.359375-7.5 7.5-7.5h48.78125c4.140625 0 7.5 3.359375 7.5 7.5 0 4.144531-3.359375 7.5-7.5 7.5zm0 0"/><path d="m120.996094 224.890625h-48.78125c-4.140625 0-7.5-3.359375-7.5-7.5s3.359375-7.5 7.5-7.5h48.78125c4.140625 0 7.5 3.359375 7.5 7.5s-3.359375 7.5-7.5 7.5zm0 0"/><path d="m120.996094 252.203125h-48.78125c-4.140625 0-7.5-3.359375-7.5-7.5 0-4.144531 3.359375-7.5 7.5-7.5h48.78125c4.140625 0 7.5 3.355469 7.5 7.5 0 4.140625-3.359375 7.5-7.5 7.5zm0 0"/><path d="m48.398438 197.578125c-1.96875 0-3.910157-.800781-5.300782-2.199219-1.398437-1.390625-2.199218-3.320312-2.199218-5.300781 0-1.96875.800781-3.910156 2.199218-5.300781 1.390625-1.398438 3.320313-2.199219 5.300782-2.199219 1.972656 0 3.910156.800781 5.300781 2.199219 1.398437 1.390625 2.199219 3.332031 2.199219 5.300781 0 1.980469-.800782 3.910156-2.199219 5.300781-1.390625 1.398438-3.328125 2.199219-5.300781 2.199219zm0 0"/><path d="m48.398438 224.886719c-1.976563 0-3.910157-.796875-5.300782-2.1875-1.398437-1.402344-2.199218-3.332031-2.199218-5.3125 0-1.96875.800781-3.898438 2.199218-5.296875 1.390625-1.402344 3.320313-2.203125 5.300782-2.203125 1.972656 0 3.910156.800781 5.300781 2.203125 1.398437 1.386718 2.199219 3.328125 2.199219 5.296875 0 1.980469-.800782 3.910156-2.199219 5.3125-1.390625 1.390625-3.328125 2.1875-5.300781 2.1875zm0 0"/><path d="m48.398438 252.199219c-1.96875 0-3.910157-.800781-5.300782-2.191407-1.398437-1.398437-2.199218-3.328124-2.199218-5.300781 0-1.980469.800781-3.910156 2.199218-5.308593 1.390625-1.402344 3.320313-2.199219 5.300782-2.199219 1.972656 0 3.910156.796875 5.300781 2.199219 1.398437 1.390624 2.199219 3.328124 2.199219 5.308593 0 1.972657-.800782 3.902344-2.199219 5.300781-1.390625 1.390626-3.328125 2.191407-5.300781 2.191407zm0 0"/></g><path d="m202.941406 265.632812v-6.894531c0-4.140625-3.355468-7.5-7.5-7.5-4.144531 0-7.5 3.359375-7.5 7.5v6.894531zm0 0" fill="#046699"/><path d="m223.128906 265.632812v-26.984374c0-4.140626-3.359375-7.5-7.5-7.5-4.144531 0-7.5 3.359374-7.5 7.5v26.984374zm0 0" fill="#0291c9"/><path d="m243.3125 265.632812v-41.214843c0-4.140625-3.355469-7.5-7.5-7.5-4.140625 0-7.5 3.359375-7.5 7.5v41.214843zm0 0" fill="#046699"/><path d="m263.496094 265.632812v-29.496093c0-4.144531-3.355469-7.5-7.5-7.5-4.140625 0-7.5 3.355469-7.5 7.5v29.496093zm0 0" fill="#0291c9"/><path d="m283.683594 265.632812v-35.355468c0-4.140625-3.355469-7.5-7.5-7.5-4.140625 0-7.5 3.359375-7.5 7.5v35.355468zm0 0" fill="#046699"/><path d="m303.871094 265.632812v-17.777343c0-4.140625-3.359375-7.5-7.5-7.5-4.144532 0-7.5 3.359375-7.5 7.5v17.777343zm0 0" fill="#0291c9"/><path d="m324.058594 265.632812v-32.84375c0-4.144531-3.355469-7.5-7.5-7.5-4.144532 0-7.5 3.355469-7.5 7.5v32.84375zm0 0" fill="#046699"/><path d="m302.066406 36.363281h-92.136718c-4.140626 0-7.5-3.359375-7.5-7.5 0-4.144531 3.359374-7.5 7.5-7.5h92.136718c4.144532 0 7.5 3.355469 7.5 7.5 0 4.140625-3.355468 7.5-7.5 7.5zm0 0" fill="#046699"/><path d="m493.972656 199.886719c0 2.835937-2.316406 5.15625-5.152344 5.15625h-124.859374c-2.835938 0-5.152344-2.320313-5.152344-5.15625v-93.714844c0-2.832031 2.316406-5.152344 5.152344-5.152344h124.859374c2.832032 0 5.152344 2.320313 5.152344 5.152344zm0 0" fill="#f7931e"/><path d="m463.144531 136.472656h-73.507812c-4.144531 0-7.5-3.359375-7.5-7.5s3.355469-7.5 7.5-7.5h73.507812c4.140625 0 7.5 3.359375 7.5 7.5s-3.359375 7.5-7.5 7.5zm0 0" fill="#fcdb67"/><path d="m463.144531 160.53125h-73.507812c-4.144531 0-7.5-3.359375-7.5-7.5 0-4.144531 3.355469-7.5 7.5-7.5h73.507812c4.140625 0 7.5 3.355469 7.5 7.5 0 4.140625-3.359375 7.5-7.5 7.5zm0 0" fill="#fcdb67"/><path d="m422.480469 184.585938h-32.84375c-4.144531 0-7.5-3.355469-7.5-7.5 0-4.140626 3.355469-7.5 7.5-7.5h32.84375c4.140625 0 7.5 3.359374 7.5 7.5 0 4.144531-3.359375 7.5-7.5 7.5zm0 0" fill="#fcdb67"/><path d="m327.210938 279.632812h-142.421876c-4.140624 0-7.5-3.359374-7.5-7.5 0-4.144531 3.359376-7.5 7.5-7.5h142.421876c4.140624 0 7.5 3.355469 7.5 7.5 0 4.140626-3.359376 7.5-7.5 7.5zm0 0" fill="#0481bf"/></svg>