<svg id="Capa_1" enable-background="new 0 0 512 512" height="512" viewBox="0 0 512 512" width="512" xmlns="http://www.w3.org/2000/svg"><g><g><g><g><g><path d="m22.885 33.973v444.054c0 14.621 11.852 26.473 26.473 26.473h338.027c14.621 0 26.473-11.852 26.473-26.473v-353.777l-116.75-116.75h-247.75c-14.621 0-26.473 11.852-26.473 26.473z" fill="#eaecf0"/><path d="m321.125 31.517v123.266c0 11.047 8.955 20.003 20.003 20.003h20.027v329.714h26.23c14.621 0 26.473-11.852 26.473-26.473v-353.777z" fill="#d3d7de"/><path d="m297.108 7.5 116.75 116.75h-96.748c-11.047 0-20.003-8.955-20.003-20.003v-96.747z" fill="#df705d"/></g><g><g><g><g><g><g><g><g><g><g><g><path d="m459.339 504.278h-181.132c-16.445 0-29.777-13.331-29.777-29.777v-217.851c0-16.445 13.331-29.777 29.777-29.777h181.132c16.445 0 29.777 13.331 29.777 29.777v217.851c-.001 16.445-13.332 29.777-29.777 29.777z" fill="#676e84"/></g></g></g></g></g></g></g></g></g></g></g><path d="m459.339 226.874h-22.927v277.404h22.927c16.445 0 29.777-13.331 29.777-29.777v-217.851c-.001-16.445-13.332-29.776-29.777-29.776z" fill="#4a4e67"/></g><path d="m447.395 315.735h-157.245c-4.844 0-8.771-3.927-8.771-8.771v-31.158c0-4.844 3.927-8.771 8.771-8.771h157.245c4.844 0 8.771 3.927 8.771 8.771v31.158c.001 4.844-3.926 8.771-8.771 8.771z" fill="#759ce7"/><path d="m447.395 267.034h-43.932v48.7h43.932c4.844 0 8.771-3.927 8.771-8.771v-31.157c.001-4.845-3.926-8.772-8.771-8.772z" fill="#5881cc"/><g fill="#e5a747"><g><path d="m313.564 395.642h-20.823c-6.276 0-11.363-5.087-11.363-11.363v-20.823c0-6.276 5.087-11.363 11.363-11.363h20.823c6.276 0 11.363 5.087 11.363 11.363v20.823c0 6.276-5.087 11.363-11.363 11.363z"/><path d="m379.184 395.642h-20.823c-6.276 0-11.363-5.087-11.363-11.363v-20.823c0-6.276 5.087-11.363 11.363-11.363h20.823c6.276 0 11.363 5.087 11.363 11.363v20.823c0 6.276-5.087 11.363-11.363 11.363z"/><path d="m444.804 395.642h-20.823c-6.276 0-11.363-5.087-11.363-11.363v-20.823c0-6.276 5.087-11.363 11.363-11.363h20.823c6.276 0 11.363 5.087 11.363 11.363v20.823c0 6.276-5.088 11.363-11.363 11.363z"/></g><g><path d="m313.564 465.691h-20.823c-6.276 0-11.363-5.087-11.363-11.363v-20.823c0-6.276 5.087-11.363 11.363-11.363h20.823c6.276 0 11.363 5.087 11.363 11.363v20.823c0 6.276-5.087 11.363-11.363 11.363z"/><path d="m379.184 465.691h-20.823c-6.276 0-11.363-5.087-11.363-11.363v-20.823c0-6.276 5.087-11.363 11.363-11.363h20.823c6.276 0 11.363 5.087 11.363 11.363v20.823c0 6.276-5.087 11.363-11.363 11.363z"/><path d="m444.804 465.691h-20.823c-6.276 0-11.363-5.087-11.363-11.363v-20.823c0-6.276 5.087-11.363 11.363-11.363h20.823c6.276 0 11.363 5.087 11.363 11.363v20.823c0 6.276-5.088 11.363-11.363 11.363z"/></g></g></g></g><g><path d="m222.511 67.374h-151.127c-4.142 0-7.5 3.357-7.5 7.5s3.358 7.5 7.5 7.5h151.127c4.142 0 7.5-3.357 7.5-7.5s-3.358-7.5-7.5-7.5z"/><path d="m222.511 116.75h-151.127c-4.142 0-7.5 3.357-7.5 7.5s3.358 7.5 7.5 7.5h151.127c4.142 0 7.5-3.357 7.5-7.5s-3.358-7.5-7.5-7.5z"/><path d="m459.338 219.373h-181.131c-20.554 0-37.276 16.723-37.276 37.277v217.851c0 20.555 16.722 37.276 37.276 37.276h181.132c20.555 0 37.277-16.722 37.277-37.276v-217.851c-.001-20.554-16.723-37.277-37.278-37.277zm22.277 255.128c0 12.283-9.993 22.276-22.277 22.276h-181.131c-12.283 0-22.276-9.993-22.276-22.276v-217.851c0-12.284 9.993-22.277 22.276-22.277h181.132c12.284 0 22.277 9.993 22.277 22.277v217.851z"/><path d="m447.395 259.534h-157.245c-8.972 0-16.271 7.3-16.271 16.271v31.157c0 8.972 7.299 16.271 16.271 16.271h157.245c8.972 0 16.271-7.3 16.271-16.271v-31.157c.001-8.971-7.299-16.271-16.271-16.271zm1.272 47.429c0 .701-.57 1.271-1.271 1.271h-157.246c-.701 0-1.271-.57-1.271-1.271v-31.157c0-.701.57-1.271 1.271-1.271h157.245c.701 0 1.271.57 1.271 1.271v31.157z"/><path d="m313.564 344.594h-20.823c-10.401 0-18.863 8.462-18.863 18.862v20.823c0 10.401 8.462 18.863 18.863 18.863h20.823c10.401 0 18.863-8.462 18.863-18.863v-20.823c0-10.4-8.462-18.862-18.863-18.862zm3.863 39.685c0 2.13-1.733 3.863-3.863 3.863h-20.823c-2.13 0-3.863-1.733-3.863-3.863v-20.823c0-2.13 1.733-3.862 3.863-3.862h20.823c2.13 0 3.863 1.732 3.863 3.862z"/><path d="m379.184 344.594h-20.823c-10.401 0-18.863 8.462-18.863 18.862v20.823c0 10.401 8.462 18.863 18.863 18.863h20.823c10.401 0 18.863-8.462 18.863-18.863v-20.823c0-10.4-8.462-18.862-18.863-18.862zm3.863 39.685c0 2.13-1.733 3.863-3.863 3.863h-20.823c-2.13 0-3.863-1.733-3.863-3.863v-20.823c0-2.13 1.733-3.862 3.863-3.862h20.823c2.13 0 3.863 1.732 3.863 3.862z"/><path d="m444.804 344.594h-20.823c-10.401 0-18.863 8.462-18.863 18.862v20.823c0 10.401 8.462 18.863 18.863 18.863h20.823c10.401 0 18.863-8.462 18.863-18.863v-20.823c0-10.4-8.462-18.862-18.863-18.862zm3.863 39.685c0 2.13-1.733 3.863-3.863 3.863h-20.823c-2.13 0-3.863-1.733-3.863-3.863v-20.823c0-2.13 1.733-3.862 3.863-3.862h20.823c2.13 0 3.863 1.732 3.863 3.862z"/><path d="m313.564 414.643h-20.823c-10.401 0-18.863 8.462-18.863 18.862v20.823c0 10.401 8.462 18.863 18.863 18.863h20.823c10.401 0 18.863-8.462 18.863-18.863v-20.823c0-10.401-8.462-18.862-18.863-18.862zm3.863 39.685c0 2.13-1.733 3.863-3.863 3.863h-20.823c-2.13 0-3.863-1.733-3.863-3.863v-20.823c0-2.13 1.733-3.862 3.863-3.862h20.823c2.13 0 3.863 1.732 3.863 3.862z"/><path d="m444.804 414.643h-20.823c-10.401 0-18.863 8.462-18.863 18.862v20.823c0 10.401 8.462 18.863 18.863 18.863h20.823c10.401 0 18.863-8.462 18.863-18.863v-20.823c0-10.401-8.462-18.862-18.863-18.862zm3.863 39.685c0 2.13-1.733 3.863-3.863 3.863h-20.823c-2.13 0-3.863-1.733-3.863-3.863v-20.823c0-2.13 1.733-3.862 3.863-3.862h20.823c2.13 0 3.863 1.732 3.863 3.862z"/><path d="m215.348 497h-165.99c-10.462 0-18.973-8.512-18.973-18.974v-444.053c0-10.462 8.511-18.973 18.973-18.973h240.25v89.247c0 15.165 12.338 27.503 27.503 27.503h89.247v60.228c0 4.143 3.358 7.5 7.5 7.5s7.5-3.357 7.5-7.5v-67.728c0-1.989-.79-3.896-2.197-5.304l-116.75-116.75c-1.406-1.406-3.314-2.196-5.303-2.196h-247.75c-18.733 0-33.973 15.24-33.973 33.973v444.054c0 18.733 15.24 33.974 33.973 33.974h165.99c4.142 0 7.5-3.357 7.5-7.5s-3.358-7.501-7.5-7.501zm89.26-392.753v-78.641l91.144 91.144h-78.641c-6.894 0-12.503-5.608-12.503-12.503z"/><path d="m379.184 414.643h-20.823c-10.401 0-18.863 8.462-18.863 18.862v20.823c0 10.401 8.462 18.863 18.863 18.863h20.823c10.401 0 18.863-8.462 18.863-18.863v-20.823c0-10.401-8.462-18.862-18.863-18.862zm3.863 39.685c0 2.13-1.733 3.863-3.863 3.863h-20.823c-2.13 0-3.863-1.733-3.863-3.863v-20.823c0-2.13 1.733-3.862 3.863-3.862h20.823c2.13 0 3.863 1.732 3.863 3.862z"/></g></g></svg>