<svg enable-background="new 0 0 36 36" height="512" viewBox="0 0 36 36" width="512" xmlns="http://www.w3.org/2000/svg"><path d="m34.904 20.355c-3.782-5.791-3.38-11.727-5.203-14.518s-7.256-7.603-20.093.782-9.572 17.5-7.566 20.569c9.388 14.372 39.561 3.423 32.862-6.833z" fill="#efefef"/><path d="m10.75 24.25v.5c0 .828.672 1.5 1.5 1.5h15.5c.828 0 1.5-.672 1.5-1.5v-9.5c0-.828-.672-1.5-1.5-1.5h-15c-1.105 0-2 .895-2 2z" fill="#f3f3f1"/><path d="m12.75 24.75v-.5-8.5c0-1.105.895-2 2-2h-2c-1.105 0-2 .895-2 2v8.5.5c0 .828.672 1.5 1.5 1.5h2c-.828 0-1.5-.672-1.5-1.5z" fill="#d5dbe1"/><path d="m25.25 12.03v7.78c0 .8-.65 1.44-1.46 1.44h-15.58c-.81 0-1.46-.64-1.46-1.44v-7.78l8.49 4.28c.47.25 1.05.25 1.52 0z" fill="#f3f3f1"/><path d="m9 19.81v-6.646l-2.25-1.134v7.78c0 .8.65 1.44 1.46 1.44h2.25c-.81 0-1.46-.64-1.46-1.44z" fill="#d5dbe1"/><path d="m17.49 16.31c.47.25 1.05.25 1.52 0l6.24-3.146v-1.134l-8.125 4.096z" fill="#d5dbe1"/><g fill="#a4afc1"><path d="m5 28.75c-.827 0-1.5-.673-1.5-1.5s.673-1.5 1.5-1.5 1.5.673 1.5 1.5-.673 1.5-1.5 1.5zm0-2c-.276 0-.5.224-.5.5s.224.5.5.5.5-.224.5-.5-.224-.5-.5-.5z"/><path d="m27.146 2.967h1v2h-1z" transform="matrix(.707 -.707 .707 .707 5.292 20.711)"/><path d="m31.212 7.033h1v2h-1z" transform="matrix(.707 -.707 .707 .707 3.608 24.777)"/><path d="m26.469 7.533h2v1h-2z" transform="matrix(.707 -.707 .707 .707 2.366 21.777)"/><path d="m30.535 3.467h2v1h-2z" transform="matrix(.707 -.707 .707 .707 6.431 23.461)"/></g><path d="m25.25 11.19v.84l-8.49 4.28c-.47.25-1.05.25-1.52 0l-8.49-4.28v-.84c0-.8.65-1.44 1.46-1.44h15.58c.81 0 1.46.64 1.46 1.44z" fill="#2fdf84"/><path d="m9 11.78v-.59c0-.8.65-1.44 1.46-1.44h-2.25c-.81 0-1.46.64-1.46 1.44v.84l8.49 4.28c.47.25 1.05.25 1.52 0l.365-.434z" fill="#00b871"/><path d="m23.79 22h-15.58c-1.218 0-2.21-.981-2.21-2.188v-8.625c0-1.206.992-2.187 2.21-2.187h15.58c1.218 0 2.21.981 2.21 2.188v8.625c0 1.206-.992 2.187-2.21 2.187zm-15.58-11.5c-.392 0-.71.309-.71.688v8.625c0 .379.319.688.71.688h15.58c.392 0 .71-.309.71-.688v-8.625c0-.379-.319-.688-.71-.688z"/><path d="m16.004 17.247c-.385 0-.771-.091-1.117-.275l-8.474-4.272.675-1.34 8.49 4.28c.268.143.58.142.83.008l8.505-4.288.675 1.34-8.49 4.28c-.334.178-.713.267-1.094.267z"/><path d="m27.75 27h-15.5c-1.241 0-2.25-1.009-2.25-2.25v-.5h1.5v.5c0 .414.336.75.75.75h15.5c.414 0 .75-.336.75-.75v-9.5c0-.414-.336-.75-.75-.75v-1.5c1.241 0 2.25 1.009 2.25 2.25v9.5c0 1.241-1.009 2.25-2.25 2.25z"/></svg>