<svg enable-background="new 0 0 36 36" height="512" viewBox="0 0 36 36" width="512" xmlns="http://www.w3.org/2000/svg"><path d="m34.904 20.355c-3.782-5.791-3.38-11.727-5.203-14.518s-7.256-7.603-20.093.782-9.572 17.5-7.566 20.569c9.388 14.372 39.561 3.423 32.862-6.833z" fill="#efefef"/><g fill="#a4afc1"><path d="m6 7.018c-.827 0-1.5-.673-1.5-1.5s.673-1.5 1.5-1.5 1.5.673 1.5 1.5-.673 1.5-1.5 1.5zm0-2c-.276 0-.5.224-.5.5s.224.5.5.5.5-.224.5-.5-.224-.5-.5-.5z"/><path d="m25.217 2.967h1v2h-1z" transform="matrix(.707 -.707 .707 .707 4.727 19.347)"/><path d="m29.283 7.033h1v2h-1z" transform="matrix(.707 -.707 .707 .707 3.043 23.413)"/><path d="m28.606 3.467h2v1h-2z" transform="matrix(.707 -.707 .707 .707 5.866 22.097)"/></g><g fill="#f3f3f1"><path d="m29.25 14.65v1.98l-3 1.57v-6.05l2.21 1.18c.48.26.79.77.79 1.32z"/><path d="m9.75 12.15v6.05l-3-1.57v-1.98c0-.55.31-1.06.79-1.32z"/><path d="m29.25 16.63v10.12c0 .83-.67 1.5-1.5 1.5h-19.5c-.83 0-1.5-.67-1.5-1.5v-10.12l3 1.57h.01l7.31 3.82c.58.3 1.28.3 1.86 0l7.31-3.82h.01z"/></g><path d="m26.25 8.75v9.45h-.01l-7.31 3.82c-.58.3-1.28.3-1.86 0l-7.31-3.82h-.01v-9.45c0-1.1.9-2 2-2h12.5c1.1 0 2 .9 2 2z" fill="#2fdf84"/><path d="m28.5 13.359c-.014-.008-.025-.021-.04-.029l-2.21-1.18v6.05l2.25-1.177z" fill="#d5dbe1"/><path d="m9 16.63v-1.98c0-.533.295-1.024.75-1.291v-1.209l-2.21 1.18c-.48.26-.79.77-.79 1.32v1.98l3 1.57v-1.177z" fill="#d5dbe1"/><path d="m9 26.75v-8.943l-2.25-1.177v10.12c0 .83.67 1.5 1.5 1.5h2.25c-.83 0-1.5-.67-1.5-1.5z" fill="#d5dbe1"/><path d="m12.01 18.2h-.01v-9.45c0-1.1.9-2 2-2h-2.25c-1.1 0-2 .9-2 2v9.45h.01l7.31 3.82c.58.3 1.28.3 1.86 0l.195-.102z" fill="#00b871"/><path d="m13.75 16h8.5v1.5h-8.5z"/><path d="m13.75 13h8.5v1.5h-8.5z"/><path d="m13.75 10h4.5v1.5h-4.5z"/><path d="m27.75 29h-19.5c-1.241 0-2.25-1.009-2.25-2.25v-12.1c0-.826.453-1.584 1.183-1.979l2.213-1.182.707 1.323-2.21 1.18c-.237.128-.393.387-.393.658v12.1c0 .414.336.75.75.75h19.5c.414 0 .75-.336.75-.75v-12.1c0-.271-.156-.53-.397-.66l-2.207-1.178.707-1.323 2.21 1.18c.734.396 1.187 1.155 1.187 1.981v12.1c0 1.241-1.009 2.25-2.25 2.25z"/><path d="m17.999 22.996c-.438 0-.875-.103-1.273-.309l-10.323-5.393.694-1.329 10.32 5.39c.358.185.808.185 1.169-.002l10.317-5.388.694 1.329-10.32 5.39c-.401.208-.839.312-1.278.312z"/><path d="m27 18.2h-1.5v-9.45c0-.689-.561-1.25-1.25-1.25h-12.5c-.689 0-1.25.561-1.25 1.25v9.45h-1.5v-9.45c0-1.516 1.233-2.75 2.75-2.75h12.5c1.517 0 2.75 1.234 2.75 2.75z"/><path d="m2 27.5h32v1.5h-32z"/></svg>