<svg id="Capa_1" enable-background="new 0 0 512.002 512.002" height="512" viewBox="0 0 512.002 512.002" width="512" xmlns="http://www.w3.org/2000/svg"><g><g><path d="m459.874 267.434v-217.185c0-7.636-6.19-13.826-13.826-13.826h-20.942l-16.514 9.797h-340l-11.42-9.797h-20.941c-7.636 0-13.825 6.19-13.825 13.826v225.557c0 21.653 17.553 39.206 39.206 39.206h126.861c9.189 0 17.605 5.086 21.929 13.195 5.856 10.982 17.423 18.458 30.74 18.458 13.316 0 24.883-7.476 30.739-18.458 4.324-8.109 12.74-13.195 21.929-13.195h15.412l49.2 18.164 106.673-40.484v-16.619z" fill="#ff7f87"/><g><path d="m67.405 275.805v-225.556c0-1.547.265-3.029.734-4.418l-10.966-9.408h-20.942c-7.636 0-13.825 6.19-13.825 13.826v225.557c0 21.653 17.553 39.206 39.206 39.206h45c-21.654-.001-39.207-17.554-39.207-39.207z" fill="#ff636e"/></g><path d="m405.477 7.5h-156.838l-2.547 1.697h-10.625l-1.828-1.697h-114.17c-10.841 0-19.629 8.788-19.629 19.629v239.328c0 7.635 6.19 13.825 13.825 13.825h119.974l2.016-1.648h11.125l1.859 1.648h109.78l6.506 2.623 55.833-8.167 3.359-3.171c.631-1.583.988-3.304.988-5.112v-239.325c.001-10.842-8.787-19.63-19.628-19.63z" fill="#dbedff"/><g><path d="m102.173 266.458v-239.328c0-10.841 8.788-19.629 19.629-19.629h-45c-10.841 0-19.629 8.788-19.629 19.629v239.328c0 7.635 6.19 13.825 13.825 13.825h45c-7.635 0-13.825-6.19-13.825-13.825z" fill="#b5dcff"/></g><path d="m473.49 260.452c-6.987-.084-12.971 4.204-15.42 10.295-.199.495-.661.831-1.194.831-.532 0-.994-.336-1.192-.83-2.424-6.032-8.317-10.297-15.217-10.297s-12.792 4.265-15.216 10.297c-.199.494-.66.83-1.192.83h-.001c-.532 0-.994-.336-1.192-.83-2.425-6.032-8.317-10.297-15.217-10.297-6.938 0-11.932 4.312-14.26 10.397-.167.435-.573.729-1.038.729-.614 0-1.111-.497-1.111-1.11v-71.48c0-9.25-7.653-16.712-16.972-16.4-8.913.298-15.847 7.913-15.847 16.831v110.023c0 3.577-4.279 5.418-6.876 2.96l-17.786-16.832c-7.346-6.951-19.006-6.314-25.555 1.361-4.131 4.842-4.071 11.997.012 16.878l7.465 8.926c4.322 5.167 7.734 11.044 9.955 17.403 2.923 8.369 9.222 21.602 21.95 32.413 6.849 5.817 10.836 14.322 10.836 23.308v17.231l2.798 5.606h113.5l4.039-4.557v-24.388c0-8.968 1.633-17.904 5.188-26.137 3.795-8.788 5.751-18.257 5.751-27.824v-46.438-12.011c-.002-9.064-7.145-16.778-16.208-16.888z" fill="#ffdecf"/><g fill="#ffcebe"><path d="m355.022 314.148c8.556 8.097 22.647 2.031 22.647-9.749v-104.981c0-5.537 2.676-10.569 6.836-13.661-2.855-2.092-6.4-3.298-10.239-3.17-8.913.298-15.847 7.913-15.847 16.831v110.023c0 2.432-1.978 4.057-4.061 4.079z"/><path d="m377.67 395.859c0-8.986-3.987-17.491-10.836-23.308-12.73-10.813-19.028-24.048-21.95-32.417-2.22-6.358-5.633-12.234-9.954-17.4l-6.927-8.282c-3.603-4.308-4.451-10.373-1.929-15.39 1.877-3.734 4.38-4.653 7.173-3.927-7.365-6.464-18.643-5.708-25.045 1.796-4.131 4.842-4.071 11.997.012 16.878l7.465 8.926c4.322 5.167 7.734 11.044 9.955 17.403 2.923 8.369 9.222 21.602 21.95 32.413 6.849 5.817 10.836 14.322 10.836 23.308v17.231l2.798 5.606h19.25l-2.798-5.606z"/></g><path d="m478.092 446.572h-74.866l-5.328 3.933v40.78c0 6.183 4.107 11.452 9.728 13.216h63.412c7.453 0 13.552-6.098 13.552-13.552v-39.912z" fill="#60b9fe"/><path d="m398.194 490.95v-39.912l6.049-4.466h-47.401l-6.049 4.466v39.912c0 7.454 6.098 13.552 13.552 13.552h47.401c-7.454 0-13.552-6.098-13.552-13.552z" fill="#1ca8ff"/><path d="m471.038 411.701h-62.476c-6.076 1.449-10.635 6.928-10.635 13.431v25.907h86.663v-25.786c0-7.454-6.098-13.552-13.552-13.552z" fill="#dbedff"/><path d="m411.746 411.701h-47.401c-7.453 0-13.552 6.099-13.552 13.552v25.786h47.401v-25.786c0-7.454 6.098-13.552 13.552-13.552z" fill="#b5dcff"/></g><g><path d="m405.427 0h-328.674c-14.959 0-27.13 12.17-27.13 27.129v1.793h-13.442c-11.759 0-21.325 9.567-21.325 21.326v225.557c0 25.754 20.952 46.706 46.706 46.706h34.957c4.143 0 7.5-3.358 7.5-7.5s-3.357-7.5-7.5-7.5h-34.957c-17.482 0-31.706-14.223-31.706-31.706v-225.556c0-3.488 2.838-6.326 6.325-6.326h13.442v222.535c0 11.756 9.564 21.325 21.325 21.325h.001 236.221c-6.978 4.885-10.292 12.219-9.498 19.729h-3.914c-11.963 0-22.901 6.578-28.547 17.167-4.765 8.936-14.008 14.487-24.121 14.487s-19.356-5.551-24.121-14.487c-5.646-10.589-16.584-17.167-28.547-17.167h-56.903c-4.143 0-7.5 3.358-7.5 7.5s3.357 7.5 7.5 7.5h56.903c6.41 0 12.277 3.534 15.311 9.224 7.378 13.835 21.692 22.43 37.357 22.43s29.979-8.594 37.357-22.43c3.033-5.689 8.9-9.224 15.311-9.224h11.907l4.212 5.035c3.834 4.585 6.737 9.653 8.627 15.065 3.426 9.809 10.401 23.957 24.176 35.657 5.205 4.42 8.19 10.832 8.19 17.591v13.193c-4.655 3.865-7.626 9.691-7.626 16.2v65.698c0 11.608 9.443 21.052 21.051 21.052h106.693c11.608 0 21.052-9.444 21.052-21.052 0-6.522 0-57.01 0-65.698 0-5.623-2.229-10.725-5.833-14.505v-20.996c0-8.343 1.539-16.136 4.574-23.164 4.224-9.781 6.365-20.143 6.365-30.797v-9.104c0-4.142-3.357-7.5-7.5-7.5s-7.5 3.358-7.5 7.5v9.104c0 8.597-1.729 16.958-5.137 24.85-3.851 8.917-5.803 18.711-5.803 29.111v14.45c-.072 0-.146-.001-.218-.001h-.001-105.117v-8.341c0-11.17-4.914-21.749-13.48-29.024-11.206-9.519-16.911-21.117-19.725-29.17-2.488-7.124-6.284-13.766-11.282-19.742-.857-1.025-6.852-8.192-7.466-8.925-1.752-2.095-1.774-5.189-.06-7.199 3.773-4.422 10.469-4.777 14.694-.781l17.787 16.831c7.37 6.974 19.531 1.723 19.531-8.407v-29.159-80.865c0-4.988 3.857-9.177 8.598-9.335 5.147-.16 9.221 3.937 9.221 8.905v71.48c0 4.748 3.862 8.61 8.61 8.61 3.543 0 6.775-2.231 8.043-5.549.974-2.544 3.023-5.578 7.256-5.578 3.65 0 6.892 2.196 8.256 5.589 2.732 6.809 12.092 7.465 15.742 1.155.584-1 2.288-6.745 8.822-6.745 3.65 0 6.892 2.196 8.256 5.589 1.35 3.364 4.55 5.538 8.153 5.538 3.582 0 6.795-2.152 8.152-5.535 0-.162.725-1.395.83-1.555 4.792-7.373 16.337-4.025 16.337 5.352v14.347c0 4.142 3.357 7.5 7.5 7.5s7.5-3.358 7.5-7.5v-14.347c0-15.335-14.138-27.593-29.822-23.634v-203.457c0-11.759-9.566-21.326-21.326-21.326h-13.441v-1.793c.001-14.96-12.17-27.13-27.129-27.13zm-47.183 425.252c0-3.379 2.765-6.052 6.051-6.052h106.693.002c3.27.001 6.05 2.676 6.05 6.052v18.286h-118.796zm0 33.287h118.796v32.412c0 3.337-2.715 6.052-6.052 6.052h-106.693c-3.337 0-6.051-2.715-6.051-6.052zm-124.654-185.756h-162.641c-3.489 0-6.326-2.838-6.326-6.325 0-29.54 0-231.743 0-239.328 0-6.688 5.441-12.129 12.13-12.129h156.837zm117.28 28.702-12.008-11.363c-.876-.829-2.036-1.76-2.856-2.339h14.864zm66.687-46.38c-5.738-2.62-12.794-2.979-18.867-.366v-55.752c0-13.555-11.206-24.351-24.724-23.896-9.004.303-17.001 5.883-20.803 14.025h-66.08c-4.143 0-7.5 3.358-7.5 7.5s3.357 7.5 7.5 7.5h63.788v20.15h-63.788c-4.143 0-7.5 3.358-7.5 7.5s3.357 7.5 7.5 7.5h63.788v33.517h-102.281v-257.783h156.837c6.688 0 12.13 5.441 12.13 12.129zm28.441-211.182c3.488 0 6.326 2.838 6.326 6.326v205.858c-6.139-3.526-13.546-3.993-19.768-1.84v-210.344z"/><path d="m103.115 63.517h91.983c4.143 0 7.5-3.358 7.5-7.5s-3.357-7.5-7.5-7.5h-91.983c-4.143 0-7.5 3.358-7.5 7.5s3.358 7.5 7.5 7.5z"/><path d="m103.115 98.667h91.983c4.143 0 7.5-3.358 7.5-7.5s-3.357-7.5-7.5-7.5h-91.983c-4.143 0-7.5 3.358-7.5 7.5s3.358 7.5 7.5 7.5z"/><path d="m103.115 133.816h91.983c4.143 0 7.5-3.358 7.5-7.5s-3.357-7.5-7.5-7.5h-91.983c-4.143 0-7.5 3.358-7.5 7.5s3.358 7.5 7.5 7.5z"/><path d="m103.115 168.966h91.983c4.143 0 7.5-3.358 7.5-7.5s-3.357-7.5-7.5-7.5h-91.983c-4.143 0-7.5 3.358-7.5 7.5s3.358 7.5 7.5 7.5z"/><path d="m103.115 204.116h91.983c4.143 0 7.5-3.358 7.5-7.5s-3.357-7.5-7.5-7.5h-91.983c-4.143 0-7.5 3.358-7.5 7.5s3.358 7.5 7.5 7.5z"/><path d="m103.115 239.266h91.983c4.143 0 7.5-3.358 7.5-7.5s-3.357-7.5-7.5-7.5h-91.983c-4.143 0-7.5 3.358-7.5 7.5s3.358 7.5 7.5 7.5z"/><path d="m379.065 48.517h-91.983c-4.143 0-7.5 3.358-7.5 7.5s3.357 7.5 7.5 7.5h91.983c4.143 0 7.5-3.358 7.5-7.5s-3.357-7.5-7.5-7.5z"/><path d="m379.065 83.667h-91.983c-4.143 0-7.5 3.358-7.5 7.5s3.357 7.5 7.5 7.5h91.983c4.143 0 7.5-3.358 7.5-7.5s-3.357-7.5-7.5-7.5z"/><path d="m379.065 118.816h-91.983c-4.143 0-7.5 3.358-7.5 7.5s3.357 7.5 7.5 7.5h91.983c4.143 0 7.5-3.358 7.5-7.5s-3.357-7.5-7.5-7.5z"/><path d="m379.065 153.966h-91.983c-4.143 0-7.5 3.358-7.5 7.5s3.357 7.5 7.5 7.5h91.983c4.143 0 7.5-3.358 7.5-7.5s-3.357-7.5-7.5-7.5z"/></g></g></svg>