<svg enable-background="new 0 0 36 36" height="512" viewBox="0 0 36 36" width="512" xmlns="http://www.w3.org/2000/svg"><path d="m27.417 3.914c-6.915.129-11.732-3.365-15.064-3.302s-10.296 2.109-10.009 17.44 9.744 17.404 13.41 17.336c17.163-.321 23.911-31.703 11.663-31.474z" fill="#efefef"/><g fill="#a4afc1"><path d="m5 25c-.827 0-1.5-.673-1.5-1.5s.673-1.5 1.5-1.5 1.5.673 1.5 1.5-.673 1.5-1.5 1.5zm0-2c-.276 0-.5.224-.5.5s.224.5.5.5.5-.224.5-.5-.224-.5-.5-.5z"/><path d="m14.449 26.967h1v2h-1z" transform="matrix(.707 -.707 .707 .707 -15.396 18.757)"/><path d="m18.515 31.033h1v2h-1z" transform="matrix(.707 -.707 .707 .707 -17.08 22.821)"/><path d="m13.772 31.533h2v1h-2z" transform="matrix(.707 -.707 .707 .707 -18.324 19.828)"/></g><path d="m27.25 10.22v8.03c0 1.1-.9 2-2 2h-17c-.83 0-1.5-.67-1.5-1.5v-8.53l9.41 4.66c.52.26 1.16.26 1.68 0z" fill="#f3f3f1"/><path d="m27.25 9.25v.97l-9.41 4.66c-.52.26-1.16.26-1.68 0l-9.41-4.66v-.97c0-.83.67-1.5 1.5-1.5h17.5c.83 0 1.5.67 1.5 1.5z" fill="#2fdf84"/><path d="m9 18.75v-7.416l-2.25-1.114v8.53c0 .83.67 1.5 1.5 1.5h2.25c-.83 0-1.5-.67-1.5-1.5z" fill="#d5dbe1"/><path d="m9 9.731v-.481c0-.83.67-1.5 1.5-1.5h-2.25c-.83 0-1.5.67-1.5 1.5v.97l9.41 4.66c.52.26 1.16.26 1.68 0l.285-.63z" fill="#00b871"/><path d="m21.179 28.543-3.536.707.707-3.536 7.778-7.778c.391-.391 1.024-.391 1.414 0l1.414 1.414c.391.391.391 1.024 0 1.414z" fill="#2fdf84"/><path d="m20.351 26.214 7.735-7.735-.543-.543c-.391-.391-1.024-.391-1.414 0l-7.778 7.778-.707 3.536 2.188-.438z" fill="#00b871"/><path d="m17.644 30c-.197 0-.388-.078-.53-.22-.177-.177-.254-.432-.205-.677l.707-3.536c.029-.146.1-.279.205-.383l7.778-7.778c.66-.66 1.813-.661 2.475 0l1.414 1.414c.682.682.682 1.792 0 2.475l-7.778 7.778c-.104.105-.238.176-.383.205l-3.535.707c-.05.01-.1.015-.148.015zm1.398-3.916-.442 2.21 2.209-.442 7.618-7.618c.097-.098.097-.256 0-.354l-1.414-1.414c-.128-.127-.226-.127-.353 0z"/><path d="m25.414 18.729h1.5v4h-1.5z" transform="matrix(.707 -.707 .707 .707 -6.994 24.572)"/><path d="m20.25 21h-12c-1.241 0-2.25-1.009-2.25-2.25v-9.5c0-1.241 1.009-2.25 2.25-2.25h17.5c1.241 0 2.25 1.009 2.25 2.25v6h-1.5v-6c0-.414-.336-.75-.75-.75h-17.5c-.414 0-.75.336-.75.75v9.5c0 .414.336.75.75.75h12z"/><path d="m17.001 15.827c-.404 0-.808-.092-1.176-.276l-9.408-4.659.666-1.344 9.41 4.66c.313.157.7.157 1.011.001l9.413-4.661.666 1.344-9.41 4.66c-.366.183-.769.275-1.172.275z"/></svg>