<?xml version="1.0"?>
<svg xmlns="http://www.w3.org/2000/svg" viewBox="0 0 64 64" width="512" height="512"><g id="Check_List" data-name="Check List"><rect x="6" y="9" width="42" height="52" rx="4" style="fill:#754c29"/><path d="M42,13H12a1,1,0,0,0-1,1V56a1,1,0,0,0,1,1H43V14A1,1,0,0,0,42,13Z" style="fill:#e6e7e8"/><path d="M58,46A12,12,0,0,1,47.97,57.84,11.64,11.64,0,0,1,46,58a12,12,0,0,1-3-23.62A11.858,11.858,0,0,1,46,34a11.522,11.522,0,0,1,1.96.16A11.994,11.994,0,0,1,58,46Z" style="fill:#ffd422"/><path d="M53,44v7a1,1,0,0,1-1,1H40a1,1,0,0,1-1-1V44Z" style="fill:#a97c50"/><rect x="17" y="36" width="8" height="8" style="fill:#78b9eb"/><polygon points="25 24 25 27 25 30 17 30 17 22 23 22 25 22 25 24" style="fill:#78b9eb"/><path d="M40,13v1a2.006,2.006,0,0,1-2,2H16a2.006,2.006,0,0,1-2-2V8H40v5Z" style="fill:#ffa733"/><polygon points="48 44 48 46 44 46 44 44 44 40 48 40 48 44" style="fill:#b38c62"/><path d="M44,40v4H39V41a1,1,0,0,1,1-1Z" style="fill:#c49a6c"/><path d="M53,41v3H48V40h4A1,1,0,0,1,53,41Z" style="fill:#c49a6c"/><path d="M7,57V13a3,3,0,0,1,3-3h3v2H12a2,2,0,0,0-2,2V56a2,2,0,0,0,2,2H35.986V56H12V14h1a3,3,0,0,0,3,3H38a3,3,0,0,0,3-3h1V30.95h2V14a2,2,0,0,0-2-2H41V10h3a3,3,0,0,1,3,3V30.95h2V13a5.006,5.006,0,0,0-5-5H41a1,1,0,0,0-1-1H29.22a3,3,0,1,0-4.44,0H14a1,1,0,0,0-1,1H10a5.006,5.006,0,0,0-5,5V57a5.006,5.006,0,0,0,5,5H44V60H10A3,3,0,0,1,7,57ZM27,4a1,1,0,1,1-1,1A1,1,0,0,1,27,4ZM15,9H39v5a1,1,0,0,1-1,1H16a1,1,0,0,1-1-1Z"/><path d="M46,33A13,13,0,1,0,59,46,13.015,13.015,0,0,0,46,33Zm0,24A11,11,0,1,1,57,46,11.013,11.013,0,0,1,46,57Z"/><path d="M52,39H40a2,2,0,0,0-2,2V51a2,2,0,0,0,2,2H52a2,2,0,0,0,2-2V41A2,2,0,0,0,52,39Zm0,4H49V41h3Zm-5-2v4H45V41Zm-4,0v2H40V41ZM40,51V45h3v1a1,1,0,0,0,1,1h4a1,1,0,0,0,1-1V45h3v6Z"/><path d="M26,27H24v2H18V23h5V21H17a1,1,0,0,0-1,1v8a1,1,0,0,0,1,1h8a1,1,0,0,0,1-1Z"/><path d="M25,35H17a1,1,0,0,0-1,1v8a1,1,0,0,0,1,1h8a1,1,0,0,0,1-1V36A1,1,0,0,0,25,35Zm-1,8H18V37h6Z"/><path d="M26.293,21.293,22,25.586l-2.293-2.293-1.414,1.414,3,3a1,1,0,0,0,1.414,0l5-5Z"/><rect x="30" y="28" width="8" height="2"/><rect x="30" y="24" width="8" height="2"/></g></svg>
