<svg id="Capa_1" enable-background="new 0 0 512 512" height="512" viewBox="0 0 512 512" width="512" xmlns="http://www.w3.org/2000/svg"><g><g><path d="m406.589 442.048h-301.178c-5.523 0-10-4.477-10-10v-281.768c0-5.523 4.477-10 10-10h301.178c5.523 0 10 4.477 10 10v281.768c0 5.523-4.477 10-10 10z" fill="#e2ae83"/></g><g><path d="m416.589 150.28c0-5.523-4.477-10-10-10h-103.463v40.424c0 8.25 3.435 16.211 9.423 21.841 5.604 5.268 12.922 8.169 20.607 8.169 7.254 0 14.268-2.647 19.748-7.453l22.669-19.876c.542-.475 1.23-.736 1.939-.736h39.076v-32.369z" fill="#d39c72"/></g><g><path d="m123.22 432.048v-281.768c0-5.523 4.477-10 10-10h-27.809c-5.523 0-10 4.477-10 10v281.768c0 5.523 4.477 10 10 10h27.809c-5.523 0-10-4.477-10-10z" fill="#d39c72"/></g><g><path d="m281.536 227.607-22.432-17.764c-1.819-1.44-4.389-1.44-6.208 0l-22.432 17.764c-3.278 2.596-8.104.261-8.104-3.92v-83.407h67.28v83.407c0 4.181-4.826 6.515-8.104 3.92z" fill="#dc4955"/></g><g><path d="m164.772 339.76h18.438c2.761 0 5-2.239 5-5v-31.29h12.262c4.52 0 6.72-5.521 3.439-8.63l-25.23-23.905c-1.88-1.781-4.808-1.832-6.749-.118l-27.065 23.905c-3.452 3.049-1.295 8.748 3.31 8.748h11.595v31.29c0 2.761 2.239 5 5 5z" fill="#f1f6f7"/></g><g><path d="m476.5 157.648h-98.987c-6.774 0-13.318 2.465-18.42 6.938l-22.671 19.877c-3.232 2.834-8.296.539-8.296-3.76v-145.097c0-15.523 12.536-28.106 28-28.106h120.374c15.464 0 28 12.584 28 28.106v93.935c0 15.523-12.536 28.107-28 28.107z" fill="#dc4955"/></g><g><path d="m352.706 35.606c0-15.523 12.536-28.106 28-28.106h-24.58c-15.464 0-28 12.583-28 28.106v145.098c0 4.298 5.065 6.593 8.296 3.76l16.284-14.278z" fill="#c42430"/></g><g><path d="m474.524 80.515-23.904-27.065c-3.049-3.452-8.748-1.295-8.748 3.31v11.595h-51.118v-12.262c0-4.52-5.521-6.72-8.63-3.439l-23.904 25.23c-1.781 1.88-1.832 4.808-.118 6.749l23.904 27.065c3.049 3.452 8.748 1.295 8.748-3.31v-11.595h51.118v12.262c0 4.52 5.521 6.72 8.63 3.439l23.904-25.23c1.781-1.88 1.832-4.808.118-6.749z" fill="#f1f6f7"/></g><g><path d="m499.5 504.5c2.761 0 5-2.239 5-5v-109.844c0-2.761-2.239-5-5-5h-18.152c-11.421 0-22.375-4.537-30.451-12.613l-42.999-42.999c-6.951-6.951-18.221-6.951-25.172 0-6.951 6.951-6.951 18.221 0 25.172l17.63 17.63h-18.076-68.513c-9.012 0-16.706 7.007-17.007 16.014-.315 9.417 7.226 17.149 16.572 17.149h-16.582c-9.158 0-16.582 7.424-16.582 16.582 0 9.158 7.424 16.582 16.582 16.582h16.582c-9.158 0-16.582 7.424-16.582 16.582 0 9.158 7.424 16.582 16.582 16.582h15.686c-9.346 0-16.887 7.733-16.572 17.149.301 9.007 7.995 16.014 17.007 16.014z" fill="#ffcebf"/></g><g><g><path d="m400.357 371.846h17.28l-17.63-17.63c-6.951-6.951-6.951-18.221 0-25.172 1.199-1.199 2.534-2.177 3.946-2.963-6.772-3.767-15.474-2.789-21.226 2.963-6.951 6.951-6.951 18.221 0 25.172z" fill="#ffb09e"/></g><g><path d="m329.726 488.486c-.315-9.417 7.226-17.149 16.572-17.149h-15.686c-9.158 0-16.582-7.424-16.582-16.582 0-9.158 7.424-16.582 16.582-16.582h-16.582c-9.158 0-16.582-7.424-16.582-16.582s7.424-16.582 16.582-16.582h16.582c-9.346 0-16.887-7.733-16.572-17.149.301-9.007 7.995-16.014 17.007-16.014h-17.28c-9.012 0-16.706 7.007-17.007 16.014-.315 9.417 7.226 17.149 16.572 17.149h-16.582c-9.158 0-16.582 7.424-16.582 16.582s7.424 16.582 16.582 16.582h16.582c-9.158 0-16.582 7.424-16.582 16.582 0 9.158 7.424 16.582 16.582 16.582h15.686c-9.346 0-16.887 7.733-16.572 17.149.301 9.007 7.995 16.014 17.007 16.014h17.28c-9.012 0-16.706-7.007-17.007-16.014z" fill="#ffb09e"/></g></g><g><path d="m12.5 504.5c-2.761 0-5-2.239-5-5v-109.844c0-2.761 2.239-5 5-5h18.152c11.421 0 22.375-4.537 30.451-12.613l42.999-42.999c6.951-6.951 18.221-6.951 25.172 0 6.951 6.951 6.951 18.221 0 25.172l-17.63 17.63h18.076 68.513c9.012 0 16.706 7.007 17.007 16.014.314 9.417-7.226 17.149-16.572 17.149h16.582c9.158 0 16.582 7.424 16.582 16.582 0 9.158-7.424 16.582-16.582 16.582h-16.582c9.158 0 16.582 7.424 16.582 16.582 0 9.158-7.424 16.582-16.582 16.582h-15.686c9.346 0 16.887 7.733 16.572 17.149-.301 9.007-7.995 16.014-17.007 16.014z" fill="#ffcebf"/></g><g><path d="m30.18 499.5v-109.844c0-2.761 2.239-5 5-5h18.152c11.421 0 22.375-4.537 30.451-12.613l42.999-42.999c.4-.4.819-.772 1.246-1.126-6.993-5.796-17.375-5.424-23.926 1.126l-42.999 42.999c-8.076 8.076-19.03 12.613-30.451 12.613h-18.152c-2.761 0-5 2.239-5 5v109.844c0 2.761 2.239 5 5 5h22.68c-2.761 0-5-2.239-5-5z" fill="#ffb09e"/></g><g><path d="m164.772 347.26h18.438c6.893 0 12.5-5.607 12.5-12.5v-23.79h4.762c5.148 0 9.707-3.09 11.612-7.873s.722-10.161-3.015-13.701l-25.23-23.905c-4.732-4.483-11.985-4.611-16.872-.294l-27.065 23.905c-3.931 3.473-5.272 8.887-3.416 13.792 1.856 4.906 6.445 8.076 11.691 8.076h4.095v23.79c0 6.892 5.607 12.5 12.5 12.5zm10.411-69.307 19.016 18.017h-5.988c-4.142 0-7.5 3.358-7.5 7.5v28.79h-13.438v-28.79c0-4.142-3.358-7.5-7.5-7.5h-4.988z"/><path d="m476.5 0h-120.374c-19.575 0-35.5 15.973-35.5 35.606v97.173h-215.215c-9.649 0-17.5 7.851-17.5 17.5v35.434c0 4.142 3.358 7.5 7.5 7.5s7.5-3.358 7.5-7.5v-35.433c0-1.378 1.122-2.5 2.5-2.5h109.449v75.907c0 4.835 2.704 9.147 7.057 11.252 4.352 2.105 9.412 1.549 13.204-1.454l20.879-16.534 20.879 16.535c2.267 1.795 4.987 2.716 7.739 2.716 1.85 0 3.714-.417 5.464-1.263 4.353-2.105 7.057-6.417 7.057-11.252v-75.907h23.486v32.924c0 4.971 2.813 9.334 7.341 11.386 1.685.763 3.452 1.137 5.202 1.137 2.953 0 5.851-1.066 8.198-3.125l22.671-19.877c3.734-3.274 8.52-5.078 13.475-5.078h98.988c19.575 0 35.5-15.973 35.5-35.606v-93.935c0-19.633-15.925-35.606-35.5-35.606zm-194.36 218.518-18.381-14.556c-4.569-3.617-10.951-3.617-15.52.001l-18.38 14.555v-70.738h52.28v70.738zm214.86-88.976c0 11.362-9.196 20.606-20.5 20.606h-98.987c-8.596 0-16.893 3.125-23.364 8.799l-18.522 16.24v-139.581c0-11.362 9.196-20.606 20.5-20.606h120.373c11.304 0 20.5 9.244 20.5 20.606z"/><path d="m456.241 48.485c-3.472-3.932-8.887-5.273-13.792-3.417-4.906 1.856-8.077 6.446-8.077 11.691v4.095h-36.118v-4.762c0-5.148-3.09-9.706-7.873-11.612-4.781-1.905-10.16-.723-13.701 3.015l-23.905 25.229c-4.484 4.733-4.611 11.987-.295 16.872l23.905 27.065c3.473 3.932 8.888 5.273 13.792 3.416 4.906-1.856 8.076-6.445 8.076-11.691v-4.095h36.118v4.762c0 5.148 3.09 9.706 7.872 11.612 1.517.604 3.094.898 4.653.898 3.356 0 6.631-1.361 9.049-3.913l23.904-25.229c4.484-4.733 4.611-11.986.295-16.872zm-6.869 54.297v-5.989c0-4.142-3.358-7.5-7.5-7.5h-51.118c-4.142 0-7.5 3.358-7.5 7.5v4.988l-18.017-20.398 18.017-19.016v5.988c0 4.142 3.358 7.5 7.5 7.5h51.118c4.142 0 7.5-3.358 7.5-7.5v-4.988l18.017 20.399z"/><path d="m499.5 377.156h-18.152c-9.5 0-18.431-3.699-25.148-10.417l-32.111-32.111v-140.908c0-4.142-3.358-7.5-7.5-7.5s-7.5 3.358-7.5 7.5v126.688c-4.065-2.65-8.81-4.077-13.777-4.077-6.757 0-13.111 2.632-17.889 7.41-9.864 9.864-9.864 25.914 0 35.778l4.827 4.827h-68.482c-13.083 0-24.074 10.436-24.502 23.263-.124 3.687.574 7.263 2.013 10.527-10.651 2.484-18.608 12.058-18.608 23.455 0 4.77 1.409 9.211 3.811 12.957h-40.961c2.402-3.745 3.811-8.186 3.811-12.957 0-11.396-7.958-20.97-18.608-23.454 1.439-3.264 2.136-6.84 2.013-10.527-.428-12.827-11.42-23.263-24.502-23.263h-68.485l4.828-4.827c9.863-9.865 9.863-25.915 0-35.778-4.778-4.778-11.132-7.41-17.889-7.41-4.967 0-9.712 1.426-13.777 4.077v-98.369c0-4.142-3.358-7.5-7.5-7.5s-7.5 3.358-7.5 7.5v112.589l-32.112 32.111c-6.717 6.717-15.648 10.417-25.148 10.417h-18.152c-6.893 0-12.5 5.607-12.5 12.5v109.843c0 6.893 5.607 12.5 12.5 12.5h170.047c13.083 0 24.074-10.436 24.502-23.264.126-3.764-.603-7.412-2.104-10.73 10.244-2.769 17.803-12.144 17.803-23.251 0-1.788-.2-3.529-.571-5.207h67.643c-.371 1.677-.571 3.419-.571 5.207 0 11.107 7.559 20.482 17.803 23.251-1.501 3.318-2.229 6.966-2.104 10.73.428 12.828 11.42 23.264 24.502 23.264h170.05c6.893 0 12.5-5.607 12.5-12.5v-109.844c0-6.892-5.607-12.5-12.5-12.5zm-300.833 86.68h-15.686-37.421c-4.142 0-7.5 3.358-7.5 7.5s3.358 7.5 7.5 7.5h37.421c2.483 0 4.802.983 6.529 2.77 1.726 1.784 2.63 4.139 2.547 6.629-.162 4.833-4.428 8.765-9.511 8.765h-167.546v-104.844h15.652c13.506 0 26.204-5.26 35.754-14.81l42.999-42.999c1.945-1.945 4.531-3.017 7.282-3.017s5.337 1.071 7.283 3.017c4.016 4.016 4.015 10.55 0 14.565l-17.63 17.63c-2.145 2.145-2.787 5.371-1.626 8.173 1.161 2.803 3.896 4.63 6.929 4.63h86.589c5.083 0 9.35 3.932 9.511 8.764.083 2.491-.822 4.846-2.547 6.63-1.727 1.786-4.045 2.769-6.529 2.769h-53.107c-4.142 0-7.5 3.358-7.5 7.5s3.358 7.5 7.5 7.5h53.107 16.582c5.007 0 9.082 4.074 9.082 9.082s-4.074 9.082-9.082 9.082h-16.582-53.107c-4.142 0-7.5 3.358-7.5 7.5s3.358 7.5 7.5 7.5h53.107c5.007 0 9.082 4.074 9.082 9.082s-4.074 9.082-9.082 9.082zm298.333 33.164h-167.547c-5.083 0-9.35-3.932-9.511-8.765-.083-2.491.822-4.845 2.547-6.629 1.727-1.786 4.046-2.77 6.529-2.77h37.421c4.142 0 7.5-3.358 7.5-7.5s-3.358-7.5-7.5-7.5h-37.421-15.686c-5.007 0-9.082-4.074-9.082-9.082s4.074-9.082 9.082-9.082h53.107c4.142 0 7.5-3.358 7.5-7.5s-3.358-7.5-7.5-7.5h-53.107-16.582c-5.007 0-9.082-4.074-9.082-9.082s4.074-9.082 9.082-9.082h16.582 53.107c4.142 0 7.5-3.358 7.5-7.5s-3.358-7.5-7.5-7.5h-53.107c-2.483 0-4.802-.983-6.529-2.769-1.726-1.784-2.63-4.139-2.547-6.63.162-4.833 4.428-8.764 9.511-8.764h86.589c3.034 0 5.768-1.827 6.929-4.63s.519-6.028-1.626-8.173l-17.63-17.63c-4.016-4.016-4.016-10.55 0-14.565 1.945-1.945 4.532-3.017 7.283-3.017s5.337 1.071 7.283 3.017l42.999 42.999c9.55 9.55 22.248 14.81 35.754 14.81h15.652z"/></g></g></svg>