<svg id="Capa_1" enable-background="new 0 0 512 512" height="512" viewBox="0 0 512 512" width="512" xmlns="http://www.w3.org/2000/svg"><g><g><path d="m320.738 285.576h-297.637c-8.284 0-15-6.716-15-15v-246.552c0-8.284 6.716-15 15-15h297.637c8.284 0 15 6.716 15 15v246.552c0 8.284-6.716 15-15 15z" fill="#ffd064"/></g><g><path d="m320.806 9.024h-27.053v219.635c0 8.247-6.685 14.932-14.932 14.932h-270.72v27.053c0 8.247 6.685 14.932 14.932 14.932h297.773c8.247 0 14.932-6.685 14.932-14.932v-246.688c0-8.247-6.685-14.932-14.932-14.932z" fill="#ffc250"/></g><g><path d="m320.738 285.576h-60.731v-276.552h60.731c8.284 0 15 6.716 15 15v246.552c0 8.284-6.716 15-15 15z" fill="#ffc250"/></g><g><path d="m210.696 213.428h-153.636c-3.866 0-7-3.134-7-7v-78.097c0-3.866 3.134-7 7-7h153.636c3.866 0 7 3.134 7 7v78.097c0 3.866-3.134 7-7 7z" fill="#f4fbff"/></g><g><path d="m320.806 9.024h-27.053v219.635c0 8.247-6.685 14.932-14.932 14.932h-18.814v41.985h60.799c8.247 0 14.932-6.685 14.932-14.932v-246.688c0-8.247-6.685-14.932-14.932-14.932z" fill="#ebb044"/></g><g><path d="m68.001 9.024v67.951c0 .798.476 1.518 1.209 1.831l5.739 2.449c1.747.746 3.723.746 5.47 0l8.528-3.639c1.747-.746 3.723-.746 5.47 0l8.525 3.638c1.747.746 3.723.746 5.471 0l8.526-3.639c1.747-.746 3.723-.746 5.47 0l8.527 3.639c1.747.746 3.723.746 5.47 0l5.794-2.472c.734-.313 1.21-1.034 1.21-1.831v-67.927z" fill="#365e7d"/></g><g><g><path d="m126.236 9.024v67.929c0 .779-.458 1.478-1.162 1.802l5.861 2.501c1.747.746 3.723.746 5.47 0l5.794-2.472c.734-.313 1.21-1.034 1.21-1.831v-67.929z" fill="#2b4d66"/></g></g><g><path d="m489.534 502.977h-297.637c-8.284 0-15-6.716-15-15v-246.552c0-8.284 6.716-15 15-15h297.637c8.284 0 15 6.716 15 15v246.552c0 8.284-6.716 15-15 15z" fill="#ffe07d"/></g><g><path d="m489.602 226.425h-27.053v219.635c0 8.247-6.685 14.932-14.932 14.932h-270.72v27.053c0 8.247 6.685 14.932 14.932 14.932h297.773c8.247 0 14.932-6.685 14.932-14.932v-246.688c0-8.247-6.685-14.932-14.932-14.932z" fill="#ffd064"/></g><g><path d="m489.534 502.977h-60.731v-276.552h60.731c8.284 0 15 6.716 15 15v246.552c0 8.284-6.716 15-15 15z" fill="#ffd064"/></g><g><path d="m379.492 430.83h-153.636c-3.866 0-7-3.134-7-7v-78.097c0-3.866 3.134-7 7-7h153.636c3.866 0 7 3.134 7 7v78.097c0 3.866-3.134 7-7 7z" fill="#f4fbff"/></g><path d="m210.696 121.331h-5.995v72.102c0 3.866-3.134 7-7 7h-147.64v5.995c0 3.866 3.134 7 7 7h153.635c3.866 0 7-3.134 7-7v-78.097c0-3.866-3.134-7-7-7z" fill="#e4f6ff"/><path d="m379.492 338.732h-5.995v72.102c0 3.866-3.134 7-7 7h-147.641v5.995c0 3.866 3.134 7 7 7h153.635c3.866 0 7-3.134 7-7v-78.097c.001-3.865-3.133-7-6.999-7z" fill="#e4f6ff"/><g><path d="m489.602 226.425h-27.053v219.635c0 8.247-6.685 14.932-14.932 14.932h-18.814v41.985h60.799c8.247 0 14.932-6.685 14.932-14.932v-246.688c0-8.247-6.685-14.932-14.932-14.932z" fill="#ffc250"/></g><g><path d="m236.797 226.425v69.944c0 .798.476 1.518 1.209 1.831l5.739 2.449c1.747.746 3.723.746 5.47 0l8.528-3.639c1.747-.746 3.723-.746 5.47 0l8.525 3.638c1.747.746 3.723.746 5.471 0l8.526-3.638c1.747-.746 3.723-.746 5.47 0l8.527 3.639c1.747.746 3.723.746 5.47 0l5.794-2.472c.734-.313 1.21-1.034 1.21-1.831v-69.922h-75.409z" fill="#365e7d"/></g><g><g><path d="m295.032 226.425v69.922c0 .779-.458 1.478-1.162 1.802l5.861 2.501c1.747.746 3.723.746 5.47 0l5.794-2.472c.734-.313 1.21-1.034 1.21-1.831v-69.922z" fill="#2b4d66"/></g></g><g><path d="m496.532 109.41c-53.721-41.873-127.726-45.229-184.692-10.052-2.175 1.343-1.201 4.668 1.355 4.637 37.387-.45 74.916 13.586 103.443 42.113 7.412 7.412 13.837 15.437 19.292 23.905z" fill="#9dc6fb"/></g><g><path d="m311.84 99.358c56.966-35.176 130.971-31.821 184.693 10.052l-17.673 17.673c-38.68-23.973-85.248-30.164-127.998-18.558-12.336-3.169-25.008-4.683-37.667-4.531-2.557.031-3.531-3.293-1.355-4.636z" fill="#80b4fb"/></g><g><path d="m503.973 176.671v-80.773c0-3.566-4.313-5.35-6.832-2.825l-80.594 80.785c-2.515 2.521-.729 6.826 2.832 6.825l80.594-.011c2.209-.001 4-1.792 4-4.001z" fill="#80b4fb"/></g><g><path d="m497.172 93.042-23.395 23.451v64.182l26.215-.004c2.199 0 3.981-1.783 3.981-3.982v-80.835c0-3.55-4.294-5.325-6.801-2.812z" fill="#61a2f9"/></g><g><g><path d="m145.249 454.567c-67.596-8.378-122.298-58.335-137.706-123.489-.588-2.488 2.451-4.15 4.237-2.321 26.119 26.755 62.58 43.367 102.924 43.367 10.483 0 20.7-1.132 30.545-3.261z" fill="#9dc6fb"/></g><g><path d="m7.543 331.078c15.408 65.154 70.11 115.112 137.706 123.489v-24.994c-44.302-10.4-81.609-38.95-103.631-77.386-10.963-6.482-20.995-14.372-29.838-23.431-1.786-1.828-4.826-.166-4.237 2.322z" fill="#80b4fb"/></g><g><path d="m198.764 411.788-57.315 56.69c-2.526 2.499-6.813.709-6.813-2.844v-113.38c0-3.553 4.287-5.342 6.813-2.844l57.315 56.69c1.583 1.566 1.583 4.123 0 5.688z" fill="#80b4fb"/></g><g><path d="m198.777 406.113-19.266-19.056-44.875 44.385v34.236c0 3.537 4.267 5.318 6.782 2.831l57.359-56.733c1.576-1.559 1.576-4.104 0-5.663z" fill="#61a2f9"/></g></g><g><path d="m82.326 194.398c4.124 0 7.466-3.342 7.466-7.466v-37.087c0-4.124-3.342-7.466-7.466-7.466s-7.466 3.342-7.466 7.466v37.087c0 4.124 3.343 7.466 7.466 7.466z"/><path d="m121.092 194.398c4.124 0 7.466-3.342 7.466-7.466v-37.087c0-4.124-3.342-7.466-7.466-7.466s-7.466 3.342-7.466 7.466v37.087c0 4.124 3.342 7.466 7.466 7.466z"/><path d="m160.243 194.398c4.124 0 7.466-3.342 7.466-7.466v-37.087c0-4.124-3.342-7.466-7.466-7.466s-7.466 3.342-7.466 7.466v37.087c0 4.124 3.342 7.466 7.466 7.466z"/><path d="m184.301 194.398c4.124 0 7.466-3.342 7.466-7.466v-37.087c0-4.124-3.342-7.466-7.466-7.466s-7.466 3.342-7.466 7.466v37.087c0 4.124 3.342 7.466 7.466 7.466z"/><path d="m504.534 324.82c4.124 0 7.466-3.342 7.466-7.466v-75.996c0-12.35-10.048-22.398-22.398-22.398h-146.398v-104.605c25.629 5.363 49.161 18.04 68.153 37.032 2.844 2.844 5.568 5.837 8.157 8.926l-8.283 8.303c-3.28 3.287-4.249 8.184-2.469 12.473 1.779 4.289 5.93 7.061 10.575 7.061l80.654-.012c6.312 0 11.448-5.136 11.448-11.448v-80.836c0-4.65-2.776-8.803-7.073-10.579-4.296-1.779-9.196-.799-12.479 2.494l-5.497 5.51c-43.117-26.778-95.955-32.403-143.186-16.717v-52.606c0-12.35-10.048-22.398-22.398-22.398h-297.773c-12.35 0-22.398 10.048-22.398 22.398v246.688c0 12.35 10.048 22.398 22.398 22.398h146.398v73.544l-22.762-22.514c-3.294-3.26-8.184-4.209-12.461-2.426-4.275 1.785-7.038 5.932-7.038 10.565v11.876c-4.139.376-8.314.571-12.466.571-37.042 0-71.697-14.602-97.581-41.115-3.175-3.253-7.978-3.971-11.953-1.784-3.971 2.183-5.937 6.618-4.893 11.037 14.824 62.688 64.369 111.722 126.892 126.129v6.754c0 4.632 2.762 8.778 7.037 10.563 1.432.599 2.933.889 4.42.889 2.952-.001 5.85-1.147 8.042-3.314l22.762-22.514v36.741c0 12.35 10.048 22.398 22.398 22.398h297.773c12.35 0 22.398-10.048 22.398-22.398v-135.951c0-4.124-3.342-7.466-7.466-7.466s-7.466 3.342-7.466 7.466v135.951c0 4.117-3.349 7.466-7.466 7.466h-53.331v-261.619h53.332c4.117 0 7.466 3.349 7.466 7.466v75.996c0 4.125 3.342 7.467 7.466 7.467zm-8.027-151.614-68.773.01 68.773-68.936zm-20.964-69.054-45.449 45.557c-2.613-3.063-5.337-6.042-8.176-8.881-24.757-24.756-56.465-39.84-90.728-43.459 45.904-21.511 100.35-19.175 144.353 6.783zm-339.601-87.662v55.382c0 .888-.53 1.691-1.347 2.04l-.055.023c-.556.237-1.185.238-1.741 0l-7.463-3.185c-1.8-.768-3.732-1.152-5.665-1.152s-3.865.384-5.665 1.152l-8.33 3.555-8.33-3.554c-3.601-1.538-7.731-1.537-11.33-.001l-7.462 3.185c-.556.237-1.185.237-1.741 0-.817-.349-1.347-1.151-1.347-2.04v-55.405zm-112.909 261.62c-4.117 0-7.466-3.349-7.466-7.466v-246.688c0-4.117 3.349-7.466 7.466-7.466h37.502v60.486c0 3.793 2.254 7.207 5.744 8.697l5.739 2.45c3.601 1.538 7.731 1.537 11.331.001l8.332-3.555 8.329 3.553c3.601 1.539 7.732 1.538 11.331.001l8.33-3.555 8.331 3.555c1.8.769 3.733 1.153 5.666 1.153s3.865-.384 5.666-1.152l5.796-2.473c3.489-1.49 5.743-4.904 5.743-8.698v-60.463h101.667v174.432c0 4.124 3.342 7.466 7.466 7.466s7.466-3.342 7.466-7.466v-174.432h53.332c4.117 0 7.466 3.349 7.466 7.466v58.357c-6.968 3.077-13.774 6.63-20.353 10.692-3.863 2.384-5.611 6.91-4.348 11.261 1.252 4.317 5.096 7.196 9.59 7.196.041 0 .083 0 .123-.001 5.043-.062 10.043.156 14.988.63v106.869h-110.356c4.324-2.496 7.248-7.158 7.248-12.5v-78.16c0-7.959-6.475-14.434-14.434-14.434h-153.699c-7.959 0-14.434 6.475-14.434 14.434v78.16c0 7.959 6.475 14.434 14.434 14.434h125.711c-7.833 3.493-13.309 11.349-13.309 20.464v36.752zm221.23-44.219h60.475v57.375c0 .888-.53 1.691-1.347 2.04l-.053.023c-.556.237-1.185.237-1.741 0l-7.464-3.185c-1.8-.768-3.732-1.152-5.665-1.152s-3.865.384-5.666 1.152l-8.329 3.556-8.33-3.555c-3.601-1.538-7.732-1.537-11.33-.001l-7.462 3.184c-.556.237-1.185.237-1.741 0-.817-.349-1.347-1.151-1.347-2.04zm-34.033-27.929h-152.703v-77.164h152.703zm-68.128 251.37v-25.101c0-4.124-3.342-7.466-7.466-7.466s-7.466 3.342-7.466 7.466v11.33c-49.76-12.649-90.053-49.458-107.36-97.403 26.788 21.671 59.881 33.431 94.894 33.431 4.15 0 8.321-.188 12.466-.528v17.486c0 4.124 3.342 7.466 7.466 7.466s7.466-3.342 7.466-7.466v-35.991l48.92 48.388zm279.236 38.178h-229.509c-4.117 0-7.466-3.349-7.466-7.466v-51.511l19.664-19.449c2.191-2.167 3.399-5.058 3.399-8.14s-1.207-5.973-3.398-8.139l-19.665-19.45v-139.997c0-4.117 3.349-7.466 7.466-7.466h37.502v62.478c0 3.793 2.254 7.208 5.745 8.699l5.738 2.448c3.601 1.538 7.731 1.537 11.331.001l8.332-3.555 8.329 3.554c1.8.769 3.733 1.153 5.667 1.153 1.932 0 3.865-.384 5.666-1.152l8.33-3.556 8.33 3.555c3.598 1.537 7.726 1.536 11.331.002l5.796-2.473c3.489-1.49 5.743-4.904 5.743-8.698v-62.456h101.667v261.618z"/><path d="m211.391 345.701v78.161c0 7.959 6.475 14.434 14.434 14.434h153.698c7.959 0 14.434-6.475 14.434-14.434v-78.161c0-7.959-6.475-14.434-14.434-14.434h-153.698c-7.959-.001-14.434 6.475-14.434 14.434zm14.932.497h152.703v77.165h-152.703z"/><path d="m251.122 359.779c-4.124 0-7.466 3.342-7.466 7.466v37.087c0 4.124 3.342 7.466 7.466 7.466s7.466-3.342 7.466-7.466v-37.087c0-4.123-3.342-7.466-7.466-7.466z"/><path d="m281.31 359.779c-4.124 0-7.466 3.342-7.466 7.466v37.087c0 4.124 3.342 7.466 7.466 7.466s7.466-3.342 7.466-7.466v-37.087c0-4.123-3.342-7.466-7.466-7.466z"/><path d="m305.936 359.779c-4.124 0-7.466 3.342-7.466 7.466v37.087c0 4.124 3.342 7.466 7.466 7.466s7.466-3.342 7.466-7.466v-37.087c0-4.123-3.342-7.466-7.466-7.466z"/><path d="m353.097 359.779c-4.124 0-7.466 3.342-7.466 7.466v37.087c0 4.124 3.342 7.466 7.466 7.466s7.466-3.342 7.466-7.466v-37.087c0-4.123-3.342-7.466-7.466-7.466z"/></g></g></svg>