<svg id="Capa_1" enable-background="new 0 0 511.983 511.983" height="512" viewBox="0 0 511.983 511.983" width="512" xmlns="http://www.w3.org/2000/svg"><g><g><g><path d="m349.068 184.662c-109.11 0-218.22-7.506-327.33-7.506-18.9 108.291-18.9 219.038 0 327.33h327.33c18.9-108.292 18.9-211.532 0-319.824z" fill="#e49542"/><path d="m74.632 504.493h-52.894c-18.883-108.3-18.883-219.037 0-327.337h52.894c-18.909 108.3-18.909 219.037 0 327.337z" fill="#e28424"/><path d="m238.28 314.803-52.877-33.335-52.876 33.335v-137.647h105.753z" fill="#db5b6f"/></g><g><g><path d="m398.525 8.193c-50.405-1.834-100.803-.066-151.201 5.297-14.019 1.488-24.996 12.715-26.116 26.764-7.264 91.086-7.264 182.172 0 273.265 1.12 14.049 12.097 25.276 26.116 26.764 75.173 8.001 150.353 8.001 225.534 0 14.012-1.488 24.996-12.715 26.116-26.764 5.422-68.034 6.8-136.061 4.118-204.088" fill="#ececec"/><path d="m503.093 109.431c-24.775-.891-49.551-2.659-74.333-5.297-14.012-1.488-24.996-12.715-26.116-26.764-1.842-23.059-3.212-46.118-4.118-69.176 24.774.891 103.66 78.178 104.567 101.237z" fill="#dadada"/></g></g><g><path d="m136.889 465.538c-25.494 2.138-50.989 2.138-76.483 0-6.977-.585-12.496-6.104-13.082-13.082-2.138-25.495-2.138-50.989 0-76.483.585-6.977 6.104-12.496 13.082-13.082 25.494-2.138 50.989-2.138 76.483 0 6.977.585 12.496 6.104 13.082 13.082 2.138 25.494 2.138 50.989 0 76.483-.585 6.978-6.104 12.497-13.082 13.082z" fill="#ececec"/></g></g><g><path d="m494.907 259.749c-.201 4.137 2.99 7.654 7.127 7.855.124.006.248.009.37.009 3.976 0 7.29-3.123 7.485-7.136 2.442-50.285 2.679-101.196.703-151.319 0-.007 0-.014 0-.022-.744-18.949-35.088-53.786-45.596-64.012-10.523-10.241-46.394-43.705-66.189-44.426-.002 0-.005-.001-.007-.001-50.568-1.837-101.796-.04-152.264 5.338-17.599 1.871-31.39 16.011-32.793 33.621-3.443 43.137-5.234 86.562-5.415 130.004l-186.589.003c-3.645 0-6.762 2.62-7.388 6.211-15.979 91.572-18.566 184.828-7.692 277.176.45 3.816 3.689 6.624 7.439 6.624.292 0 .589-.017.886-.052 4.114-.485 7.056-4.212 6.572-8.326-10.459-88.819-8.268-178.488 6.508-266.633h96.969v130.14c0 2.731 1.485 5.247 3.877 6.567 1.13.623 2.377.933 3.623.933 1.392 0 2.781-.387 4-1.156l48.875-30.812 27.869 17.565c.158 2.072.3 4.147.465 6.218 1.403 17.612 15.195 31.752 32.792 33.623 36.207 3.853 72.66 5.834 109.122 5.985-.664 47.953-4.993 96.074-12.904 143.257h-314.685c-.931-5.558-1.796-11.005-2.582-16.259-.612-4.097-4.43-6.923-8.526-6.309-4.097.612-6.921 4.43-6.309 8.526 1.094 7.317 2.338 14.996 3.699 22.825.624 3.593 3.742 6.216 7.389 6.216h327.34c3.645 0 6.762-2.62 7.389-6.21 8.735-50.027 13.497-101.154 14.189-152.088 34.422-.337 68.823-2.307 103.005-5.944 17.599-1.872 31.39-16.012 32.794-33.627.623-7.883 1.201-15.814 1.717-23.574.274-4.133-2.853-7.706-6.986-7.981-4.104-.264-7.705 2.853-7.98 6.986-.512 7.697-1.085 15.565-1.703 23.381-.83 10.421-9.001 18.79-19.428 19.898-74.302 7.908-149.65 7.907-223.953 0-10.426-1.108-18.596-9.477-19.427-19.899-7.204-90.273-7.204-181.813 0-272.078.831-10.421 9-18.789 19.428-19.897 47.467-5.058 95.615-6.896 143.224-5.483.904 20.836 2.174 41.821 3.826 62.498 1.404 17.615 15.199 31.757 32.799 33.626 22.543 2.399 45.336 4.09 67.866 5.051 1.674 47.459 1.378 95.562-.931 143.108zm-305.5 15.375c-2.443-1.541-5.555-1.541-7.999 0l-41.375 26.083v-116.545h68.297c.157 34.952 1.369 69.891 3.637 104.682zm240.151-178.448c-10.429-1.107-18.601-9.478-19.432-19.903-1.542-19.302-2.768-38.881-3.654-58.346 3.479 1.696 8.177 4.431 14.383 8.835 10.191 7.234 22.153 17.396 33.681 28.613 19.429 18.906 32.41 35.44 37.981 45.613-20.922-.973-42.05-2.587-62.959-4.812z"/><path d="m296.243 98.133c-3.686-1.885-8.205-.428-10.093 3.261l-16.068 31.406-5.332-9.331c-2.057-3.596-6.639-4.846-10.233-2.791-3.596 2.055-4.846 6.636-2.791 10.233l12.208 21.364c1.337 2.34 3.824 3.779 6.511 3.779.058 0 .116 0 .175-.002 2.752-.064 5.249-1.631 6.503-4.082l22.381-43.745c1.887-3.687.427-8.205-3.261-10.092z"/><path d="m317.242 127.57h71.703c4.143 0 7.5-3.358 7.5-7.5s-3.357-7.5-7.5-7.5h-71.703c-4.143 0-7.5 3.358-7.5 7.5s3.358 7.5 7.5 7.5z"/><path d="m463.097 146.52c0-4.142-3.357-7.5-7.5-7.5h-138.355c-4.143 0-7.5 3.358-7.5 7.5s3.357 7.5 7.5 7.5h138.354c4.143 0 7.501-3.358 7.501-7.5z"/><path d="m296.243 171.38c-3.686-1.885-8.205-.428-10.093 3.261l-16.068 31.406-5.332-9.331c-2.057-3.596-6.639-4.846-10.233-2.791-3.596 2.055-4.846 6.636-2.791 10.233l12.208 21.364c1.337 2.34 3.824 3.779 6.511 3.779.058 0 .116 0 .175-.002 2.752-.063 5.249-1.631 6.503-4.082l22.381-43.745c1.887-3.687.427-8.206-3.261-10.092z"/><path d="m317.242 200.816h71.703c4.143 0 7.5-3.358 7.5-7.5s-3.357-7.5-7.5-7.5h-71.703c-4.143 0-7.5 3.358-7.5 7.5s3.358 7.5 7.5 7.5z"/><path d="m460.782 219.764c0-4.142-3.357-7.5-7.5-7.5h-136.043c-4.143 0-7.5 3.358-7.5 7.5s3.357 7.5 7.5 7.5h136.043c4.143 0 7.5-3.358 7.5-7.5z"/><path d="m296.243 244.626c-3.686-1.886-8.205-.428-10.093 3.261l-16.068 31.406-5.332-9.331c-2.057-3.596-6.639-4.846-10.233-2.791-3.596 2.055-4.846 6.636-2.791 10.233l12.208 21.364c1.337 2.34 3.824 3.779 6.511 3.779.058 0 .116 0 .175-.002 2.752-.064 5.249-1.631 6.503-4.082l22.381-43.745c1.887-3.686.427-8.205-3.261-10.092z"/><path d="m317.242 274.063h71.703c4.143 0 7.5-3.358 7.5-7.5s-3.357-7.5-7.5-7.5h-71.703c-4.143 0-7.5 3.358-7.5 7.5s3.358 7.5 7.5 7.5z"/><path d="m317.239 300.517h82.094c4.143 0 7.5-3.358 7.5-7.5s-3.357-7.5-7.5-7.5h-82.094c-4.143 0-7.5 3.358-7.5 7.5s3.358 7.5 7.5 7.5z"/><path d="m59.786 473.012c12.895 1.082 25.881 1.622 38.868 1.622 12.986 0 25.973-.541 38.868-1.622 10.654-.893 19.035-9.274 19.929-19.929 2.163-25.791 2.163-51.946 0-77.737-.894-10.654-9.275-19.035-19.929-19.928-25.791-2.163-51.946-2.164-77.736 0-10.654.893-19.036 9.274-19.929 19.928-2.163 25.788-2.163 51.943 0 77.737.894 10.655 9.275 19.036 19.929 19.929zm-4.981-96.412c.28-3.333 2.901-5.955 6.234-6.234 12.48-1.046 25.047-1.569 37.615-1.569 12.567 0 25.135.523 37.615 1.569 3.333.28 5.955 2.902 6.234 6.234 2.093 24.959 2.093 50.271 0 75.23-.28 3.333-2.902 5.955-6.234 6.235-24.96 2.093-50.271 2.093-75.23 0-3.333-.28-5.955-2.901-6.234-6.234-2.093-24.963-2.093-50.274 0-75.231z"/><path d="m71.916 406.812h53.477c4.142 0 7.5-3.358 7.5-7.5s-3.358-7.5-7.5-7.5h-53.477c-4.142 0-7.5 3.358-7.5 7.5s3.358 7.5 7.5 7.5z"/><path d="m71.916 436.618h53.477c4.142 0 7.5-3.358 7.5-7.5s-3.358-7.5-7.5-7.5h-53.477c-4.142 0-7.5 3.358-7.5 7.5s3.358 7.5 7.5 7.5z"/></g></g></svg>