<svg id="Capa_1" enable-background="new 0 0 512 512" height="512" viewBox="0 0 512 512" width="512" xmlns="http://www.w3.org/2000/svg"><g><g><path d="m493.251 178.312-34.874 19.235-.91.177-57.42 11.154-26.233-1.129-31.187 12.283-57.42 11.154-26.466 1.141-30.955 10.013-57.42 11.154-44.814 1.504-12.514-57.218 51.813-10.065 25.588-.78 31.832-10.375 57.42-11.154 25.685.717 31.735-11.871 57.42-11.154 24.657.713 32.764-11.867 39.267-7.628c5.072-.985 9.993 2.05 11.468 6.885.006.019.131.47.131.47z" fill="#f6e266"/></g><g><path d="m493.251 178.312 9.567-46.64c-1.292-5.106-6.365-8.372-11.6-7.355l-12.117 2.354 6.555 33.745c1.053 5.418-2.487 10.664-7.905 11.716l-356.254 69.206 2.61 13.438 46.257-1.279 57.42-11.154 30.955-10.013 26.466-1.141 57.42-11.154 31.187-12.283 26.233 1.129 58.33-11.331z" fill="#f1d333"/></g><path d="m458.376 197.547 46.338-9.002c4.879-.948 8.066-5.672 7.119-10.551 0 0-7.999-41.26-9.015-46.323z" fill="#365e7d"/><path d="m502.818 131.672-17.66 26.178.499 2.566c1.052 5.418-2.487 10.664-7.905 11.716l-2.565.498-16.81 24.917 46.338-9.002c4.879-.948 8.066-5.672 7.119-10.551-.001 0-7.999-41.26-9.016-46.322z" fill="#2b4d66"/><g><path d="m342.626 220.033 57.42-11.155 51.906-76.934-57.421 11.155z" fill="#365e7d"/></g><g><path d="m285.206 231.187 51.905-76.934-57.42 11.155-51.906 76.933z" fill="#365e7d"/></g><g><path d="m164.85 187.717-41.748 61.878 2.449 12.606 44.814-8.705 51.905-76.934z" fill="#365e7d"/></g><g><path d="m359.437 195.115-16.811 24.918 57.42-11.155 16.812-24.918z" fill="#2b4d66"/></g><g><path d="m244.596 217.424-16.811 24.917 57.42-11.154 16.812-24.918z" fill="#2b4d66"/></g><g><path d="m129.756 239.733-6.654 9.862 2.449 12.606 44.814-8.705 16.811-24.918z" fill="#2b4d66"/></g><g><g><path d="m132.152 352.184h-112.51v-175.292c0-18.072 14.65-32.723 32.723-32.723h47.064c18.072 0 32.723 14.65 32.723 32.723z" fill="#e49542"/></g><path d="m99.429 144.169h-24.442c18.072 0 32.723 14.65 32.723 32.723v175.293h24.441v-175.293c.001-18.073-14.65-32.723-32.722-32.723z" fill="#df751c"/><g><circle cx="75.956" cy="226.882" fill="#365e7d" r="26.111"/></g><path d="m84.537 202.222c1.145 2.938 1.78 6.13 1.78 9.473 0 14.421-11.69 26.111-26.111 26.111-3.007 0-5.893-.515-8.581-1.45 3.794 9.736 13.253 16.638 24.331 16.638 14.421 0 26.111-11.69 26.111-26.111 0-11.414-7.326-21.111-17.53-24.661z" fill="#2b4d66"/><g><path d="m144.793 387.869h-137.793c-3.866 0-7-3.134-7-7v-32.999c0-3.866 3.134-7 7-7h137.793c3.866 0 7 3.134 7 7v32.999c0 3.866-3.134 7-7 7z" fill="#365e7d"/></g><path d="m144.794 340.87h-8.188v23.687c0 3.866-3.134 7-7 7h-129.606v9.312c0 3.866 3.134 7 7 7h137.793c3.866 0 7-3.134 7-7v-32.999c.001-3.866-3.134-7-6.999-7z" fill="#2b4d66"/><g><circle cx="58.501" cy="299.456" fill="#da4a54" r="10.638"/></g><g><circle cx="93.293" cy="299.456" fill="#78c2a4" r="10.638"/></g></g></g></svg>