<svg enable-background="new 0 0 36 36" height="512" viewBox="0 0 36 36" width="512" xmlns="http://www.w3.org/2000/svg"><path d="m13.411 34.999c6.298-2.859 12.105-1.559 15.14-2.936 3.035-1.378 8.617-6.016 2.28-19.978s-15.841-12.12-19.18-10.605c-15.632 7.095-9.395 38.582 1.76 33.519z" fill="#efefef"/><path d="m23.623 20.79-5.46 5.46h-4.99l-3.83-3.83c-.4-.39-.59-.9-.59-1.41 0-.52.19-1.03.59-1.42l6.54-6.54z" fill="#f3f3f1"/><path d="m27.923 15.67c0 .51-.2 1.02-.59 1.41l-3.71 3.71-7.74-7.74 3.71-3.71c.39-.4.9-.59 1.41-.59.52 0 1.03.19 1.42.59l4.91 4.91c.39.39.59.9.59 1.42z" fill="#2fdf84"/><path d="m18.133 13.55 3.71-3.71c.19-.195.41-.339.644-.436l-.064-.064c-.39-.4-.9-.59-1.42-.59-.51 0-1.02.19-1.41.59l-3.71 3.71 7.74 7.74.875-.875z" fill="#00b871"/><g fill="#a4afc1"><path d="m9 7.042h2v1h-2z"/><path d="m3.25 7.042h2v1h-2z"/><path d="m6.75 3.542h1v2h-1z"/><path d="m6.75 9.292h1v2h-1z"/><path d="m31 11.125c-.827 0-1.5-.673-1.5-1.5s.673-1.5 1.5-1.5 1.5.673 1.5 1.5-.673 1.5-1.5 1.5zm0-2c-.276 0-.5.224-.5.5s.224.5.5.5.5-.224.5-.5-.224-.5-.5-.5z"/></g><path d="m11.593 22.92c-.4-.39-.59-.9-.59-1.41 0-.52.19-1.03.59-1.42l5.665-5.665-1.375-1.375-6.54 6.54c-.4.39-.59.9-.59 1.42 0 .51.19 1.02.59 1.41l3.83 3.83h1.75z" fill="#d5dbe1"/><path d="m8.75 25.5h18.5v1.5h-18.5z"/><path d="m18.69 26.78-1.06-1.06 9.17-9.17c.239-.239.37-.551.37-.88 0-.335-.131-.651-.37-.89l-4.91-4.91c-.3-.307-.649-.37-.89-.37-.334 0-.645.129-.874.364l-10.256 10.256c-.307.3-.37.648-.37.89 0 .334.129.645.364.874l3.836 3.836-1.06 1.06-3.83-3.83c-.52-.507-.81-1.198-.81-1.94 0-.749.29-1.443.816-1.957l10.244-10.243c1.018-1.044 2.875-1.042 3.897.006l4.904 4.904c.522.522.81 1.214.81 1.95 0 .729-.288 1.418-.81 1.94z"/><path d="m19.002 11.445h1.5v10.946h-1.5z" transform="matrix(.707 -.707 .707 .707 -6.178 18.921)"/></svg>