<svg enable-background="new 0 0 36 36" height="512" viewBox="0 0 36 36" width="512" xmlns="http://www.w3.org/2000/svg"><path d="m4.167 27.623c0-6.917-3.583-11.667-3.583-15s1.916-10.333 17.249-10.333 17.583 9.417 17.583 13.083c.001 17.167-31.249 24.5-31.249 12.25z" fill="#efefef"/><path d="m8.75 29.25c-1.105 0-2-.895-2-2v-14.5c0-1.105.895-2 2-2h14.5c1.105 0 2 .895 2 2v8.5 6c0 1.105-.895 2-2 2z" fill="#f3f3f1"/><path d="m9 27.25v-14.5c0-1.105.895-2 2-2h-2.25c-1.105 0-2 .895-2 2v14.5c0 1.105.895 2 2 2h2.25c-1.105 0-2-.895-2-2z" fill="#d5dbe1"/><path d="m29.25 8.747c0 .52-.19 1.03-.59 1.42l-1.41 1.41-2.82-2.82 1.41-1.42c.78-.78 2.04-.78 2.82 0 .4.39.59.9.59 1.41z" fill="#f3f3f1"/><path d="m27.25 11.577-8.94 8.94-3.54.71.71-3.53 8.95-8.94z" fill="#2fdf84"/><path d="m26.68 9.007 1.41-1.42c.14-.14.299-.246.465-.336-.784-.685-1.968-.661-2.715.086l-1.41 1.42 2.82 2.82 1-1z" fill="#d5dbe1"/><path d="m17.73 17.947 7.949-7.941-1.249-1.249-8.95 8.94-.71 3.53 2.397-.481z" fill="#00b871"/><g fill="#a4afc1"><path d="m2.75 9.5h2v1h-2z"/><path d="m6.25 6h1v2h-1z"/><path d="m31 28.5c-.827 0-1.5-.673-1.5-1.5s.673-1.5 1.5-1.5 1.5.673 1.5 1.5-.673 1.5-1.5 1.5zm0-2c-.275 0-.5.224-.5.5s.225.5.5.5.5-.224.5-.5-.225-.5-.5-.5z"/></g><path d="m23.25 30h-14.5c-1.517 0-2.75-1.233-2.75-2.75v-14.5c0-1.517 1.233-2.75 2.75-2.75h8.5v1.5h-8.5c-.689 0-1.25.561-1.25 1.25v14.5c0 .689.561 1.25 1.25 1.25h14.5c.689 0 1.25-.561 1.25-1.25v-8.5h1.5v8.5c0 1.517-1.233 2.75-2.75 2.75z"/><path d="m14.772 21.978c-.197 0-.389-.078-.53-.22-.178-.177-.254-.432-.205-.677l.707-3.536c.029-.146.101-.279.205-.383l10.357-10.356c1.072-1.072 2.816-1.072 3.889 0 .519.519.805 1.209.805 1.944s-.286 1.425-.806 1.944l-10.356 10.357c-.104.105-.238.176-.383.205l-3.535.707c-.049.01-.099.015-.148.015zm1.398-3.916-.441 2.21 2.209-.442 10.196-10.196c.236-.237.366-.55.366-.884s-.13-.647-.366-.884c-.486-.487-1.279-.487-1.768 0z"/><path d="m25.086 8.164h1.5v4h-1.5z" transform="matrix(.707 -.707 .707 .707 .379 21.244)"/></svg>